solid ASCII
  facet normal 7.281381e-17 7.071068e-01 -7.071068e-01
    outer loop
      vertex   1.400000e+01 1.500000e+00 -4.700000e+00
      vertex   1.400000e+01 1.200000e+00 -5.000000e+00
      vertex   -1.187574e+01 1.500000e+00 -4.700000e+00
    endloop
  endfacet
  facet normal 0.000000e+00 7.071068e-01 -7.071068e-01
    outer loop
      vertex   -1.187574e+01 1.500000e+00 -4.700000e+00
      vertex   1.400000e+01 1.200000e+00 -5.000000e+00
      vertex   -1.200000e+01 1.200000e+00 -5.000000e+00
    endloop
  endfacet
  facet normal -7.071068e-01 7.071068e-01 -2.093457e-16
    outer loop
      vertex   -1.400000e+01 1.200000e+00 -3.000000e+00
      vertex   -1.400000e+01 1.200000e+00 3.000000e+00
      vertex   -1.370000e+01 1.500000e+00 -2.875736e+00
    endloop
  endfacet
  facet normal -7.071068e-01 7.071068e-01 -2.183917e-16
    outer loop
      vertex   -1.370000e+01 1.500000e+00 -2.875736e+00
      vertex   -1.400000e+01 1.200000e+00 3.000000e+00
      vertex   -1.370000e+01 1.500000e+00 2.875736e+00
    endloop
  endfacet
  facet normal -5.000000e-01 7.071068e-01 5.000000e-01
    outer loop
      vertex   -1.187574e+01 1.500000e+00 4.700000e+00
      vertex   -1.370000e+01 1.500000e+00 2.875736e+00
      vertex   -1.200000e+01 1.200000e+00 5.000000e+00
    endloop
  endfacet
  facet normal -5.000000e-01 7.071068e-01 5.000000e-01
    outer loop
      vertex   -1.200000e+01 1.200000e+00 5.000000e+00
      vertex   -1.370000e+01 1.500000e+00 2.875736e+00
      vertex   -1.400000e+01 1.200000e+00 3.000000e+00
    endloop
  endfacet
  facet normal -5.000000e-01 7.071068e-01 -5.000000e-01
    outer loop
      vertex   -1.200000e+01 1.200000e+00 -5.000000e+00
      vertex   -1.400000e+01 1.200000e+00 -3.000000e+00
      vertex   -1.187574e+01 1.500000e+00 -4.700000e+00
    endloop
  endfacet
  facet normal -5.000000e-01 7.071068e-01 -5.000000e-01
    outer loop
      vertex   -1.187574e+01 1.500000e+00 -4.700000e+00
      vertex   -1.400000e+01 1.200000e+00 -3.000000e+00
      vertex   -1.370000e+01 1.500000e+00 -2.875736e+00
    endloop
  endfacet
  facet normal 2.415527e-17 7.071068e-01 7.071068e-01
    outer loop
      vertex   -1.200000e+01 1.200000e+00 5.000000e+00
      vertex   1.400000e+01 1.200000e+00 5.000000e+00
      vertex   -1.187574e+01 1.500000e+00 4.700000e+00
    endloop
  endfacet
  facet normal 2.427127e-17 7.071068e-01 7.071068e-01
    outer loop
      vertex   -1.187574e+01 1.500000e+00 4.700000e+00
      vertex   1.400000e+01 1.200000e+00 5.000000e+00
      vertex   1.400000e+01 1.500000e+00 4.700000e+00
    endloop
  endfacet
  facet normal 1.000000e+00 1.889741e-16 -1.889741e-16
    outer loop
      vertex   1.400000e+01 1.500000e+00 -4.700000e+00
      vertex   1.400000e+01 1.500000e+00 4.700000e+00
      vertex   1.400000e+01 1.200000e+00 -5.000000e+00
    endloop
  endfacet
  facet normal 1.000000e+00 -1.776357e-16 -1.776357e-16
    outer loop
      vertex   1.400000e+01 1.200000e+00 -5.000000e+00
      vertex   1.400000e+01 1.500000e+00 4.700000e+00
      vertex   1.400000e+01 1.200000e+00 5.000000e+00
    endloop
  endfacet
  facet normal 1.000000e+00 0.000000e+00 -1.776357e-16
    outer loop
      vertex   1.400000e+01 1.200000e+00 -5.000000e+00
      vertex   1.400000e+01 1.200000e+00 5.000000e+00
      vertex   1.400000e+01 -1.000000e+00 -5.000000e+00
    endloop
  endfacet
  facet normal 1.000000e+00 0.000000e+00 -1.776357e-16
    outer loop
      vertex   1.400000e+01 -1.000000e+00 -5.000000e+00
      vertex   1.400000e+01 1.200000e+00 5.000000e+00
      vertex   1.400000e+01 -1.000000e+00 5.000000e+00
    endloop
  endfacet
  facet normal 3.416071e-17 4.037175e-16 1.000000e+00
    outer loop
      vertex   1.400000e+01 1.200000e+00 5.000000e+00
      vertex   -1.200000e+01 1.200000e+00 5.000000e+00
      vertex   1.400000e+01 -1.000000e+00 5.000000e+00
    endloop
  endfacet
  facet normal 6.832142e-17 8.074349e-16 1.000000e+00
    outer loop
      vertex   1.400000e+01 -1.000000e+00 5.000000e+00
      vertex   -1.200000e+01 1.200000e+00 5.000000e+00
      vertex   -1.200000e+01 -1.000000e+00 5.000000e+00
    endloop
  endfacet
  facet normal -7.071068e-01 5.709427e-16 7.071068e-01
    outer loop
      vertex   -1.200000e+01 1.200000e+00 5.000000e+00
      vertex   -1.400000e+01 1.200000e+00 3.000000e+00
      vertex   -1.200000e+01 -1.000000e+00 5.000000e+00
    endloop
  endfacet
  facet normal -7.071068e-01 0.000000e+00 7.071068e-01
    outer loop
      vertex   -1.200000e+01 -1.000000e+00 5.000000e+00
      vertex   -1.400000e+01 1.200000e+00 3.000000e+00
      vertex   -1.400000e+01 -1.000000e+00 3.000000e+00
    endloop
  endfacet
  facet normal -1.000000e+00 -0.000000e+00 -2.960595e-16
    outer loop
      vertex   -1.400000e+01 1.200000e+00 3.000000e+00
      vertex   -1.400000e+01 1.200000e+00 -3.000000e+00
      vertex   -1.400000e+01 -1.000000e+00 3.000000e+00
    endloop
  endfacet
  facet normal -1.000000e+00 0.000000e+00 -2.960595e-16
    outer loop
      vertex   -1.400000e+01 -1.000000e+00 3.000000e+00
      vertex   -1.400000e+01 1.200000e+00 -3.000000e+00
      vertex   -1.400000e+01 -1.000000e+00 -3.000000e+00
    endloop
  endfacet
  facet normal -7.071068e-01 -1.427357e-16 -7.071068e-01
    outer loop
      vertex   -1.400000e+01 1.200000e+00 -3.000000e+00
      vertex   -1.200000e+01 1.200000e+00 -5.000000e+00
      vertex   -1.400000e+01 -1.000000e+00 -3.000000e+00
    endloop
  endfacet
  facet normal -7.071068e-01 0.000000e+00 -7.071068e-01
    outer loop
      vertex   -1.400000e+01 -1.000000e+00 -3.000000e+00
      vertex   -1.200000e+01 1.200000e+00 -5.000000e+00
      vertex   -1.200000e+01 -1.000000e+00 -5.000000e+00
    endloop
  endfacet
  facet normal 0.000000e+00 1.000000e+00 0.000000e+00
    outer loop
      vertex   1.400000e+01 1.500000e+00 4.700000e+00
      vertex   2.245487e+00 1.500000e+00 4.000413e+00
      vertex   -1.187574e+01 1.500000e+00 4.700000e+00
    endloop
  endfacet
  facet normal 0.000000e+00 1.000000e+00 0.000000e+00
    outer loop
      vertex   -1.187574e+01 1.500000e+00 4.700000e+00
      vertex   2.245487e+00 1.500000e+00 4.000413e+00
      vertex   -2.554513e+00 1.500000e+00 4.000139e+00
    endloop
  endfacet
  facet normal 0.000000e+00 1.000000e+00 0.000000e+00
    outer loop
      vertex   -1.187574e+01 1.500000e+00 4.700000e+00
      vertex   -2.554513e+00 1.500000e+00 4.000139e+00
      vertex   -4.188800e+00 1.500000e+00 4.000046e+00
    endloop
  endfacet
  facet normal -0.000000e+00 1.000000e+00 0.000000e+00
    outer loop
      vertex   -4.188800e+00 1.500000e+00 4.000046e+00
      vertex   -2.554513e+00 1.500000e+00 4.000139e+00
      vertex   -2.554431e+00 1.500000e+00 2.571567e+00
    endloop
  endfacet
  facet normal 0.000000e+00 1.000000e+00 0.000000e+00
    outer loop
      vertex   -4.188800e+00 1.500000e+00 4.000046e+00
      vertex   -2.554431e+00 1.500000e+00 2.571567e+00
      vertex   -2.257061e+00 1.500000e+00 -1.405558e+00
    endloop
  endfacet
  facet normal 0.000000e+00 1.000000e+00 -0.000000e+00
    outer loop
      vertex   -2.257061e+00 1.500000e+00 -1.405558e+00
      vertex   -2.554431e+00 1.500000e+00 2.571567e+00
      vertex   -1.023002e+00 1.500000e+00 2.571655e+00
    endloop
  endfacet
  facet normal -0.000000e+00 1.000000e+00 0.000000e+00
    outer loop
      vertex   -2.257061e+00 1.500000e+00 -1.405558e+00
      vertex   -1.023002e+00 1.500000e+00 2.571655e+00
      vertex   -1.022743e+00 1.500000e+00 -1.965488e+00
    endloop
  endfacet
  facet normal 0.000000e+00 1.000000e+00 -0.000000e+00
    outer loop
      vertex   1.400000e+01 1.500000e+00 -4.700000e+00
      vertex   1.250000e+01 1.500000e+00 1.750000e+00
      vertex   1.400000e+01 1.500000e+00 4.700000e+00
    endloop
  endfacet
  facet normal 0.000000e+00 1.000000e+00 0.000000e+00
    outer loop
      vertex   1.400000e+01 1.500000e+00 4.700000e+00
      vertex   1.250000e+01 1.500000e+00 1.750000e+00
      vertex   1.100000e+01 1.500000e+00 1.750000e+00
    endloop
  endfacet
  facet normal 0.000000e+00 1.000000e+00 0.000000e+00
    outer loop
      vertex   1.400000e+01 1.500000e+00 4.700000e+00
      vertex   1.100000e+01 1.500000e+00 1.750000e+00
      vertex   7.000000e+00 1.500000e+00 1.750000e+00
    endloop
  endfacet
  facet normal 0.000000e+00 1.000000e+00 0.000000e+00
    outer loop
      vertex   7.000000e+00 1.500000e+00 1.750000e+00
      vertex   1.100000e+01 1.500000e+00 1.750000e+00
      vertex   1.100000e+01 1.500000e+00 -1.750000e+00
    endloop
  endfacet
  facet normal 0.000000e+00 1.000000e+00 0.000000e+00
    outer loop
      vertex   7.000000e+00 1.500000e+00 1.750000e+00
      vertex   1.100000e+01 1.500000e+00 -1.750000e+00
      vertex   7.000000e+00 1.500000e+00 -1.750000e+00
    endloop
  endfacet
  facet normal 0.000000e+00 1.000000e+00 0.000000e+00
    outer loop
      vertex   7.000000e+00 1.500000e+00 -1.750000e+00
      vertex   1.100000e+01 1.500000e+00 -1.750000e+00
      vertex   1.400000e+01 1.500000e+00 -4.700000e+00
    endloop
  endfacet
  facet normal 0.000000e+00 1.000000e+00 0.000000e+00
    outer loop
      vertex   7.000000e+00 1.500000e+00 -1.750000e+00
      vertex   1.400000e+01 1.500000e+00 -4.700000e+00
      vertex   9.202296e-01 1.500000e+00 -3.999663e+00
    endloop
  endfacet
  facet normal 0.000000e+00 1.000000e+00 0.000000e+00
    outer loop
      vertex   9.202296e-01 1.500000e+00 -3.999663e+00
      vertex   1.400000e+01 1.500000e+00 -4.700000e+00
      vertex   -1.187574e+01 1.500000e+00 -4.700000e+00
    endloop
  endfacet
  facet normal 0.000000e+00 1.000000e+00 0.000000e+00
    outer loop
      vertex   9.202296e-01 1.500000e+00 -3.999663e+00
      vertex   -1.187574e+01 1.500000e+00 -4.700000e+00
      vertex   -5.426282e-01 1.500000e+00 -3.999747e+00
    endloop
  endfacet
  facet normal 0.000000e+00 1.000000e+00 0.000000e+00
    outer loop
      vertex   -5.426282e-01 1.500000e+00 -3.999747e+00
      vertex   -1.187574e+01 1.500000e+00 -4.700000e+00
      vertex   -4.188343e+00 1.500000e+00 -3.999955e+00
    endloop
  endfacet
  facet normal 0.000000e+00 1.000000e+00 0.000000e+00
    outer loop
      vertex   -5.426282e-01 1.500000e+00 -3.999747e+00
      vertex   -4.188343e+00 1.500000e+00 -3.999955e+00
      vertex   -2.931276e+00 1.500000e+00 -2.639883e+00
    endloop
  endfacet
  facet normal 0.000000e+00 1.000000e+00 0.000000e+00
    outer loop
      vertex   -2.931276e+00 1.500000e+00 -2.639883e+00
      vertex   -4.188343e+00 1.500000e+00 -3.999955e+00
      vertex   -4.188800e+00 1.500000e+00 4.000046e+00
    endloop
  endfacet
  facet normal 0.000000e+00 1.000000e+00 -0.000000e+00
    outer loop
      vertex   -2.931276e+00 1.500000e+00 -2.639883e+00
      vertex   -4.188800e+00 1.500000e+00 4.000046e+00
      vertex   -2.257061e+00 1.500000e+00 -1.405558e+00
    endloop
  endfacet
  facet normal 0.000000e+00 1.000000e+00 0.000000e+00
    outer loop
      vertex   -1.370000e+01 1.500000e+00 -2.875736e+00
      vertex   -1.224549e+01 1.500000e+00 -4.000415e+00
      vertex   -1.187574e+01 1.500000e+00 -4.700000e+00
    endloop
  endfacet
  facet normal 0.000000e+00 1.000000e+00 -0.000000e+00
    outer loop
      vertex   -1.187574e+01 1.500000e+00 -4.700000e+00
      vertex   -1.224549e+01 1.500000e+00 -4.000415e+00
      vertex   -9.731200e+00 1.500000e+00 -4.000271e+00
    endloop
  endfacet
  facet normal 0.000000e+00 1.000000e+00 0.000000e+00
    outer loop
      vertex   -1.187574e+01 1.500000e+00 -4.700000e+00
      vertex   -9.731200e+00 1.500000e+00 -4.000271e+00
      vertex   -6.622629e+00 1.500000e+00 -4.000094e+00
    endloop
  endfacet
  facet normal 0.000000e+00 1.000000e+00 -0.000000e+00
    outer loop
      vertex   -6.622629e+00 1.500000e+00 -4.000094e+00
      vertex   -9.731200e+00 1.500000e+00 -4.000271e+00
      vertex   -6.611201e+00 1.500000e+00 -3.988665e+00
    endloop
  endfacet
  facet normal 0.000000e+00 1.000000e+00 0.000000e+00
    outer loop
      vertex   -6.611201e+00 1.500000e+00 -3.988665e+00
      vertex   -9.731200e+00 1.500000e+00 -4.000271e+00
      vertex   -8.211493e+00 1.500000e+00 1.131245e+00
    endloop
  endfacet
  facet normal -0.000000e+00 1.000000e+00 -0.000000e+00
    outer loop
      vertex   -1.370000e+01 1.500000e+00 -2.875736e+00
      vertex   -1.370000e+01 1.500000e+00 2.875736e+00
      vertex   -1.224549e+01 1.500000e+00 -4.000415e+00
    endloop
  endfacet
  facet normal 0.000000e+00 1.000000e+00 0.000000e+00
    outer loop
      vertex   -1.224549e+01 1.500000e+00 -4.000415e+00
      vertex   -1.370000e+01 1.500000e+00 2.875736e+00
      vertex   -1.224594e+01 1.500000e+00 3.999586e+00
    endloop
  endfacet
  facet normal 0.000000e+00 1.000000e+00 -0.000000e+00
    outer loop
      vertex   -1.224594e+01 1.500000e+00 3.999586e+00
      vertex   -1.370000e+01 1.500000e+00 2.875736e+00
      vertex   -1.187574e+01 1.500000e+00 4.700000e+00
    endloop
  endfacet
  facet normal 0.000000e+00 1.000000e+00 0.000000e+00
    outer loop
      vertex   -1.224594e+01 1.500000e+00 3.999586e+00
      vertex   -1.187574e+01 1.500000e+00 4.700000e+00
      vertex   -1.046309e+01 1.500000e+00 3.999687e+00
    endloop
  endfacet
  facet normal 0.000000e+00 1.000000e+00 -0.000000e+00
    outer loop
      vertex   -1.046309e+01 1.500000e+00 3.999687e+00
      vertex   -1.187574e+01 1.500000e+00 4.700000e+00
      vertex   -6.074514e+00 1.500000e+00 3.999938e+00
    endloop
  endfacet
  facet normal -0.000000e+00 1.000000e+00 0.000000e+00
    outer loop
      vertex   -1.046309e+01 1.500000e+00 3.999687e+00
      vertex   -6.074514e+00 1.500000e+00 3.999938e+00
      vertex   -9.205878e+00 1.500000e+00 2.856902e+00
    endloop
  endfacet
  facet normal 0.000000e+00 1.000000e+00 0.000000e+00
    outer loop
      vertex   -9.205878e+00 1.500000e+00 2.856902e+00
      vertex   -6.074514e+00 1.500000e+00 3.999938e+00
      vertex   -7.297306e+00 1.500000e+00 2.857011e+00
    endloop
  endfacet
  facet normal -0.000000e+00 1.000000e+00 0.000000e+00
    outer loop
      vertex   -7.297306e+00 1.500000e+00 2.857011e+00
      vertex   -6.074514e+00 1.500000e+00 3.999938e+00
      vertex   -6.074222e+00 1.500000e+00 -1.120062e+00
    endloop
  endfacet
  facet normal 0.000000e+00 1.000000e+00 0.000000e+00
    outer loop
      vertex   -7.297306e+00 1.500000e+00 2.857011e+00
      vertex   -6.074222e+00 1.500000e+00 -1.120062e+00
      vertex   -7.308734e+00 1.500000e+00 2.845582e+00
    endloop
  endfacet
  facet normal -0.000000e+00 1.000000e+00 0.000000e+00
    outer loop
      vertex   1.100000e+01 1.500000e+00 -1.750000e+00
      vertex   1.250000e+01 1.500000e+00 -1.750000e+00
      vertex   1.400000e+01 1.500000e+00 -4.700000e+00
    endloop
  endfacet
  facet normal 0.000000e+00 1.000000e+00 0.000000e+00
    outer loop
      vertex   1.400000e+01 1.500000e+00 -4.700000e+00
      vertex   1.250000e+01 1.500000e+00 -1.750000e+00
      vertex   1.250000e+01 1.500000e+00 1.750000e+00
    endloop
  endfacet
  facet normal 0.000000e+00 1.000000e+00 0.000000e+00
    outer loop
      vertex   1.400000e+01 1.500000e+00 4.700000e+00
      vertex   7.000000e+00 1.500000e+00 1.750000e+00
      vertex   2.245487e+00 1.500000e+00 4.000413e+00
    endloop
  endfacet
  facet normal 0.000000e+00 1.000000e+00 0.000000e+00
    outer loop
      vertex   2.245487e+00 1.500000e+00 4.000413e+00
      vertex   7.000000e+00 1.500000e+00 1.750000e+00
      vertex   5.500000e+00 1.500000e+00 1.750000e+00
    endloop
  endfacet
  facet normal 0.000000e+00 1.000000e+00 0.000000e+00
    outer loop
      vertex   2.245487e+00 1.500000e+00 4.000413e+00
      vertex   5.500000e+00 1.500000e+00 1.750000e+00
      vertex   2.245569e+00 1.500000e+00 2.571841e+00
    endloop
  endfacet
  facet normal 0.000000e+00 1.000000e+00 0.000000e+00
    outer loop
      vertex   2.245569e+00 1.500000e+00 2.571841e+00
      vertex   5.500000e+00 1.500000e+00 1.750000e+00
      vertex   9.198542e-01 1.500000e+00 2.571766e+00
    endloop
  endfacet
  facet normal 0.000000e+00 1.000000e+00 0.000000e+00
    outer loop
      vertex   9.198542e-01 1.500000e+00 2.571766e+00
      vertex   5.500000e+00 1.500000e+00 1.750000e+00
      vertex   5.500000e+00 1.500000e+00 -1.750000e+00
    endloop
  endfacet
  facet normal 0.000000e+00 1.000000e+00 0.000000e+00
    outer loop
      vertex   9.198542e-01 1.500000e+00 2.571766e+00
      vertex   5.500000e+00 1.500000e+00 -1.750000e+00
      vertex   9.202296e-01 1.500000e+00 -3.999663e+00
    endloop
  endfacet
  facet normal 0.000000e+00 1.000000e+00 0.000000e+00
    outer loop
      vertex   9.202296e-01 1.500000e+00 -3.999663e+00
      vertex   5.500000e+00 1.500000e+00 -1.750000e+00
      vertex   7.000000e+00 1.500000e+00 -1.750000e+00
    endloop
  endfacet
  facet normal 0.000000e+00 1.000000e+00 0.000000e+00
    outer loop
      vertex   -4.188800e+00 1.500000e+00 4.000046e+00
      vertex   -6.074514e+00 1.500000e+00 3.999938e+00
      vertex   -1.187574e+01 1.500000e+00 4.700000e+00
    endloop
  endfacet
  facet normal 0.000000e+00 1.000000e+00 0.000000e+00
    outer loop
      vertex   -9.205878e+00 1.500000e+00 2.856902e+00
      vertex   -1.046279e+01 1.500000e+00 -1.234599e+00
      vertex   -1.046309e+01 1.500000e+00 3.999687e+00
    endloop
  endfacet
  facet normal -0.000000e+00 1.000000e+00 0.000000e+00
    outer loop
      vertex   -6.622629e+00 1.500000e+00 -4.000094e+00
      vertex   -4.188343e+00 1.500000e+00 -3.999955e+00
      vertex   -1.187574e+01 1.500000e+00 -4.700000e+00
    endloop
  endfacet
  facet normal 1.000000e+00 -0.000000e+00 0.000000e+00
    outer loop
      vertex   1.100000e+01 -1.000000e+00 1.750000e+00
      vertex   1.100000e+01 -1.000000e+00 -1.750000e+00
      vertex   1.100000e+01 1.500000e+00 1.750000e+00
    endloop
  endfacet
  facet normal 1.000000e+00 0.000000e+00 0.000000e+00
    outer loop
      vertex   1.100000e+01 1.500000e+00 1.750000e+00
      vertex   1.100000e+01 -1.000000e+00 -1.750000e+00
      vertex   1.100000e+01 1.500000e+00 -1.750000e+00
    endloop
  endfacet
  facet normal 0.000000e+00 0.000000e+00 1.000000e+00
    outer loop
      vertex   1.100000e+01 -1.000000e+00 -1.750000e+00
      vertex   1.250000e+01 -1.000000e+00 -1.750000e+00
      vertex   1.100000e+01 1.500000e+00 -1.750000e+00
    endloop
  endfacet
  facet normal -0.000000e+00 0.000000e+00 1.000000e+00
    outer loop
      vertex   1.100000e+01 1.500000e+00 -1.750000e+00
      vertex   1.250000e+01 -1.000000e+00 -1.750000e+00
      vertex   1.250000e+01 1.500000e+00 -1.750000e+00
    endloop
  endfacet
  facet normal -1.000000e+00 0.000000e+00 -5.075305e-16
    outer loop
      vertex   1.250000e+01 -1.000000e+00 -1.750000e+00
      vertex   1.250000e+01 -1.000000e+00 1.750000e+00
      vertex   1.250000e+01 1.500000e+00 -1.750000e+00
    endloop
  endfacet
  facet normal -1.000000e+00 0.000000e+00 -5.075305e-16
    outer loop
      vertex   1.250000e+01 1.500000e+00 -1.750000e+00
      vertex   1.250000e+01 -1.000000e+00 1.750000e+00
      vertex   1.250000e+01 1.500000e+00 1.750000e+00
    endloop
  endfacet
  facet normal 0.000000e+00 0.000000e+00 -1.000000e+00
    outer loop
      vertex   1.250000e+01 -1.000000e+00 1.750000e+00
      vertex   1.100000e+01 -1.000000e+00 1.750000e+00
      vertex   1.250000e+01 1.500000e+00 1.750000e+00
    endloop
  endfacet
  facet normal -0.000000e+00 0.000000e+00 -1.000000e+00
    outer loop
      vertex   1.250000e+01 1.500000e+00 1.750000e+00
      vertex   1.100000e+01 -1.000000e+00 1.750000e+00
      vertex   1.100000e+01 1.500000e+00 1.750000e+00
    endloop
  endfacet
  facet normal 1.000000e+00 0.000000e+00 -2.537653e-16
    outer loop
      vertex   5.500000e+00 -1.000000e+00 1.750000e+00
      vertex   5.500000e+00 -1.000000e+00 -1.750000e+00
      vertex   5.500000e+00 1.500000e+00 1.750000e+00
    endloop
  endfacet
  facet normal 1.000000e+00 0.000000e+00 -2.537653e-16
    outer loop
      vertex   5.500000e+00 1.500000e+00 1.750000e+00
      vertex   5.500000e+00 -1.000000e+00 -1.750000e+00
      vertex   5.500000e+00 1.500000e+00 -1.750000e+00
    endloop
  endfacet
  facet normal 7.401487e-16 -0.000000e+00 1.000000e+00
    outer loop
      vertex   5.500000e+00 -1.000000e+00 -1.750000e+00
      vertex   7.000000e+00 -1.000000e+00 -1.750000e+00
      vertex   5.500000e+00 1.500000e+00 -1.750000e+00
    endloop
  endfacet
  facet normal 7.401487e-16 0.000000e+00 1.000000e+00
    outer loop
      vertex   5.500000e+00 1.500000e+00 -1.750000e+00
      vertex   7.000000e+00 -1.000000e+00 -1.750000e+00
      vertex   7.000000e+00 1.500000e+00 -1.750000e+00
    endloop
  endfacet
  facet normal -1.000000e+00 0.000000e+00 0.000000e+00
    outer loop
      vertex   7.000000e+00 -1.000000e+00 -1.750000e+00
      vertex   7.000000e+00 -1.000000e+00 1.750000e+00
      vertex   7.000000e+00 1.500000e+00 -1.750000e+00
    endloop
  endfacet
  facet normal -1.000000e+00 0.000000e+00 0.000000e+00
    outer loop
      vertex   7.000000e+00 1.500000e+00 -1.750000e+00
      vertex   7.000000e+00 -1.000000e+00 1.750000e+00
      vertex   7.000000e+00 1.500000e+00 1.750000e+00
    endloop
  endfacet
  facet normal -7.401487e-16 0.000000e+00 -1.000000e+00
    outer loop
      vertex   7.000000e+00 -1.000000e+00 1.750000e+00
      vertex   5.500000e+00 -1.000000e+00 1.750000e+00
      vertex   7.000000e+00 1.500000e+00 1.750000e+00
    endloop
  endfacet
  facet normal -7.401487e-16 0.000000e+00 -1.000000e+00
    outer loop
      vertex   7.000000e+00 1.500000e+00 1.750000e+00
      vertex   5.500000e+00 -1.000000e+00 1.750000e+00
      vertex   5.500000e+00 1.500000e+00 1.750000e+00
    endloop
  endfacet
  facet normal 0.000000e+00 -1.000000e+00 0.000000e+00
    outer loop
      vertex   -1.200000e+01 -1.000000e+00 -5.000000e+00
      vertex   5.500000e+00 -1.000000e+00 -1.750000e+00
      vertex   -1.400000e+01 -1.000000e+00 -3.000000e+00
    endloop
  endfacet
  facet normal 0.000000e+00 -1.000000e+00 0.000000e+00
    outer loop
      vertex   -1.400000e+01 -1.000000e+00 -3.000000e+00
      vertex   5.500000e+00 -1.000000e+00 -1.750000e+00
      vertex   5.500000e+00 -1.000000e+00 1.750000e+00
    endloop
  endfacet
  facet normal 0.000000e+00 -1.000000e+00 0.000000e+00
    outer loop
      vertex   -1.400000e+01 -1.000000e+00 -3.000000e+00
      vertex   5.500000e+00 -1.000000e+00 1.750000e+00
      vertex   -1.400000e+01 -1.000000e+00 3.000000e+00
    endloop
  endfacet
  facet normal 0.000000e+00 -1.000000e+00 0.000000e+00
    outer loop
      vertex   -1.400000e+01 -1.000000e+00 3.000000e+00
      vertex   5.500000e+00 -1.000000e+00 1.750000e+00
      vertex   -1.200000e+01 -1.000000e+00 5.000000e+00
    endloop
  endfacet
  facet normal 0.000000e+00 -1.000000e+00 0.000000e+00
    outer loop
      vertex   -1.200000e+01 -1.000000e+00 5.000000e+00
      vertex   5.500000e+00 -1.000000e+00 1.750000e+00
      vertex   1.400000e+01 -1.000000e+00 5.000000e+00
    endloop
  endfacet
  facet normal 0.000000e+00 -1.000000e+00 0.000000e+00
    outer loop
      vertex   1.400000e+01 -1.000000e+00 5.000000e+00
      vertex   5.500000e+00 -1.000000e+00 1.750000e+00
      vertex   7.000000e+00 -1.000000e+00 1.750000e+00
    endloop
  endfacet
  facet normal 0.000000e+00 -1.000000e+00 0.000000e+00
    outer loop
      vertex   1.400000e+01 -1.000000e+00 5.000000e+00
      vertex   7.000000e+00 -1.000000e+00 1.750000e+00
      vertex   1.100000e+01 -1.000000e+00 1.750000e+00
    endloop
  endfacet
  facet normal -0.000000e+00 -1.000000e+00 0.000000e+00
    outer loop
      vertex   1.100000e+01 -1.000000e+00 1.750000e+00
      vertex   7.000000e+00 -1.000000e+00 1.750000e+00
      vertex   7.000000e+00 -1.000000e+00 -1.750000e+00
    endloop
  endfacet
  facet normal 0.000000e+00 -1.000000e+00 -0.000000e+00
    outer loop
      vertex   1.100000e+01 -1.000000e+00 1.750000e+00
      vertex   7.000000e+00 -1.000000e+00 -1.750000e+00
      vertex   1.100000e+01 -1.000000e+00 -1.750000e+00
    endloop
  endfacet
  facet normal -0.000000e+00 -1.000000e+00 -0.000000e+00
    outer loop
      vertex   1.100000e+01 -1.000000e+00 -1.750000e+00
      vertex   7.000000e+00 -1.000000e+00 -1.750000e+00
      vertex   1.400000e+01 -1.000000e+00 -5.000000e+00
    endloop
  endfacet
  facet normal 0.000000e+00 -1.000000e+00 0.000000e+00
    outer loop
      vertex   1.100000e+01 -1.000000e+00 -1.750000e+00
      vertex   1.400000e+01 -1.000000e+00 -5.000000e+00
      vertex   1.250000e+01 -1.000000e+00 -1.750000e+00
    endloop
  endfacet
  facet normal 0.000000e+00 -1.000000e+00 0.000000e+00
    outer loop
      vertex   1.250000e+01 -1.000000e+00 -1.750000e+00
      vertex   1.400000e+01 -1.000000e+00 -5.000000e+00
      vertex   1.400000e+01 -1.000000e+00 5.000000e+00
    endloop
  endfacet
  facet normal 0.000000e+00 -1.000000e+00 0.000000e+00
    outer loop
      vertex   1.250000e+01 -1.000000e+00 -1.750000e+00
      vertex   1.400000e+01 -1.000000e+00 5.000000e+00
      vertex   1.250000e+01 -1.000000e+00 1.750000e+00
    endloop
  endfacet
  facet normal 0.000000e+00 -1.000000e+00 0.000000e+00
    outer loop
      vertex   1.250000e+01 -1.000000e+00 1.750000e+00
      vertex   1.400000e+01 -1.000000e+00 5.000000e+00
      vertex   1.100000e+01 -1.000000e+00 1.750000e+00
    endloop
  endfacet
  facet normal 0.000000e+00 -1.000000e+00 0.000000e+00
    outer loop
      vertex   -1.200000e+01 -1.000000e+00 -5.000000e+00
      vertex   1.400000e+01 -1.000000e+00 -5.000000e+00
      vertex   5.500000e+00 -1.000000e+00 -1.750000e+00
    endloop
  endfacet
  facet normal 0.000000e+00 -1.000000e+00 0.000000e+00
    outer loop
      vertex   5.500000e+00 -1.000000e+00 -1.750000e+00
      vertex   1.400000e+01 -1.000000e+00 -5.000000e+00
      vertex   7.000000e+00 -1.000000e+00 -1.750000e+00
    endloop
  endfacet
  facet normal 1.000000e+00 -0.000000e+00 5.712543e-05
    outer loop
      vertex   -4.188800e+00 1.500000e+00 4.000046e+00
      vertex   -4.188343e+00 1.500000e+00 -3.999955e+00
      vertex   -4.188800e+00 2.500000e+00 4.000046e+00
    endloop
  endfacet
  facet normal 1.000000e+00 0.000000e+00 5.712543e-05
    outer loop
      vertex   -4.188800e+00 2.500000e+00 4.000046e+00
      vertex   -4.188343e+00 1.500000e+00 -3.999955e+00
      vertex   -4.188343e+00 2.500000e+00 -3.999955e+00
    endloop
  endfacet
  facet normal -5.712543e-05 -4.440892e-16 1.000000e+00
    outer loop
      vertex   -6.074514e+00 1.500000e+00 3.999938e+00
      vertex   -4.188800e+00 1.500000e+00 4.000046e+00
      vertex   -6.074514e+00 2.500000e+00 3.999938e+00
    endloop
  endfacet
  facet normal -5.712543e-05 0.000000e+00 1.000000e+00
    outer loop
      vertex   -6.074514e+00 2.500000e+00 3.999938e+00
      vertex   -4.188800e+00 1.500000e+00 4.000046e+00
      vertex   -4.188800e+00 2.500000e+00 4.000046e+00
    endloop
  endfacet
  facet normal -1.000000e+00 0.000000e+00 -5.712543e-05
    outer loop
      vertex   -6.074222e+00 1.500000e+00 -1.120062e+00
      vertex   -6.074514e+00 1.500000e+00 3.999938e+00
      vertex   -6.074222e+00 2.500000e+00 -1.120062e+00
    endloop
  endfacet
  facet normal -1.000000e+00 4.235165e-20 -5.712543e-05
    outer loop
      vertex   -6.074222e+00 2.500000e+00 -1.120062e+00
      vertex   -6.074514e+00 1.500000e+00 3.999938e+00
      vertex   -6.074514e+00 2.500000e+00 3.999938e+00
    endloop
  endfacet
  facet normal 9.548051e-01 -0.000000e+00 2.972326e-01
    outer loop
      vertex   -7.308734e+00 1.500000e+00 2.845582e+00
      vertex   -6.074222e+00 1.500000e+00 -1.120062e+00
      vertex   -7.308734e+00 2.500000e+00 2.845582e+00
    endloop
  endfacet
  facet normal 9.548051e-01 0.000000e+00 2.972326e-01
    outer loop
      vertex   -7.308734e+00 2.500000e+00 2.845582e+00
      vertex   -6.074222e+00 1.500000e+00 -1.120062e+00
      vertex   -6.074222e+00 2.500000e+00 -1.120062e+00
    endloop
  endfacet
  facet normal 7.071472e-01 0.000000e+00 -7.070664e-01
    outer loop
      vertex   -7.297306e+00 1.500000e+00 2.857011e+00
      vertex   -7.308734e+00 1.500000e+00 2.845582e+00
      vertex   -7.297306e+00 2.500000e+00 2.857011e+00
    endloop
  endfacet
  facet normal 7.071472e-01 0.000000e+00 -7.070664e-01
    outer loop
      vertex   -7.297306e+00 2.500000e+00 2.857011e+00
      vertex   -7.308734e+00 1.500000e+00 2.845582e+00
      vertex   -7.308734e+00 2.500000e+00 2.845582e+00
    endloop
  endfacet
  facet normal -5.712543e-05 -8.881784e-16 1.000000e+00
    outer loop
      vertex   -9.205878e+00 1.500000e+00 2.856902e+00
      vertex   -7.297306e+00 1.500000e+00 2.857011e+00
      vertex   -9.205878e+00 2.500000e+00 2.856902e+00
    endloop
  endfacet
  facet normal -5.712543e-05 0.000000e+00 1.000000e+00
    outer loop
      vertex   -9.205878e+00 2.500000e+00 2.856902e+00
      vertex   -7.297306e+00 1.500000e+00 2.857011e+00
      vertex   -7.297306e+00 2.500000e+00 2.857011e+00
    endloop
  endfacet
  facet normal -9.559112e-01 0.000000e+00 2.936560e-01
    outer loop
      vertex   -1.046279e+01 1.500000e+00 -1.234599e+00
      vertex   -9.205878e+00 1.500000e+00 2.856902e+00
      vertex   -1.046279e+01 2.500000e+00 -1.234599e+00
    endloop
  endfacet
  facet normal -9.559112e-01 -2.075081e-16 2.936560e-01
    outer loop
      vertex   -1.046279e+01 2.500000e+00 -1.234599e+00
      vertex   -9.205878e+00 1.500000e+00 2.856902e+00
      vertex   -9.205878e+00 2.500000e+00 2.856902e+00
    endloop
  endfacet
  facet normal 1.000000e+00 -0.000000e+00 5.712543e-05
    outer loop
      vertex   -1.046309e+01 1.500000e+00 3.999687e+00
      vertex   -1.046279e+01 1.500000e+00 -1.234599e+00
      vertex   -1.046309e+01 2.500000e+00 3.999687e+00
    endloop
  endfacet
  facet normal 1.000000e+00 0.000000e+00 5.712543e-05
    outer loop
      vertex   -1.046309e+01 2.500000e+00 3.999687e+00
      vertex   -1.046279e+01 1.500000e+00 -1.234599e+00
      vertex   -1.046279e+01 2.500000e+00 -1.234599e+00
    endloop
  endfacet
  facet normal -5.712543e-05 8.881784e-16 1.000000e+00
    outer loop
      vertex   -1.224594e+01 1.500000e+00 3.999586e+00
      vertex   -1.046309e+01 1.500000e+00 3.999687e+00
      vertex   -1.224594e+01 2.500000e+00 3.999586e+00
    endloop
  endfacet
  facet normal -5.712543e-05 0.000000e+00 1.000000e+00
    outer loop
      vertex   -1.224594e+01 2.500000e+00 3.999586e+00
      vertex   -1.046309e+01 1.500000e+00 3.999687e+00
      vertex   -1.046309e+01 2.500000e+00 3.999687e+00
    endloop
  endfacet
  facet normal -1.000000e+00 0.000000e+00 -5.712543e-05
    outer loop
      vertex   -1.224549e+01 1.500000e+00 -4.000415e+00
      vertex   -1.224594e+01 1.500000e+00 3.999586e+00
      vertex   -1.224549e+01 2.500000e+00 -4.000415e+00
    endloop
  endfacet
  facet normal -1.000000e+00 0.000000e+00 -5.712543e-05
    outer loop
      vertex   -1.224549e+01 2.500000e+00 -4.000415e+00
      vertex   -1.224594e+01 1.500000e+00 3.999586e+00
      vertex   -1.224594e+01 2.500000e+00 3.999586e+00
    endloop
  endfacet
  facet normal 5.712543e-05 0.000000e+00 -1.000000e+00
    outer loop
      vertex   -9.731200e+00 1.500000e+00 -4.000271e+00
      vertex   -1.224549e+01 1.500000e+00 -4.000415e+00
      vertex   -9.731200e+00 2.500000e+00 -4.000271e+00
    endloop
  endfacet
  facet normal 5.712543e-05 0.000000e+00 -1.000000e+00
    outer loop
      vertex   -9.731200e+00 2.500000e+00 -4.000271e+00
      vertex   -1.224549e+01 1.500000e+00 -4.000415e+00
      vertex   -1.224549e+01 2.500000e+00 -4.000415e+00
    endloop
  endfacet
  facet normal 9.588359e-01 0.000000e+00 -2.839608e-01
    outer loop
      vertex   -8.211493e+00 1.500000e+00 1.131245e+00
      vertex   -9.731200e+00 1.500000e+00 -4.000271e+00
      vertex   -8.211493e+00 2.500000e+00 1.131245e+00
    endloop
  endfacet
  facet normal 9.588359e-01 0.000000e+00 -2.839608e-01
    outer loop
      vertex   -8.211493e+00 2.500000e+00 1.131245e+00
      vertex   -9.731200e+00 1.500000e+00 -4.000271e+00
      vertex   -9.731200e+00 2.500000e+00 -4.000271e+00
    endloop
  endfacet
  facet normal -9.544629e-01 0.000000e+00 -2.983295e-01
    outer loop
      vertex   -6.611201e+00 1.500000e+00 -3.988665e+00
      vertex   -8.211493e+00 1.500000e+00 1.131245e+00
      vertex   -6.611201e+00 2.500000e+00 -3.988665e+00
    endloop
  endfacet
  facet normal -9.544629e-01 0.000000e+00 -2.983295e-01
    outer loop
      vertex   -6.611201e+00 2.500000e+00 -3.988665e+00
      vertex   -8.211493e+00 1.500000e+00 1.131245e+00
      vertex   -8.211493e+00 2.500000e+00 1.131245e+00
    endloop
  endfacet
  facet normal -7.071472e-01 0.000000e+00 7.070664e-01
    outer loop
      vertex   -6.622629e+00 1.500000e+00 -4.000094e+00
      vertex   -6.611201e+00 1.500000e+00 -3.988665e+00
      vertex   -6.622629e+00 2.500000e+00 -4.000094e+00
    endloop
  endfacet
  facet normal -7.071472e-01 0.000000e+00 7.070664e-01
    outer loop
      vertex   -6.622629e+00 2.500000e+00 -4.000094e+00
      vertex   -6.611201e+00 1.500000e+00 -3.988665e+00
      vertex   -6.611201e+00 2.500000e+00 -3.988665e+00
    endloop
  endfacet
  facet normal 5.712543e-05 0.000000e+00 -1.000000e+00
    outer loop
      vertex   -4.188343e+00 1.500000e+00 -3.999955e+00
      vertex   -6.622629e+00 1.500000e+00 -4.000094e+00
      vertex   -4.188343e+00 2.500000e+00 -3.999955e+00
    endloop
  endfacet
  facet normal 5.712543e-05 0.000000e+00 -1.000000e+00
    outer loop
      vertex   -4.188343e+00 2.500000e+00 -3.999955e+00
      vertex   -6.622629e+00 1.500000e+00 -4.000094e+00
      vertex   -6.622629e+00 2.500000e+00 -4.000094e+00
    endloop
  endfacet
  facet normal 0.000000e+00 1.000000e+00 0.000000e+00
    outer loop
      vertex   -6.622629e+00 2.500000e+00 -4.000094e+00
      vertex   -6.611201e+00 2.500000e+00 -3.988665e+00
      vertex   -4.188343e+00 2.500000e+00 -3.999955e+00
    endloop
  endfacet
  facet normal 0.000000e+00 1.000000e+00 0.000000e+00
    outer loop
      vertex   -4.188343e+00 2.500000e+00 -3.999955e+00
      vertex   -6.611201e+00 2.500000e+00 -3.988665e+00
      vertex   -6.074222e+00 2.500000e+00 -1.120062e+00
    endloop
  endfacet
  facet normal 0.000000e+00 1.000000e+00 0.000000e+00
    outer loop
      vertex   -4.188343e+00 2.500000e+00 -3.999955e+00
      vertex   -6.074222e+00 2.500000e+00 -1.120062e+00
      vertex   -4.188800e+00 2.500000e+00 4.000046e+00
    endloop
  endfacet
  facet normal 0.000000e+00 1.000000e+00 0.000000e+00
    outer loop
      vertex   -4.188800e+00 2.500000e+00 4.000046e+00
      vertex   -6.074222e+00 2.500000e+00 -1.120062e+00
      vertex   -6.074514e+00 2.500000e+00 3.999938e+00
    endloop
  endfacet
  facet normal 0.000000e+00 1.000000e+00 -0.000000e+00
    outer loop
      vertex   -6.611201e+00 2.500000e+00 -3.988665e+00
      vertex   -8.211493e+00 2.500000e+00 1.131245e+00
      vertex   -6.074222e+00 2.500000e+00 -1.120062e+00
    endloop
  endfacet
  facet normal 0.000000e+00 1.000000e+00 0.000000e+00
    outer loop
      vertex   -6.074222e+00 2.500000e+00 -1.120062e+00
      vertex   -8.211493e+00 2.500000e+00 1.131245e+00
      vertex   -7.308734e+00 2.500000e+00 2.845582e+00
    endloop
  endfacet
  facet normal 0.000000e+00 1.000000e+00 0.000000e+00
    outer loop
      vertex   -7.308734e+00 2.500000e+00 2.845582e+00
      vertex   -8.211493e+00 2.500000e+00 1.131245e+00
      vertex   -9.205878e+00 2.500000e+00 2.856902e+00
    endloop
  endfacet
  facet normal 0.000000e+00 1.000000e+00 -0.000000e+00
    outer loop
      vertex   -7.308734e+00 2.500000e+00 2.845582e+00
      vertex   -9.205878e+00 2.500000e+00 2.856902e+00
      vertex   -7.297306e+00 2.500000e+00 2.857011e+00
    endloop
  endfacet
  facet normal 0.000000e+00 1.000000e+00 0.000000e+00
    outer loop
      vertex   -9.205878e+00 2.500000e+00 2.856902e+00
      vertex   -8.211493e+00 2.500000e+00 1.131245e+00
      vertex   -1.046279e+01 2.500000e+00 -1.234599e+00
    endloop
  endfacet
  facet normal -0.000000e+00 1.000000e+00 0.000000e+00
    outer loop
      vertex   -1.046279e+01 2.500000e+00 -1.234599e+00
      vertex   -8.211493e+00 2.500000e+00 1.131245e+00
      vertex   -9.731200e+00 2.500000e+00 -4.000271e+00
    endloop
  endfacet
  facet normal 0.000000e+00 1.000000e+00 0.000000e+00
    outer loop
      vertex   -1.046279e+01 2.500000e+00 -1.234599e+00
      vertex   -9.731200e+00 2.500000e+00 -4.000271e+00
      vertex   -1.224549e+01 2.500000e+00 -4.000415e+00
    endloop
  endfacet
  facet normal 0.000000e+00 1.000000e+00 -0.000000e+00
    outer loop
      vertex   -1.224549e+01 2.500000e+00 -4.000415e+00
      vertex   -1.224594e+01 2.500000e+00 3.999586e+00
      vertex   -1.046279e+01 2.500000e+00 -1.234599e+00
    endloop
  endfacet
  facet normal 0.000000e+00 1.000000e+00 0.000000e+00
    outer loop
      vertex   -1.046279e+01 2.500000e+00 -1.234599e+00
      vertex   -1.224594e+01 2.500000e+00 3.999586e+00
      vertex   -1.046309e+01 2.500000e+00 3.999687e+00
    endloop
  endfacet
  facet normal 1.000000e+00 -0.000000e+00 5.712543e-05
    outer loop
      vertex   2.245487e+00 1.500000e+00 4.000413e+00
      vertex   2.245569e+00 1.500000e+00 2.571841e+00
      vertex   2.245487e+00 2.500000e+00 4.000413e+00
    endloop
  endfacet
  facet normal 1.000000e+00 0.000000e+00 5.712543e-05
    outer loop
      vertex   2.245487e+00 2.500000e+00 4.000413e+00
      vertex   2.245569e+00 1.500000e+00 2.571841e+00
      vertex   2.245569e+00 2.500000e+00 2.571841e+00
    endloop
  endfacet
  facet normal -5.712543e-05 0.000000e+00 1.000000e+00
    outer loop
      vertex   -2.554513e+00 1.500000e+00 4.000139e+00
      vertex   2.245487e+00 1.500000e+00 4.000413e+00
      vertex   -2.554513e+00 2.500000e+00 4.000139e+00
    endloop
  endfacet
  facet normal -5.712543e-05 0.000000e+00 1.000000e+00
    outer loop
      vertex   -2.554513e+00 2.500000e+00 4.000139e+00
      vertex   2.245487e+00 1.500000e+00 4.000413e+00
      vertex   2.245487e+00 2.500000e+00 4.000413e+00
    endloop
  endfacet
  facet normal -1.000000e+00 0.000000e+00 -5.712543e-05
    outer loop
      vertex   -2.554431e+00 1.500000e+00 2.571567e+00
      vertex   -2.554513e+00 1.500000e+00 4.000139e+00
      vertex   -2.554431e+00 2.500000e+00 2.571567e+00
    endloop
  endfacet
  facet normal -1.000000e+00 0.000000e+00 -5.712543e-05
    outer loop
      vertex   -2.554431e+00 2.500000e+00 2.571567e+00
      vertex   -2.554513e+00 1.500000e+00 4.000139e+00
      vertex   -2.554513e+00 2.500000e+00 4.000139e+00
    endloop
  endfacet
  facet normal 5.712543e-05 0.000000e+00 -1.000000e+00
    outer loop
      vertex   -1.023002e+00 1.500000e+00 2.571655e+00
      vertex   -2.554431e+00 1.500000e+00 2.571567e+00
      vertex   -1.023002e+00 2.500000e+00 2.571655e+00
    endloop
  endfacet
  facet normal 5.712543e-05 0.000000e+00 -1.000000e+00
    outer loop
      vertex   -1.023002e+00 2.500000e+00 2.571655e+00
      vertex   -2.554431e+00 1.500000e+00 2.571567e+00
      vertex   -2.554431e+00 2.500000e+00 2.571567e+00
    endloop
  endfacet
  facet normal -1.000000e+00 0.000000e+00 -5.712543e-05
    outer loop
      vertex   -1.022743e+00 1.500000e+00 -1.965488e+00
      vertex   -1.023002e+00 1.500000e+00 2.571655e+00
      vertex   -1.022743e+00 2.500000e+00 -1.965488e+00
    endloop
  endfacet
  facet normal -1.000000e+00 0.000000e+00 -5.712543e-05
    outer loop
      vertex   -1.022743e+00 2.500000e+00 -1.965488e+00
      vertex   -1.023002e+00 1.500000e+00 2.571655e+00
      vertex   -1.023002e+00 2.500000e+00 2.571655e+00
    endloop
  endfacet
  facet normal 4.131158e-01 -0.000000e+00 9.106785e-01
    outer loop
      vertex   -2.257061e+00 1.500000e+00 -1.405558e+00
      vertex   -1.022743e+00 1.500000e+00 -1.965488e+00
      vertex   -2.257061e+00 2.500000e+00 -1.405558e+00
    endloop
  endfacet
  facet normal 4.131158e-01 0.000000e+00 9.106785e-01
    outer loop
      vertex   -2.257061e+00 2.500000e+00 -1.405558e+00
      vertex   -1.022743e+00 1.500000e+00 -1.965488e+00
      vertex   -1.022743e+00 2.500000e+00 -1.965488e+00
    endloop
  endfacet
  facet normal -8.776122e-01 0.000000e+00 4.793713e-01
    outer loop
      vertex   -2.931276e+00 1.500000e+00 -2.639883e+00
      vertex   -2.257061e+00 1.500000e+00 -1.405558e+00
      vertex   -2.931276e+00 2.500000e+00 -2.639883e+00
    endloop
  endfacet
  facet normal -8.776122e-01 0.000000e+00 4.793713e-01
    outer loop
      vertex   -2.931276e+00 2.500000e+00 -2.639883e+00
      vertex   -2.257061e+00 1.500000e+00 -1.405558e+00
      vertex   -2.257061e+00 2.500000e+00 -1.405558e+00
    endloop
  endfacet
  facet normal -4.947456e-01 0.000000e+00 -8.690378e-01
    outer loop
      vertex   -5.426282e-01 1.500000e+00 -3.999747e+00
      vertex   -2.931276e+00 1.500000e+00 -2.639883e+00
      vertex   -5.426282e-01 2.500000e+00 -3.999747e+00
    endloop
  endfacet
  facet normal -4.947456e-01 0.000000e+00 -8.690378e-01
    outer loop
      vertex   -5.426282e-01 2.500000e+00 -3.999747e+00
      vertex   -2.931276e+00 1.500000e+00 -2.639883e+00
      vertex   -2.931276e+00 2.500000e+00 -2.639883e+00
    endloop
  endfacet
  facet normal 5.712543e-05 -4.440892e-16 -1.000000e+00
    outer loop
      vertex   9.202296e-01 1.500000e+00 -3.999663e+00
      vertex   -5.426282e-01 1.500000e+00 -3.999747e+00
      vertex   9.202296e-01 2.500000e+00 -3.999663e+00
    endloop
  endfacet
  facet normal 5.712543e-05 0.000000e+00 -1.000000e+00
    outer loop
      vertex   9.202296e-01 2.500000e+00 -3.999663e+00
      vertex   -5.426282e-01 1.500000e+00 -3.999747e+00
      vertex   -5.426282e-01 2.500000e+00 -3.999747e+00
    endloop
  endfacet
  facet normal 1.000000e+00 -0.000000e+00 5.712543e-05
    outer loop
      vertex   9.198542e-01 1.500000e+00 2.571766e+00
      vertex   9.202296e-01 1.500000e+00 -3.999663e+00
      vertex   9.198542e-01 2.500000e+00 2.571766e+00
    endloop
  endfacet
  facet normal 1.000000e+00 0.000000e+00 5.712543e-05
    outer loop
      vertex   9.198542e-01 2.500000e+00 2.571766e+00
      vertex   9.202296e-01 1.500000e+00 -3.999663e+00
      vertex   9.202296e-01 2.500000e+00 -3.999663e+00
    endloop
  endfacet
  facet normal 5.712543e-05 0.000000e+00 -1.000000e+00
    outer loop
      vertex   2.245569e+00 1.500000e+00 2.571841e+00
      vertex   9.198542e-01 1.500000e+00 2.571766e+00
      vertex   2.245569e+00 2.500000e+00 2.571841e+00
    endloop
  endfacet
  facet normal 5.712543e-05 0.000000e+00 -1.000000e+00
    outer loop
      vertex   2.245569e+00 2.500000e+00 2.571841e+00
      vertex   9.198542e-01 1.500000e+00 2.571766e+00
      vertex   9.198542e-01 2.500000e+00 2.571766e+00
    endloop
  endfacet
  facet normal 0.000000e+00 1.000000e+00 0.000000e+00
    outer loop
      vertex   2.245569e+00 2.500000e+00 2.571841e+00
      vertex   9.198542e-01 2.500000e+00 2.571766e+00
      vertex   2.245487e+00 2.500000e+00 4.000413e+00
    endloop
  endfacet
  facet normal 0.000000e+00 1.000000e+00 0.000000e+00
    outer loop
      vertex   2.245487e+00 2.500000e+00 4.000413e+00
      vertex   9.198542e-01 2.500000e+00 2.571766e+00
      vertex   -1.023002e+00 2.500000e+00 2.571655e+00
    endloop
  endfacet
  facet normal 0.000000e+00 1.000000e+00 0.000000e+00
    outer loop
      vertex   2.245487e+00 2.500000e+00 4.000413e+00
      vertex   -1.023002e+00 2.500000e+00 2.571655e+00
      vertex   -2.554513e+00 2.500000e+00 4.000139e+00
    endloop
  endfacet
  facet normal 0.000000e+00 1.000000e+00 0.000000e+00
    outer loop
      vertex   -2.554513e+00 2.500000e+00 4.000139e+00
      vertex   -1.023002e+00 2.500000e+00 2.571655e+00
      vertex   -2.554431e+00 2.500000e+00 2.571567e+00
    endloop
  endfacet
  facet normal -0.000000e+00 1.000000e+00 0.000000e+00
    outer loop
      vertex   -1.023002e+00 2.500000e+00 2.571655e+00
      vertex   9.198542e-01 2.500000e+00 2.571766e+00
      vertex   -1.022743e+00 2.500000e+00 -1.965488e+00
    endloop
  endfacet
  facet normal -0.000000e+00 1.000000e+00 0.000000e+00
    outer loop
      vertex   -1.022743e+00 2.500000e+00 -1.965488e+00
      vertex   9.198542e-01 2.500000e+00 2.571766e+00
      vertex   9.202296e-01 2.500000e+00 -3.999663e+00
    endloop
  endfacet
  facet normal 0.000000e+00 1.000000e+00 0.000000e+00
    outer loop
      vertex   -1.022743e+00 2.500000e+00 -1.965488e+00
      vertex   9.202296e-01 2.500000e+00 -3.999663e+00
      vertex   -5.426282e-01 2.500000e+00 -3.999747e+00
    endloop
  endfacet
  facet normal 0.000000e+00 1.000000e+00 0.000000e+00
    outer loop
      vertex   -5.426282e-01 2.500000e+00 -3.999747e+00
      vertex   -2.931276e+00 2.500000e+00 -2.639883e+00
      vertex   -1.022743e+00 2.500000e+00 -1.965488e+00
    endloop
  endfacet
  facet normal 0.000000e+00 1.000000e+00 0.000000e+00
    outer loop
      vertex   -1.022743e+00 2.500000e+00 -1.965488e+00
      vertex   -2.931276e+00 2.500000e+00 -2.639883e+00
      vertex   -2.257061e+00 2.500000e+00 -1.405558e+00
    endloop
  endfacet
  facet normal 0.000000e+00 0.000000e+00 -1.000000e+00
    outer loop
      vertex   -1.200000e+01 1.200000e+00 -5.000000e+00
      vertex   1.400000e+01 1.200000e+00 -5.000000e+00
      vertex   -1.200000e+01 -1.000000e+00 -5.000000e+00
    endloop
  endfacet
  facet normal 0.000000e+00 0.000000e+00 -1.000000e+00
    outer loop
      vertex   -1.200000e+01 -1.000000e+00 -5.000000e+00
      vertex   1.400000e+01 1.200000e+00 -5.000000e+00
      vertex   1.400000e+01 -1.000000e+00 -5.000000e+00
    endloop
  endfacet
endsolid
