solid ASCII
  facet normal 7.281381e-17 7.071068e-01 -7.071068e-01
    outer loop
      vertex   1.400000e+01 1.500000e+00 -4.700000e+00
      vertex   1.400000e+01 1.200000e+00 -5.000000e+00
      vertex   -1.187574e+01 1.500000e+00 -4.700000e+00
    endloop
  endfacet
  facet normal 0.000000e+00 7.071068e-01 -7.071068e-01
    outer loop
      vertex   -1.187574e+01 1.500000e+00 -4.700000e+00
      vertex   1.400000e+01 1.200000e+00 -5.000000e+00
      vertex   -1.200000e+01 1.200000e+00 -5.000000e+00
    endloop
  endfacet
  facet normal -7.071068e-01 7.071068e-01 -2.093457e-16
    outer loop
      vertex   -1.400000e+01 1.200000e+00 -3.000000e+00
      vertex   -1.400000e+01 1.200000e+00 3.000000e+00
      vertex   -1.370000e+01 1.500000e+00 -2.875736e+00
    endloop
  endfacet
  facet normal -7.071068e-01 7.071068e-01 -2.183917e-16
    outer loop
      vertex   -1.370000e+01 1.500000e+00 -2.875736e+00
      vertex   -1.400000e+01 1.200000e+00 3.000000e+00
      vertex   -1.370000e+01 1.500000e+00 2.875736e+00
    endloop
  endfacet
  facet normal -5.000000e-01 7.071068e-01 5.000000e-01
    outer loop
      vertex   -1.299449e+01 1.500000e+00 3.581245e+00
      vertex   -1.400000e+01 1.200000e+00 3.000000e+00
      vertex   -1.299451e+01 1.204202e+00 3.999543e+00
    endloop
  endfacet
  facet normal -5.000000e-01 7.071068e-01 5.000000e-01
    outer loop
      vertex   -1.299451e+01 1.204202e+00 3.999543e+00
      vertex   -1.400000e+01 1.200000e+00 3.000000e+00
      vertex   -1.200000e+01 1.200000e+00 5.000000e+00
    endloop
  endfacet
  facet normal -5.000000e-01 7.071068e-01 5.000000e-01
    outer loop
      vertex   -1.299451e+01 1.204202e+00 3.999543e+00
      vertex   -1.200000e+01 1.200000e+00 5.000000e+00
      vertex   -1.257617e+01 1.500000e+00 3.999567e+00
    endloop
  endfacet
  facet normal -5.000000e-01 7.071068e-01 5.000000e-01
    outer loop
      vertex   -1.257617e+01 1.500000e+00 3.999567e+00
      vertex   -1.200000e+01 1.200000e+00 5.000000e+00
      vertex   -1.187574e+01 1.500000e+00 4.700000e+00
    endloop
  endfacet
  facet normal -5.000000e-01 7.071068e-01 5.000000e-01
    outer loop
      vertex   -1.299449e+01 1.500000e+00 3.581245e+00
      vertex   -1.370000e+01 1.500000e+00 2.875736e+00
      vertex   -1.400000e+01 1.200000e+00 3.000000e+00
    endloop
  endfacet
  facet normal -5.000000e-01 7.071068e-01 -5.000000e-01
    outer loop
      vertex   -1.257530e+01 1.500000e+00 -4.000434e+00
      vertex   -1.200000e+01 1.200000e+00 -5.000000e+00
      vertex   -1.299406e+01 1.203878e+00 -4.000458e+00
    endloop
  endfacet
  facet normal -5.000000e-01 7.071068e-01 -5.000000e-01
    outer loop
      vertex   -1.299406e+01 1.203878e+00 -4.000458e+00
      vertex   -1.200000e+01 1.200000e+00 -5.000000e+00
      vertex   -1.400000e+01 1.200000e+00 -3.000000e+00
    endloop
  endfacet
  facet normal -5.000000e-01 7.071068e-01 -5.000000e-01
    outer loop
      vertex   -1.299406e+01 1.203878e+00 -4.000458e+00
      vertex   -1.400000e+01 1.200000e+00 -3.000000e+00
      vertex   -1.299408e+01 1.500000e+00 -3.581654e+00
    endloop
  endfacet
  facet normal -5.000000e-01 7.071068e-01 -5.000000e-01
    outer loop
      vertex   -1.299408e+01 1.500000e+00 -3.581654e+00
      vertex   -1.400000e+01 1.200000e+00 -3.000000e+00
      vertex   -1.370000e+01 1.500000e+00 -2.875736e+00
    endloop
  endfacet
  facet normal -5.000000e-01 7.071068e-01 -5.000000e-01
    outer loop
      vertex   -1.257530e+01 1.500000e+00 -4.000434e+00
      vertex   -1.187574e+01 1.500000e+00 -4.700000e+00
      vertex   -1.200000e+01 1.200000e+00 -5.000000e+00
    endloop
  endfacet
  facet normal 2.415527e-17 7.071068e-01 7.071068e-01
    outer loop
      vertex   -1.200000e+01 1.200000e+00 5.000000e+00
      vertex   1.400000e+01 1.200000e+00 5.000000e+00
      vertex   -1.187574e+01 1.500000e+00 4.700000e+00
    endloop
  endfacet
  facet normal 2.427127e-17 7.071068e-01 7.071068e-01
    outer loop
      vertex   -1.187574e+01 1.500000e+00 4.700000e+00
      vertex   1.400000e+01 1.200000e+00 5.000000e+00
      vertex   1.400000e+01 1.500000e+00 4.700000e+00
    endloop
  endfacet
  facet normal 0.000000e+00 1.000000e+00 0.000000e+00
    outer loop
      vertex   1.100000e+01 1.500000e+00 1.750000e+00
      vertex   1.400000e+01 1.500000e+00 4.700000e+00
      vertex   1.250000e+01 1.500000e+00 1.750000e+00
    endloop
  endfacet
  facet normal -0.000000e+00 1.000000e+00 0.000000e+00
    outer loop
      vertex   1.250000e+01 1.500000e+00 1.750000e+00
      vertex   1.400000e+01 1.500000e+00 4.700000e+00
      vertex   1.400000e+01 1.500000e+00 -4.700000e+00
    endloop
  endfacet
  facet normal 0.000000e+00 1.000000e+00 0.000000e+00
    outer loop
      vertex   1.250000e+01 1.500000e+00 1.750000e+00
      vertex   1.400000e+01 1.500000e+00 -4.700000e+00
      vertex   1.250000e+01 1.500000e+00 -1.750000e+00
    endloop
  endfacet
  facet normal 0.000000e+00 1.000000e+00 0.000000e+00
    outer loop
      vertex   1.250000e+01 1.500000e+00 -1.750000e+00
      vertex   1.400000e+01 1.500000e+00 -4.700000e+00
      vertex   1.100000e+01 1.500000e+00 -1.750000e+00
    endloop
  endfacet
  facet normal 0.000000e+00 1.000000e+00 0.000000e+00
    outer loop
      vertex   1.100000e+01 1.500000e+00 -1.750000e+00
      vertex   1.400000e+01 1.500000e+00 -4.700000e+00
      vertex   7.000000e+00 1.500000e+00 -1.750000e+00
    endloop
  endfacet
  facet normal 0.000000e+00 1.000000e+00 0.000000e+00
    outer loop
      vertex   1.100000e+01 1.500000e+00 -1.750000e+00
      vertex   7.000000e+00 1.500000e+00 -1.750000e+00
      vertex   7.000000e+00 1.500000e+00 1.750000e+00
    endloop
  endfacet
  facet normal 0.000000e+00 1.000000e+00 0.000000e+00
    outer loop
      vertex   1.400000e+01 1.500000e+00 4.700000e+00
      vertex   1.100000e+01 1.500000e+00 1.750000e+00
      vertex   7.000000e+00 1.500000e+00 1.750000e+00
    endloop
  endfacet
  facet normal 0.000000e+00 1.000000e+00 0.000000e+00
    outer loop
      vertex   7.000000e+00 1.500000e+00 1.750000e+00
      vertex   1.100000e+01 1.500000e+00 1.750000e+00
      vertex   1.100000e+01 1.500000e+00 -1.750000e+00
    endloop
  endfacet
  facet normal 0.000000e+00 1.000000e+00 0.000000e+00
    outer loop
      vertex   1.400000e+01 1.500000e+00 4.700000e+00
      vertex   7.000000e+00 1.500000e+00 1.750000e+00
      vertex   2.994137e+00 1.500000e+00 2.651884e+00
    endloop
  endfacet
  facet normal 0.000000e+00 1.000000e+00 0.000000e+00
    outer loop
      vertex   2.994137e+00 1.500000e+00 2.651884e+00
      vertex   7.000000e+00 1.500000e+00 1.750000e+00
      vertex   5.500000e+00 1.500000e+00 1.750000e+00
    endloop
  endfacet
  facet normal 0.000000e+00 1.000000e+00 0.000000e+00
    outer loop
      vertex   2.994137e+00 1.500000e+00 2.651884e+00
      vertex   5.500000e+00 1.500000e+00 1.750000e+00
      vertex   2.994223e+00 1.500000e+00 1.143313e+00
    endloop
  endfacet
  facet normal -0.000000e+00 1.000000e+00 0.000000e+00
    outer loop
      vertex   2.994223e+00 1.500000e+00 1.143313e+00
      vertex   5.500000e+00 1.500000e+00 1.750000e+00
      vertex   5.500000e+00 1.500000e+00 -1.750000e+00
    endloop
  endfacet
  facet normal 0.000000e+00 1.000000e+00 0.000000e+00
    outer loop
      vertex   2.994223e+00 1.500000e+00 1.143313e+00
      vertex   5.500000e+00 1.500000e+00 -1.750000e+00
      vertex   2.034333e+00 1.500000e+00 -7.881702e-01
    endloop
  endfacet
  facet normal 0.000000e+00 1.000000e+00 0.000000e+00
    outer loop
      vertex   2.034333e+00 1.500000e+00 -7.881702e-01
      vertex   5.500000e+00 1.500000e+00 -1.750000e+00
      vertex   7.545167e-01 1.500000e+00 -3.999672e+00
    endloop
  endfacet
  facet normal 0.000000e+00 1.000000e+00 0.000000e+00
    outer loop
      vertex   2.034333e+00 1.500000e+00 -7.881702e-01
      vertex   7.545167e-01 1.500000e+00 -3.999672e+00
      vertex   4.914738e-01 1.500000e+00 -7.768298e-01
    endloop
  endfacet
  facet normal 0.000000e+00 1.000000e+00 0.000000e+00
    outer loop
      vertex   4.914738e-01 1.500000e+00 -7.768298e-01
      vertex   7.545167e-01 1.500000e+00 -3.999672e+00
      vertex   -1.611493e+00 1.500000e+00 1.143050e+00
    endloop
  endfacet
  facet normal 0.000000e+00 1.000000e+00 0.000000e+00
    outer loop
      vertex   4.914738e-01 1.500000e+00 -7.768298e-01
      vertex   -1.611493e+00 1.500000e+00 1.143050e+00
      vertex   1.256514e-01 1.500000e+00 1.143150e+00
    endloop
  endfacet
  facet normal 0.000000e+00 1.000000e+00 0.000000e+00
    outer loop
      vertex   5.500000e+00 1.500000e+00 -1.750000e+00
      vertex   7.000000e+00 1.500000e+00 -1.750000e+00
      vertex   7.545167e-01 1.500000e+00 -3.999672e+00
    endloop
  endfacet
  facet normal -0.000000e+00 1.000000e+00 0.000000e+00
    outer loop
      vertex   7.545167e-01 1.500000e+00 -3.999672e+00
      vertex   7.000000e+00 1.500000e+00 -1.750000e+00
      vertex   1.400000e+01 1.500000e+00 -4.700000e+00
    endloop
  endfacet
  facet normal 0.000000e+00 1.000000e+00 0.000000e+00
    outer loop
      vertex   7.545167e-01 1.500000e+00 -3.999672e+00
      vertex   1.400000e+01 1.500000e+00 -4.700000e+00
      vertex   -1.187574e+01 1.500000e+00 -4.700000e+00
    endloop
  endfacet
  facet normal 0.000000e+00 1.000000e+00 0.000000e+00
    outer loop
      vertex   5.699369e-02 1.500000e+00 2.651717e+00
      vertex   -3.680151e+00 1.500000e+00 2.651503e+00
      vertex   5.691665e-02 1.500000e+00 4.000288e+00
    endloop
  endfacet
  facet normal 0.000000e+00 1.000000e+00 0.000000e+00
    outer loop
      vertex   5.691665e-02 1.500000e+00 4.000288e+00
      vertex   -3.680151e+00 1.500000e+00 2.651503e+00
      vertex   -4.937371e+00 1.500000e+00 4.000003e+00
    endloop
  endfacet
  facet normal 0.000000e+00 1.000000e+00 0.000000e+00
    outer loop
      vertex   5.691665e-02 1.500000e+00 4.000288e+00
      vertex   -4.937371e+00 1.500000e+00 4.000003e+00
      vertex   -1.187574e+01 1.500000e+00 4.700000e+00
    endloop
  endfacet
  facet normal 0.000000e+00 1.000000e+00 0.000000e+00
    outer loop
      vertex   -1.187574e+01 1.500000e+00 4.700000e+00
      vertex   -4.937371e+00 1.500000e+00 4.000003e+00
      vertex   -6.823085e+00 1.500000e+00 3.999895e+00
    endloop
  endfacet
  facet normal 0.000000e+00 1.000000e+00 0.000000e+00
    outer loop
      vertex   -1.187574e+01 1.500000e+00 4.700000e+00
      vertex   -6.823085e+00 1.500000e+00 3.999895e+00
      vertex   -1.121166e+01 1.500000e+00 3.999645e+00
    endloop
  endfacet
  facet normal -0.000000e+00 1.000000e+00 0.000000e+00
    outer loop
      vertex   -1.121166e+01 1.500000e+00 3.999645e+00
      vertex   -6.823085e+00 1.500000e+00 3.999895e+00
      vertex   -9.954449e+00 1.500000e+00 2.856859e+00
    endloop
  endfacet
  facet normal 0.000000e+00 1.000000e+00 0.000000e+00
    outer loop
      vertex   -1.121166e+01 1.500000e+00 3.999645e+00
      vertex   -9.954449e+00 1.500000e+00 2.856859e+00
      vertex   -1.121136e+01 1.500000e+00 -1.234642e+00
    endloop
  endfacet
  facet normal 0.000000e+00 1.000000e+00 0.000000e+00
    outer loop
      vertex   -3.680151e+00 1.500000e+00 2.651503e+00
      vertex   -3.680085e+00 1.500000e+00 1.497217e+00
      vertex   -4.937371e+00 1.500000e+00 4.000003e+00
    endloop
  endfacet
  facet normal 0.000000e+00 1.000000e+00 0.000000e+00
    outer loop
      vertex   -4.937371e+00 1.500000e+00 4.000003e+00
      vertex   -3.680085e+00 1.500000e+00 1.497217e+00
      vertex   -4.936914e+00 1.500000e+00 -3.999998e+00
    endloop
  endfacet
  facet normal 0.000000e+00 1.000000e+00 0.000000e+00
    outer loop
      vertex   -4.936914e+00 1.500000e+00 -3.999998e+00
      vertex   -3.680085e+00 1.500000e+00 1.497217e+00
      vertex   -1.165485e+00 1.500000e+00 -3.999782e+00
    endloop
  endfacet
  facet normal -0.000000e+00 1.000000e+00 0.000000e+00
    outer loop
      vertex   -4.936914e+00 1.500000e+00 -3.999998e+00
      vertex   -1.165485e+00 1.500000e+00 -3.999782e+00
      vertex   -1.187574e+01 1.500000e+00 -4.700000e+00
    endloop
  endfacet
  facet normal 0.000000e+00 1.000000e+00 0.000000e+00
    outer loop
      vertex   -1.187574e+01 1.500000e+00 -4.700000e+00
      vertex   -1.165485e+00 1.500000e+00 -3.999782e+00
      vertex   7.545167e-01 1.500000e+00 -3.999672e+00
    endloop
  endfacet
  facet normal 0.000000e+00 1.000000e+00 -0.000000e+00
    outer loop
      vertex   2.034333e+00 1.500000e+00 -7.881702e-01
      vertex   2.034223e+00 1.500000e+00 1.143259e+00
      vertex   2.994223e+00 1.500000e+00 1.143313e+00
    endloop
  endfacet
  facet normal 0.000000e+00 1.000000e+00 -0.000000e+00
    outer loop
      vertex   2.034137e+00 1.500000e+00 2.651830e+00
      vertex   2.034060e+00 1.500000e+00 4.000401e+00
      vertex   2.994137e+00 1.500000e+00 2.651884e+00
    endloop
  endfacet
  facet normal 0.000000e+00 1.000000e+00 -0.000000e+00
    outer loop
      vertex   2.994137e+00 1.500000e+00 2.651884e+00
      vertex   2.034060e+00 1.500000e+00 4.000401e+00
      vertex   1.400000e+01 1.500000e+00 4.700000e+00
    endloop
  endfacet
  facet normal 0.000000e+00 1.000000e+00 0.000000e+00
    outer loop
      vertex   1.400000e+01 1.500000e+00 4.700000e+00
      vertex   2.034060e+00 1.500000e+00 4.000401e+00
      vertex   -1.187574e+01 1.500000e+00 4.700000e+00
    endloop
  endfacet
  facet normal 0.000000e+00 1.000000e+00 0.000000e+00
    outer loop
      vertex   -1.187574e+01 1.500000e+00 4.700000e+00
      vertex   2.034060e+00 1.500000e+00 4.000401e+00
      vertex   5.691665e-02 1.500000e+00 4.000288e+00
    endloop
  endfacet
  facet normal 0.000000e+00 1.000000e+00 0.000000e+00
    outer loop
      vertex   -1.257617e+01 1.500000e+00 3.999567e+00
      vertex   -1.187574e+01 1.500000e+00 4.700000e+00
      vertex   -1.121166e+01 1.500000e+00 3.999645e+00
    endloop
  endfacet
  facet normal -0.000000e+00 1.000000e+00 0.000000e+00
    outer loop
      vertex   -1.257530e+01 1.500000e+00 -4.000434e+00
      vertex   -1.047977e+01 1.500000e+00 -4.000314e+00
      vertex   -1.187574e+01 1.500000e+00 -4.700000e+00
    endloop
  endfacet
  facet normal 0.000000e+00 1.000000e+00 0.000000e+00
    outer loop
      vertex   -1.187574e+01 1.500000e+00 -4.700000e+00
      vertex   -1.047977e+01 1.500000e+00 -4.000314e+00
      vertex   -7.371200e+00 1.500000e+00 -4.000137e+00
    endloop
  endfacet
  facet normal 0.000000e+00 1.000000e+00 0.000000e+00
    outer loop
      vertex   -1.187574e+01 1.500000e+00 -4.700000e+00
      vertex   -7.371200e+00 1.500000e+00 -4.000137e+00
      vertex   -4.936914e+00 1.500000e+00 -3.999998e+00
    endloop
  endfacet
  facet normal 0.000000e+00 1.000000e+00 0.000000e+00
    outer loop
      vertex   -8.960065e+00 1.500000e+00 1.131202e+00
      vertex   -7.359772e+00 1.500000e+00 -3.988707e+00
      vertex   -1.047977e+01 1.500000e+00 -4.000314e+00
    endloop
  endfacet
  facet normal 0.000000e+00 1.000000e+00 0.000000e+00
    outer loop
      vertex   -1.047977e+01 1.500000e+00 -4.000314e+00
      vertex   -7.359772e+00 1.500000e+00 -3.988707e+00
      vertex   -7.371200e+00 1.500000e+00 -4.000137e+00
    endloop
  endfacet
  facet normal 0.000000e+00 1.000000e+00 0.000000e+00
    outer loop
      vertex   -9.954449e+00 1.500000e+00 2.856859e+00
      vertex   -6.823085e+00 1.500000e+00 3.999895e+00
      vertex   -8.045877e+00 1.500000e+00 2.856968e+00
    endloop
  endfacet
  facet normal -0.000000e+00 1.000000e+00 0.000000e+00
    outer loop
      vertex   -8.045877e+00 1.500000e+00 2.856968e+00
      vertex   -6.823085e+00 1.500000e+00 3.999895e+00
      vertex   -6.822793e+00 1.500000e+00 -1.120105e+00
    endloop
  endfacet
  facet normal 0.000000e+00 1.000000e+00 0.000000e+00
    outer loop
      vertex   -8.045877e+00 1.500000e+00 2.856968e+00
      vertex   -6.822793e+00 1.500000e+00 -1.120105e+00
      vertex   -8.057305e+00 1.500000e+00 2.845539e+00
    endloop
  endfacet
  facet normal 1.000000e+00 1.889741e-16 -1.889741e-16
    outer loop
      vertex   1.400000e+01 1.500000e+00 -4.700000e+00
      vertex   1.400000e+01 1.500000e+00 4.700000e+00
      vertex   1.400000e+01 1.200000e+00 -5.000000e+00
    endloop
  endfacet
  facet normal 1.000000e+00 -1.776357e-16 -1.776357e-16
    outer loop
      vertex   1.400000e+01 1.200000e+00 -5.000000e+00
      vertex   1.400000e+01 1.500000e+00 4.700000e+00
      vertex   1.400000e+01 1.200000e+00 5.000000e+00
    endloop
  endfacet
  facet normal 1.000000e+00 0.000000e+00 -1.776357e-16
    outer loop
      vertex   1.400000e+01 1.200000e+00 -5.000000e+00
      vertex   1.400000e+01 1.200000e+00 5.000000e+00
      vertex   1.400000e+01 -1.000000e+00 -5.000000e+00
    endloop
  endfacet
  facet normal 1.000000e+00 0.000000e+00 -1.776357e-16
    outer loop
      vertex   1.400000e+01 -1.000000e+00 -5.000000e+00
      vertex   1.400000e+01 1.200000e+00 5.000000e+00
      vertex   1.400000e+01 -1.000000e+00 5.000000e+00
    endloop
  endfacet
  facet normal 3.416071e-17 4.037175e-16 1.000000e+00
    outer loop
      vertex   1.400000e+01 1.200000e+00 5.000000e+00
      vertex   -1.200000e+01 1.200000e+00 5.000000e+00
      vertex   1.400000e+01 -1.000000e+00 5.000000e+00
    endloop
  endfacet
  facet normal 6.832142e-17 8.074349e-16 1.000000e+00
    outer loop
      vertex   1.400000e+01 -1.000000e+00 5.000000e+00
      vertex   -1.200000e+01 1.200000e+00 5.000000e+00
      vertex   -1.200000e+01 -1.000000e+00 5.000000e+00
    endloop
  endfacet
  facet normal -7.071068e-01 5.709427e-16 7.071068e-01
    outer loop
      vertex   -1.200000e+01 1.200000e+00 5.000000e+00
      vertex   -1.400000e+01 1.200000e+00 3.000000e+00
      vertex   -1.200000e+01 -1.000000e+00 5.000000e+00
    endloop
  endfacet
  facet normal -7.071068e-01 0.000000e+00 7.071068e-01
    outer loop
      vertex   -1.200000e+01 -1.000000e+00 5.000000e+00
      vertex   -1.400000e+01 1.200000e+00 3.000000e+00
      vertex   -1.400000e+01 -1.000000e+00 3.000000e+00
    endloop
  endfacet
  facet normal -1.000000e+00 -0.000000e+00 -2.960595e-16
    outer loop
      vertex   -1.400000e+01 1.200000e+00 3.000000e+00
      vertex   -1.400000e+01 1.200000e+00 -3.000000e+00
      vertex   -1.400000e+01 -1.000000e+00 3.000000e+00
    endloop
  endfacet
  facet normal -1.000000e+00 0.000000e+00 -2.960595e-16
    outer loop
      vertex   -1.400000e+01 -1.000000e+00 3.000000e+00
      vertex   -1.400000e+01 1.200000e+00 -3.000000e+00
      vertex   -1.400000e+01 -1.000000e+00 -3.000000e+00
    endloop
  endfacet
  facet normal -7.071068e-01 -1.427357e-16 -7.071068e-01
    outer loop
      vertex   -1.400000e+01 1.200000e+00 -3.000000e+00
      vertex   -1.200000e+01 1.200000e+00 -5.000000e+00
      vertex   -1.400000e+01 -1.000000e+00 -3.000000e+00
    endloop
  endfacet
  facet normal -7.071068e-01 0.000000e+00 -7.071068e-01
    outer loop
      vertex   -1.400000e+01 -1.000000e+00 -3.000000e+00
      vertex   -1.200000e+01 1.200000e+00 -5.000000e+00
      vertex   -1.200000e+01 -1.000000e+00 -5.000000e+00
    endloop
  endfacet
  facet normal -0.000000e+00 1.000000e+00 0.000000e+00
    outer loop
      vertex   -1.370000e+01 1.500000e+00 2.875736e+00
      vertex   -1.299449e+01 1.500000e+00 3.581245e+00
      vertex   -1.370000e+01 1.500000e+00 -2.875736e+00
    endloop
  endfacet
  facet normal -0.000000e+00 1.000000e+00 0.000000e+00
    outer loop
      vertex   -1.370000e+01 1.500000e+00 -2.875736e+00
      vertex   -1.299449e+01 1.500000e+00 3.581245e+00
      vertex   -1.299408e+01 1.500000e+00 -3.581654e+00
    endloop
  endfacet
  facet normal 1.000000e+00 -0.000000e+00 0.000000e+00
    outer loop
      vertex   1.100000e+01 -1.000000e+00 1.750000e+00
      vertex   1.100000e+01 -1.000000e+00 -1.750000e+00
      vertex   1.100000e+01 1.500000e+00 1.750000e+00
    endloop
  endfacet
  facet normal 1.000000e+00 0.000000e+00 0.000000e+00
    outer loop
      vertex   1.100000e+01 1.500000e+00 1.750000e+00
      vertex   1.100000e+01 -1.000000e+00 -1.750000e+00
      vertex   1.100000e+01 1.500000e+00 -1.750000e+00
    endloop
  endfacet
  facet normal 0.000000e+00 0.000000e+00 1.000000e+00
    outer loop
      vertex   1.100000e+01 -1.000000e+00 -1.750000e+00
      vertex   1.250000e+01 -1.000000e+00 -1.750000e+00
      vertex   1.100000e+01 1.500000e+00 -1.750000e+00
    endloop
  endfacet
  facet normal -0.000000e+00 0.000000e+00 1.000000e+00
    outer loop
      vertex   1.100000e+01 1.500000e+00 -1.750000e+00
      vertex   1.250000e+01 -1.000000e+00 -1.750000e+00
      vertex   1.250000e+01 1.500000e+00 -1.750000e+00
    endloop
  endfacet
  facet normal -1.000000e+00 0.000000e+00 -5.075305e-16
    outer loop
      vertex   1.250000e+01 -1.000000e+00 -1.750000e+00
      vertex   1.250000e+01 -1.000000e+00 1.750000e+00
      vertex   1.250000e+01 1.500000e+00 -1.750000e+00
    endloop
  endfacet
  facet normal -1.000000e+00 0.000000e+00 -5.075305e-16
    outer loop
      vertex   1.250000e+01 1.500000e+00 -1.750000e+00
      vertex   1.250000e+01 -1.000000e+00 1.750000e+00
      vertex   1.250000e+01 1.500000e+00 1.750000e+00
    endloop
  endfacet
  facet normal 0.000000e+00 0.000000e+00 -1.000000e+00
    outer loop
      vertex   1.250000e+01 -1.000000e+00 1.750000e+00
      vertex   1.100000e+01 -1.000000e+00 1.750000e+00
      vertex   1.250000e+01 1.500000e+00 1.750000e+00
    endloop
  endfacet
  facet normal -0.000000e+00 0.000000e+00 -1.000000e+00
    outer loop
      vertex   1.250000e+01 1.500000e+00 1.750000e+00
      vertex   1.100000e+01 -1.000000e+00 1.750000e+00
      vertex   1.100000e+01 1.500000e+00 1.750000e+00
    endloop
  endfacet
  facet normal 1.000000e+00 0.000000e+00 -2.537653e-16
    outer loop
      vertex   5.500000e+00 -1.000000e+00 1.750000e+00
      vertex   5.500000e+00 -1.000000e+00 -1.750000e+00
      vertex   5.500000e+00 1.500000e+00 1.750000e+00
    endloop
  endfacet
  facet normal 1.000000e+00 0.000000e+00 -2.537653e-16
    outer loop
      vertex   5.500000e+00 1.500000e+00 1.750000e+00
      vertex   5.500000e+00 -1.000000e+00 -1.750000e+00
      vertex   5.500000e+00 1.500000e+00 -1.750000e+00
    endloop
  endfacet
  facet normal 7.401487e-16 -0.000000e+00 1.000000e+00
    outer loop
      vertex   5.500000e+00 -1.000000e+00 -1.750000e+00
      vertex   7.000000e+00 -1.000000e+00 -1.750000e+00
      vertex   5.500000e+00 1.500000e+00 -1.750000e+00
    endloop
  endfacet
  facet normal 7.401487e-16 0.000000e+00 1.000000e+00
    outer loop
      vertex   5.500000e+00 1.500000e+00 -1.750000e+00
      vertex   7.000000e+00 -1.000000e+00 -1.750000e+00
      vertex   7.000000e+00 1.500000e+00 -1.750000e+00
    endloop
  endfacet
  facet normal -1.000000e+00 0.000000e+00 0.000000e+00
    outer loop
      vertex   7.000000e+00 -1.000000e+00 -1.750000e+00
      vertex   7.000000e+00 -1.000000e+00 1.750000e+00
      vertex   7.000000e+00 1.500000e+00 -1.750000e+00
    endloop
  endfacet
  facet normal -1.000000e+00 0.000000e+00 0.000000e+00
    outer loop
      vertex   7.000000e+00 1.500000e+00 -1.750000e+00
      vertex   7.000000e+00 -1.000000e+00 1.750000e+00
      vertex   7.000000e+00 1.500000e+00 1.750000e+00
    endloop
  endfacet
  facet normal -7.401487e-16 0.000000e+00 -1.000000e+00
    outer loop
      vertex   7.000000e+00 -1.000000e+00 1.750000e+00
      vertex   5.500000e+00 -1.000000e+00 1.750000e+00
      vertex   7.000000e+00 1.500000e+00 1.750000e+00
    endloop
  endfacet
  facet normal -7.401487e-16 0.000000e+00 -1.000000e+00
    outer loop
      vertex   7.000000e+00 1.500000e+00 1.750000e+00
      vertex   5.500000e+00 -1.000000e+00 1.750000e+00
      vertex   5.500000e+00 1.500000e+00 1.750000e+00
    endloop
  endfacet
  facet normal 0.000000e+00 -1.000000e+00 0.000000e+00
    outer loop
      vertex   -1.200000e+01 -1.000000e+00 -5.000000e+00
      vertex   5.500000e+00 -1.000000e+00 -1.750000e+00
      vertex   -1.400000e+01 -1.000000e+00 -3.000000e+00
    endloop
  endfacet
  facet normal 0.000000e+00 -1.000000e+00 0.000000e+00
    outer loop
      vertex   -1.400000e+01 -1.000000e+00 -3.000000e+00
      vertex   5.500000e+00 -1.000000e+00 -1.750000e+00
      vertex   5.500000e+00 -1.000000e+00 1.750000e+00
    endloop
  endfacet
  facet normal 0.000000e+00 -1.000000e+00 0.000000e+00
    outer loop
      vertex   -1.400000e+01 -1.000000e+00 -3.000000e+00
      vertex   5.500000e+00 -1.000000e+00 1.750000e+00
      vertex   -1.400000e+01 -1.000000e+00 3.000000e+00
    endloop
  endfacet
  facet normal 0.000000e+00 -1.000000e+00 0.000000e+00
    outer loop
      vertex   -1.400000e+01 -1.000000e+00 3.000000e+00
      vertex   5.500000e+00 -1.000000e+00 1.750000e+00
      vertex   -1.200000e+01 -1.000000e+00 5.000000e+00
    endloop
  endfacet
  facet normal 0.000000e+00 -1.000000e+00 0.000000e+00
    outer loop
      vertex   -1.200000e+01 -1.000000e+00 5.000000e+00
      vertex   5.500000e+00 -1.000000e+00 1.750000e+00
      vertex   1.400000e+01 -1.000000e+00 5.000000e+00
    endloop
  endfacet
  facet normal 0.000000e+00 -1.000000e+00 0.000000e+00
    outer loop
      vertex   1.400000e+01 -1.000000e+00 5.000000e+00
      vertex   5.500000e+00 -1.000000e+00 1.750000e+00
      vertex   7.000000e+00 -1.000000e+00 1.750000e+00
    endloop
  endfacet
  facet normal 0.000000e+00 -1.000000e+00 0.000000e+00
    outer loop
      vertex   1.400000e+01 -1.000000e+00 5.000000e+00
      vertex   7.000000e+00 -1.000000e+00 1.750000e+00
      vertex   1.100000e+01 -1.000000e+00 1.750000e+00
    endloop
  endfacet
  facet normal -0.000000e+00 -1.000000e+00 0.000000e+00
    outer loop
      vertex   1.100000e+01 -1.000000e+00 1.750000e+00
      vertex   7.000000e+00 -1.000000e+00 1.750000e+00
      vertex   7.000000e+00 -1.000000e+00 -1.750000e+00
    endloop
  endfacet
  facet normal 0.000000e+00 -1.000000e+00 -0.000000e+00
    outer loop
      vertex   1.100000e+01 -1.000000e+00 1.750000e+00
      vertex   7.000000e+00 -1.000000e+00 -1.750000e+00
      vertex   1.100000e+01 -1.000000e+00 -1.750000e+00
    endloop
  endfacet
  facet normal -0.000000e+00 -1.000000e+00 -0.000000e+00
    outer loop
      vertex   1.100000e+01 -1.000000e+00 -1.750000e+00
      vertex   7.000000e+00 -1.000000e+00 -1.750000e+00
      vertex   1.400000e+01 -1.000000e+00 -5.000000e+00
    endloop
  endfacet
  facet normal 0.000000e+00 -1.000000e+00 0.000000e+00
    outer loop
      vertex   1.100000e+01 -1.000000e+00 -1.750000e+00
      vertex   1.400000e+01 -1.000000e+00 -5.000000e+00
      vertex   1.250000e+01 -1.000000e+00 -1.750000e+00
    endloop
  endfacet
  facet normal 0.000000e+00 -1.000000e+00 0.000000e+00
    outer loop
      vertex   1.250000e+01 -1.000000e+00 -1.750000e+00
      vertex   1.400000e+01 -1.000000e+00 -5.000000e+00
      vertex   1.400000e+01 -1.000000e+00 5.000000e+00
    endloop
  endfacet
  facet normal 0.000000e+00 -1.000000e+00 0.000000e+00
    outer loop
      vertex   1.250000e+01 -1.000000e+00 -1.750000e+00
      vertex   1.400000e+01 -1.000000e+00 5.000000e+00
      vertex   1.250000e+01 -1.000000e+00 1.750000e+00
    endloop
  endfacet
  facet normal 0.000000e+00 -1.000000e+00 0.000000e+00
    outer loop
      vertex   1.250000e+01 -1.000000e+00 1.750000e+00
      vertex   1.400000e+01 -1.000000e+00 5.000000e+00
      vertex   1.100000e+01 -1.000000e+00 1.750000e+00
    endloop
  endfacet
  facet normal 0.000000e+00 -1.000000e+00 0.000000e+00
    outer loop
      vertex   -1.200000e+01 -1.000000e+00 -5.000000e+00
      vertex   1.400000e+01 -1.000000e+00 -5.000000e+00
      vertex   5.500000e+00 -1.000000e+00 -1.750000e+00
    endloop
  endfacet
  facet normal 0.000000e+00 -1.000000e+00 0.000000e+00
    outer loop
      vertex   5.500000e+00 -1.000000e+00 -1.750000e+00
      vertex   1.400000e+01 -1.000000e+00 -5.000000e+00
      vertex   7.000000e+00 -1.000000e+00 -1.750000e+00
    endloop
  endfacet
  facet normal 1.000000e+00 -0.000000e+00 5.712543e-05
    outer loop
      vertex   -4.937371e+00 1.500000e+00 4.000003e+00
      vertex   -4.936914e+00 1.500000e+00 -3.999998e+00
      vertex   -4.937371e+00 2.500000e+00 4.000003e+00
    endloop
  endfacet
  facet normal 1.000000e+00 0.000000e+00 5.712543e-05
    outer loop
      vertex   -4.937371e+00 2.500000e+00 4.000003e+00
      vertex   -4.936914e+00 1.500000e+00 -3.999998e+00
      vertex   -4.936914e+00 2.500000e+00 -3.999998e+00
    endloop
  endfacet
  facet normal -5.712543e-05 -4.440892e-16 1.000000e+00
    outer loop
      vertex   -6.823085e+00 1.500000e+00 3.999895e+00
      vertex   -4.937371e+00 1.500000e+00 4.000003e+00
      vertex   -6.823085e+00 2.500000e+00 3.999895e+00
    endloop
  endfacet
  facet normal -5.712543e-05 0.000000e+00 1.000000e+00
    outer loop
      vertex   -6.823085e+00 2.500000e+00 3.999895e+00
      vertex   -4.937371e+00 1.500000e+00 4.000003e+00
      vertex   -4.937371e+00 2.500000e+00 4.000003e+00
    endloop
  endfacet
  facet normal -1.000000e+00 0.000000e+00 -5.712543e-05
    outer loop
      vertex   -6.822793e+00 1.500000e+00 -1.120105e+00
      vertex   -6.823085e+00 1.500000e+00 3.999895e+00
      vertex   -6.822793e+00 2.500000e+00 -1.120105e+00
    endloop
  endfacet
  facet normal -1.000000e+00 4.235165e-20 -5.712543e-05
    outer loop
      vertex   -6.822793e+00 2.500000e+00 -1.120105e+00
      vertex   -6.823085e+00 1.500000e+00 3.999895e+00
      vertex   -6.823085e+00 2.500000e+00 3.999895e+00
    endloop
  endfacet
  facet normal 9.548051e-01 -0.000000e+00 2.972326e-01
    outer loop
      vertex   -8.057305e+00 1.500000e+00 2.845539e+00
      vertex   -6.822793e+00 1.500000e+00 -1.120105e+00
      vertex   -8.057305e+00 2.500000e+00 2.845539e+00
    endloop
  endfacet
  facet normal 9.548051e-01 0.000000e+00 2.972326e-01
    outer loop
      vertex   -8.057305e+00 2.500000e+00 2.845539e+00
      vertex   -6.822793e+00 1.500000e+00 -1.120105e+00
      vertex   -6.822793e+00 2.500000e+00 -1.120105e+00
    endloop
  endfacet
  facet normal 7.071472e-01 0.000000e+00 -7.070664e-01
    outer loop
      vertex   -8.045877e+00 1.500000e+00 2.856968e+00
      vertex   -8.057305e+00 1.500000e+00 2.845539e+00
      vertex   -8.045877e+00 2.500000e+00 2.856968e+00
    endloop
  endfacet
  facet normal 7.071472e-01 0.000000e+00 -7.070664e-01
    outer loop
      vertex   -8.045877e+00 2.500000e+00 2.856968e+00
      vertex   -8.057305e+00 1.500000e+00 2.845539e+00
      vertex   -8.057305e+00 2.500000e+00 2.845539e+00
    endloop
  endfacet
  facet normal -5.712543e-05 -8.881784e-16 1.000000e+00
    outer loop
      vertex   -9.954449e+00 1.500000e+00 2.856859e+00
      vertex   -8.045877e+00 1.500000e+00 2.856968e+00
      vertex   -9.954449e+00 2.500000e+00 2.856859e+00
    endloop
  endfacet
  facet normal -5.712543e-05 0.000000e+00 1.000000e+00
    outer loop
      vertex   -9.954449e+00 2.500000e+00 2.856859e+00
      vertex   -8.045877e+00 1.500000e+00 2.856968e+00
      vertex   -8.045877e+00 2.500000e+00 2.856968e+00
    endloop
  endfacet
  facet normal -9.559112e-01 0.000000e+00 2.936560e-01
    outer loop
      vertex   -1.121136e+01 1.500000e+00 -1.234642e+00
      vertex   -9.954449e+00 1.500000e+00 2.856859e+00
      vertex   -1.121136e+01 2.500000e+00 -1.234642e+00
    endloop
  endfacet
  facet normal -9.559112e-01 -2.075081e-16 2.936560e-01
    outer loop
      vertex   -1.121136e+01 2.500000e+00 -1.234642e+00
      vertex   -9.954449e+00 1.500000e+00 2.856859e+00
      vertex   -9.954449e+00 2.500000e+00 2.856859e+00
    endloop
  endfacet
  facet normal 1.000000e+00 -0.000000e+00 5.712543e-05
    outer loop
      vertex   -1.121166e+01 1.500000e+00 3.999645e+00
      vertex   -1.121136e+01 1.500000e+00 -1.234642e+00
      vertex   -1.121166e+01 2.500000e+00 3.999645e+00
    endloop
  endfacet
  facet normal 1.000000e+00 0.000000e+00 5.712543e-05
    outer loop
      vertex   -1.121166e+01 2.500000e+00 3.999645e+00
      vertex   -1.121136e+01 1.500000e+00 -1.234642e+00
      vertex   -1.121136e+01 2.500000e+00 -1.234642e+00
    endloop
  endfacet
  facet normal -5.712543e-05 0.000000e+00 1.000000e+00
    outer loop
      vertex   -1.121166e+01 1.500000e+00 3.999645e+00
      vertex   -1.121166e+01 2.500000e+00 3.999645e+00
      vertex   -1.257617e+01 1.500000e+00 3.999567e+00
    endloop
  endfacet
  facet normal -5.712543e-05 -4.129747e-16 1.000000e+00
    outer loop
      vertex   -1.257617e+01 1.500000e+00 3.999567e+00
      vertex   -1.121166e+01 2.500000e+00 3.999645e+00
      vertex   -1.299451e+01 2.500000e+00 3.999543e+00
    endloop
  endfacet
  facet normal -5.712543e-05 -6.854313e-16 1.000000e+00
    outer loop
      vertex   -1.257617e+01 1.500000e+00 3.999567e+00
      vertex   -1.299451e+01 2.500000e+00 3.999543e+00
      vertex   -1.299451e+01 1.204202e+00 3.999543e+00
    endloop
  endfacet
  facet normal -1.000000e+00 3.915547e-20 -5.712543e-05
    outer loop
      vertex   -1.299451e+01 1.204202e+00 3.999543e+00
      vertex   -1.299451e+01 2.500000e+00 3.999543e+00
      vertex   -1.299449e+01 1.500000e+00 3.581245e+00
    endloop
  endfacet
  facet normal -1.000000e+00 -8.477950e-16 -5.712543e-05
    outer loop
      vertex   -1.299449e+01 1.500000e+00 3.581245e+00
      vertex   -1.299451e+01 2.500000e+00 3.999543e+00
      vertex   -1.299408e+01 1.500000e+00 -3.581654e+00
    endloop
  endfacet
  facet normal -1.000000e+00 7.586365e-16 -5.712543e-05
    outer loop
      vertex   -1.299408e+01 1.500000e+00 -3.581654e+00
      vertex   -1.299451e+01 2.500000e+00 3.999543e+00
      vertex   -1.299406e+01 2.500000e+00 -4.000458e+00
    endloop
  endfacet
  facet normal -1.000000e+00 4.057117e-20 -5.712543e-05
    outer loop
      vertex   -1.299408e+01 1.500000e+00 -3.581654e+00
      vertex   -1.299406e+01 2.500000e+00 -4.000458e+00
      vertex   -1.299406e+01 1.203878e+00 -4.000458e+00
    endloop
  endfacet
  facet normal 5.712543e-05 6.852584e-16 -1.000000e+00
    outer loop
      vertex   -1.299406e+01 1.203878e+00 -4.000458e+00
      vertex   -1.299406e+01 2.500000e+00 -4.000458e+00
      vertex   -1.257530e+01 1.500000e+00 -4.000434e+00
    endloop
  endfacet
  facet normal 5.712543e-05 2.657184e-16 -1.000000e+00
    outer loop
      vertex   -1.257530e+01 1.500000e+00 -4.000434e+00
      vertex   -1.299406e+01 2.500000e+00 -4.000458e+00
      vertex   -1.047977e+01 2.500000e+00 -4.000314e+00
    endloop
  endfacet
  facet normal 5.712543e-05 0.000000e+00 -1.000000e+00
    outer loop
      vertex   -1.257530e+01 1.500000e+00 -4.000434e+00
      vertex   -1.047977e+01 2.500000e+00 -4.000314e+00
      vertex   -1.047977e+01 1.500000e+00 -4.000314e+00
    endloop
  endfacet
  facet normal 9.588359e-01 -1.891559e-16 -2.839608e-01
    outer loop
      vertex   -8.960065e+00 1.500000e+00 1.131202e+00
      vertex   -1.047977e+01 1.500000e+00 -4.000314e+00
      vertex   -8.960065e+00 2.500000e+00 1.131202e+00
    endloop
  endfacet
  facet normal 9.588359e-01 0.000000e+00 -2.839608e-01
    outer loop
      vertex   -8.960065e+00 2.500000e+00 1.131202e+00
      vertex   -1.047977e+01 1.500000e+00 -4.000314e+00
      vertex   -1.047977e+01 2.500000e+00 -4.000314e+00
    endloop
  endfacet
  facet normal -9.544629e-01 0.000000e+00 -2.983295e-01
    outer loop
      vertex   -7.359772e+00 1.500000e+00 -3.988707e+00
      vertex   -8.960065e+00 1.500000e+00 1.131202e+00
      vertex   -7.359772e+00 2.500000e+00 -3.988707e+00
    endloop
  endfacet
  facet normal -9.544629e-01 0.000000e+00 -2.983295e-01
    outer loop
      vertex   -7.359772e+00 2.500000e+00 -3.988707e+00
      vertex   -8.960065e+00 1.500000e+00 1.131202e+00
      vertex   -8.960065e+00 2.500000e+00 1.131202e+00
    endloop
  endfacet
  facet normal -7.071472e-01 0.000000e+00 7.070664e-01
    outer loop
      vertex   -7.371200e+00 1.500000e+00 -4.000137e+00
      vertex   -7.359772e+00 1.500000e+00 -3.988707e+00
      vertex   -7.371200e+00 2.500000e+00 -4.000137e+00
    endloop
  endfacet
  facet normal -7.071472e-01 0.000000e+00 7.070664e-01
    outer loop
      vertex   -7.371200e+00 2.500000e+00 -4.000137e+00
      vertex   -7.359772e+00 1.500000e+00 -3.988707e+00
      vertex   -7.359772e+00 2.500000e+00 -3.988707e+00
    endloop
  endfacet
  facet normal 5.712543e-05 0.000000e+00 -1.000000e+00
    outer loop
      vertex   -4.936914e+00 1.500000e+00 -3.999998e+00
      vertex   -7.371200e+00 1.500000e+00 -4.000137e+00
      vertex   -4.936914e+00 2.500000e+00 -3.999998e+00
    endloop
  endfacet
  facet normal 5.712543e-05 0.000000e+00 -1.000000e+00
    outer loop
      vertex   -4.936914e+00 2.500000e+00 -3.999998e+00
      vertex   -7.371200e+00 1.500000e+00 -4.000137e+00
      vertex   -7.371200e+00 2.500000e+00 -4.000137e+00
    endloop
  endfacet
  facet normal 0.000000e+00 1.000000e+00 0.000000e+00
    outer loop
      vertex   -7.371200e+00 2.500000e+00 -4.000137e+00
      vertex   -7.359772e+00 2.500000e+00 -3.988707e+00
      vertex   -4.936914e+00 2.500000e+00 -3.999998e+00
    endloop
  endfacet
  facet normal 0.000000e+00 1.000000e+00 0.000000e+00
    outer loop
      vertex   -4.936914e+00 2.500000e+00 -3.999998e+00
      vertex   -7.359772e+00 2.500000e+00 -3.988707e+00
      vertex   -6.822793e+00 2.500000e+00 -1.120105e+00
    endloop
  endfacet
  facet normal 0.000000e+00 1.000000e+00 0.000000e+00
    outer loop
      vertex   -4.936914e+00 2.500000e+00 -3.999998e+00
      vertex   -6.822793e+00 2.500000e+00 -1.120105e+00
      vertex   -4.937371e+00 2.500000e+00 4.000003e+00
    endloop
  endfacet
  facet normal 0.000000e+00 1.000000e+00 0.000000e+00
    outer loop
      vertex   -4.937371e+00 2.500000e+00 4.000003e+00
      vertex   -6.822793e+00 2.500000e+00 -1.120105e+00
      vertex   -6.823085e+00 2.500000e+00 3.999895e+00
    endloop
  endfacet
  facet normal 0.000000e+00 1.000000e+00 -0.000000e+00
    outer loop
      vertex   -7.359772e+00 2.500000e+00 -3.988707e+00
      vertex   -8.960065e+00 2.500000e+00 1.131202e+00
      vertex   -6.822793e+00 2.500000e+00 -1.120105e+00
    endloop
  endfacet
  facet normal 0.000000e+00 1.000000e+00 0.000000e+00
    outer loop
      vertex   -6.822793e+00 2.500000e+00 -1.120105e+00
      vertex   -8.960065e+00 2.500000e+00 1.131202e+00
      vertex   -8.057305e+00 2.500000e+00 2.845539e+00
    endloop
  endfacet
  facet normal 0.000000e+00 1.000000e+00 0.000000e+00
    outer loop
      vertex   -8.057305e+00 2.500000e+00 2.845539e+00
      vertex   -8.960065e+00 2.500000e+00 1.131202e+00
      vertex   -9.954449e+00 2.500000e+00 2.856859e+00
    endloop
  endfacet
  facet normal 0.000000e+00 1.000000e+00 -0.000000e+00
    outer loop
      vertex   -8.057305e+00 2.500000e+00 2.845539e+00
      vertex   -9.954449e+00 2.500000e+00 2.856859e+00
      vertex   -8.045877e+00 2.500000e+00 2.856968e+00
    endloop
  endfacet
  facet normal 0.000000e+00 1.000000e+00 0.000000e+00
    outer loop
      vertex   -9.954449e+00 2.500000e+00 2.856859e+00
      vertex   -8.960065e+00 2.500000e+00 1.131202e+00
      vertex   -1.121136e+01 2.500000e+00 -1.234642e+00
    endloop
  endfacet
  facet normal -0.000000e+00 1.000000e+00 0.000000e+00
    outer loop
      vertex   -1.121136e+01 2.500000e+00 -1.234642e+00
      vertex   -8.960065e+00 2.500000e+00 1.131202e+00
      vertex   -1.047977e+01 2.500000e+00 -4.000314e+00
    endloop
  endfacet
  facet normal 0.000000e+00 1.000000e+00 0.000000e+00
    outer loop
      vertex   -1.121136e+01 2.500000e+00 -1.234642e+00
      vertex   -1.047977e+01 2.500000e+00 -4.000314e+00
      vertex   -1.299406e+01 2.500000e+00 -4.000458e+00
    endloop
  endfacet
  facet normal 0.000000e+00 1.000000e+00 -0.000000e+00
    outer loop
      vertex   -1.299406e+01 2.500000e+00 -4.000458e+00
      vertex   -1.299451e+01 2.500000e+00 3.999543e+00
      vertex   -1.121136e+01 2.500000e+00 -1.234642e+00
    endloop
  endfacet
  facet normal 0.000000e+00 1.000000e+00 0.000000e+00
    outer loop
      vertex   -1.121136e+01 2.500000e+00 -1.234642e+00
      vertex   -1.299451e+01 2.500000e+00 3.999543e+00
      vertex   -1.121166e+01 2.500000e+00 3.999645e+00
    endloop
  endfacet
  facet normal -5.712543e-05 0.000000e+00 1.000000e+00
    outer loop
      vertex   -3.680151e+00 1.500000e+00 2.651503e+00
      vertex   5.699369e-02 1.500000e+00 2.651717e+00
      vertex   -3.680151e+00 2.500000e+00 2.651503e+00
    endloop
  endfacet
  facet normal -5.712543e-05 0.000000e+00 1.000000e+00
    outer loop
      vertex   -3.680151e+00 2.500000e+00 2.651503e+00
      vertex   5.699369e-02 1.500000e+00 2.651717e+00
      vertex   5.699369e-02 2.500000e+00 2.651717e+00
    endloop
  endfacet
  facet normal -1.000000e+00 0.000000e+00 -5.712543e-05
    outer loop
      vertex   -3.680085e+00 1.500000e+00 1.497217e+00
      vertex   -3.680151e+00 1.500000e+00 2.651503e+00
      vertex   -3.680085e+00 2.500000e+00 1.497217e+00
    endloop
  endfacet
  facet normal -1.000000e+00 0.000000e+00 -5.712543e-05
    outer loop
      vertex   -3.680085e+00 2.500000e+00 1.497217e+00
      vertex   -3.680151e+00 1.500000e+00 2.651503e+00
      vertex   -3.680151e+00 2.500000e+00 2.651503e+00
    endloop
  endfacet
  facet normal -9.093690e-01 0.000000e+00 -4.159904e-01
    outer loop
      vertex   -1.165485e+00 1.500000e+00 -3.999782e+00
      vertex   -3.680085e+00 1.500000e+00 1.497217e+00
      vertex   -1.165485e+00 2.500000e+00 -3.999782e+00
    endloop
  endfacet
  facet normal -9.093690e-01 0.000000e+00 -4.159904e-01
    outer loop
      vertex   -1.165485e+00 2.500000e+00 -3.999782e+00
      vertex   -3.680085e+00 1.500000e+00 1.497217e+00
      vertex   -3.680085e+00 2.500000e+00 1.497217e+00
    endloop
  endfacet
  facet normal 5.712543e-05 4.440892e-16 -1.000000e+00
    outer loop
      vertex   7.545167e-01 1.500000e+00 -3.999672e+00
      vertex   -1.165485e+00 1.500000e+00 -3.999782e+00
      vertex   7.545167e-01 2.500000e+00 -3.999672e+00
    endloop
  endfacet
  facet normal 5.712543e-05 0.000000e+00 -1.000000e+00
    outer loop
      vertex   7.545167e-01 2.500000e+00 -3.999672e+00
      vertex   -1.165485e+00 1.500000e+00 -3.999782e+00
      vertex   -1.165485e+00 2.500000e+00 -3.999782e+00
    endloop
  endfacet
  facet normal 9.084665e-01 -0.000000e+00 4.179576e-01
    outer loop
      vertex   -1.611493e+00 1.500000e+00 1.143050e+00
      vertex   7.545167e-01 1.500000e+00 -3.999672e+00
      vertex   -1.611493e+00 2.500000e+00 1.143050e+00
    endloop
  endfacet
  facet normal 9.084665e-01 0.000000e+00 4.179576e-01
    outer loop
      vertex   -1.611493e+00 2.500000e+00 1.143050e+00
      vertex   7.545167e-01 1.500000e+00 -3.999672e+00
      vertex   7.545167e-01 2.500000e+00 -3.999672e+00
    endloop
  endfacet
  facet normal 5.712543e-05 -2.220446e-16 -1.000000e+00
    outer loop
      vertex   1.256514e-01 1.500000e+00 1.143150e+00
      vertex   -1.611493e+00 1.500000e+00 1.143050e+00
      vertex   1.256514e-01 2.500000e+00 1.143150e+00
    endloop
  endfacet
  facet normal 5.712543e-05 0.000000e+00 -1.000000e+00
    outer loop
      vertex   1.256514e-01 2.500000e+00 1.143150e+00
      vertex   -1.611493e+00 1.500000e+00 1.143050e+00
      vertex   -1.611493e+00 2.500000e+00 1.143050e+00
    endloop
  endfacet
  facet normal -9.823280e-01 -4.155951e-17 -1.871674e-01
    outer loop
      vertex   4.914738e-01 1.500000e+00 -7.768298e-01
      vertex   1.256514e-01 1.500000e+00 1.143150e+00
      vertex   4.914738e-01 2.500000e+00 -7.768298e-01
    endloop
  endfacet
  facet normal -9.823280e-01 0.000000e+00 -1.871674e-01
    outer loop
      vertex   4.914738e-01 2.500000e+00 -7.768298e-01
      vertex   1.256514e-01 1.500000e+00 1.143150e+00
      vertex   1.256514e-01 2.500000e+00 1.143150e+00
    endloop
  endfacet
  facet normal -7.350086e-03 0.000000e+00 -9.999730e-01
    outer loop
      vertex   2.034333e+00 1.500000e+00 -7.881702e-01
      vertex   4.914738e-01 1.500000e+00 -7.768298e-01
      vertex   2.034333e+00 2.500000e+00 -7.881702e-01
    endloop
  endfacet
  facet normal -7.350086e-03 -2.226165e-16 -9.999730e-01
    outer loop
      vertex   2.034333e+00 2.500000e+00 -7.881702e-01
      vertex   4.914738e-01 1.500000e+00 -7.768298e-01
      vertex   4.914738e-01 2.500000e+00 -7.768298e-01
    endloop
  endfacet
  facet normal 1.000000e+00 -1.268439e-20 5.712543e-05
    outer loop
      vertex   2.034223e+00 1.500000e+00 1.143259e+00
      vertex   2.034333e+00 1.500000e+00 -7.881702e-01
      vertex   2.034223e+00 2.500000e+00 1.143259e+00
    endloop
  endfacet
  facet normal 1.000000e+00 0.000000e+00 5.712543e-05
    outer loop
      vertex   2.034223e+00 2.500000e+00 1.143259e+00
      vertex   2.034333e+00 1.500000e+00 -7.881702e-01
      vertex   2.034333e+00 2.500000e+00 -7.881702e-01
    endloop
  endfacet
  facet normal 5.712543e-05 0.000000e+00 -1.000000e+00
    outer loop
      vertex   2.994223e+00 1.500000e+00 1.143313e+00
      vertex   2.034223e+00 1.500000e+00 1.143259e+00
      vertex   2.994223e+00 2.500000e+00 1.143313e+00
    endloop
  endfacet
  facet normal 5.712543e-05 2.220498e-16 -1.000000e+00
    outer loop
      vertex   2.994223e+00 2.500000e+00 1.143313e+00
      vertex   2.034223e+00 1.500000e+00 1.143259e+00
      vertex   2.034223e+00 2.500000e+00 1.143259e+00
    endloop
  endfacet
  facet normal 1.000000e+00 -0.000000e+00 5.712543e-05
    outer loop
      vertex   2.994137e+00 1.500000e+00 2.651884e+00
      vertex   2.994223e+00 1.500000e+00 1.143313e+00
      vertex   2.994137e+00 2.500000e+00 2.651884e+00
    endloop
  endfacet
  facet normal 1.000000e+00 0.000000e+00 5.712543e-05
    outer loop
      vertex   2.994137e+00 2.500000e+00 2.651884e+00
      vertex   2.994223e+00 1.500000e+00 1.143313e+00
      vertex   2.994223e+00 2.500000e+00 1.143313e+00
    endloop
  endfacet
  facet normal -5.712543e-05 0.000000e+00 1.000000e+00
    outer loop
      vertex   2.034137e+00 1.500000e+00 2.651830e+00
      vertex   2.994137e+00 1.500000e+00 2.651884e+00
      vertex   2.034137e+00 2.500000e+00 2.651830e+00
    endloop
  endfacet
  facet normal -5.712543e-05 0.000000e+00 1.000000e+00
    outer loop
      vertex   2.034137e+00 2.500000e+00 2.651830e+00
      vertex   2.994137e+00 1.500000e+00 2.651884e+00
      vertex   2.994137e+00 2.500000e+00 2.651884e+00
    endloop
  endfacet
  facet normal 1.000000e+00 -0.000000e+00 5.712543e-05
    outer loop
      vertex   2.034060e+00 1.500000e+00 4.000401e+00
      vertex   2.034137e+00 1.500000e+00 2.651830e+00
      vertex   2.034060e+00 2.500000e+00 4.000401e+00
    endloop
  endfacet
  facet normal 1.000000e+00 0.000000e+00 5.712543e-05
    outer loop
      vertex   2.034060e+00 2.500000e+00 4.000401e+00
      vertex   2.034137e+00 1.500000e+00 2.651830e+00
      vertex   2.034137e+00 2.500000e+00 2.651830e+00
    endloop
  endfacet
  facet normal -5.712543e-05 0.000000e+00 1.000000e+00
    outer loop
      vertex   5.691665e-02 1.500000e+00 4.000288e+00
      vertex   2.034060e+00 1.500000e+00 4.000401e+00
      vertex   5.691665e-02 2.500000e+00 4.000288e+00
    endloop
  endfacet
  facet normal -5.712543e-05 0.000000e+00 1.000000e+00
    outer loop
      vertex   5.691665e-02 2.500000e+00 4.000288e+00
      vertex   2.034060e+00 1.500000e+00 4.000401e+00
      vertex   2.034060e+00 2.500000e+00 4.000401e+00
    endloop
  endfacet
  facet normal -1.000000e+00 0.000000e+00 -5.712543e-05
    outer loop
      vertex   5.699369e-02 1.500000e+00 2.651717e+00
      vertex   5.691665e-02 1.500000e+00 4.000288e+00
      vertex   5.699369e-02 2.500000e+00 2.651717e+00
    endloop
  endfacet
  facet normal -1.000000e+00 0.000000e+00 -5.712543e-05
    outer loop
      vertex   5.699369e-02 2.500000e+00 2.651717e+00
      vertex   5.691665e-02 1.500000e+00 4.000288e+00
      vertex   5.691665e-02 2.500000e+00 4.000288e+00
    endloop
  endfacet
  facet normal -0.000000e+00 1.000000e+00 0.000000e+00
    outer loop
      vertex   5.691665e-02 2.500000e+00 4.000288e+00
      vertex   2.034060e+00 2.500000e+00 4.000401e+00
      vertex   5.699369e-02 2.500000e+00 2.651717e+00
    endloop
  endfacet
  facet normal 0.000000e+00 1.000000e+00 0.000000e+00
    outer loop
      vertex   5.699369e-02 2.500000e+00 2.651717e+00
      vertex   2.034060e+00 2.500000e+00 4.000401e+00
      vertex   2.034137e+00 2.500000e+00 2.651830e+00
    endloop
  endfacet
  facet normal -0.000000e+00 1.000000e+00 0.000000e+00
    outer loop
      vertex   5.699369e-02 2.500000e+00 2.651717e+00
      vertex   2.034137e+00 2.500000e+00 2.651830e+00
      vertex   1.256514e-01 2.500000e+00 1.143150e+00
    endloop
  endfacet
  facet normal 0.000000e+00 1.000000e+00 0.000000e+00
    outer loop
      vertex   1.256514e-01 2.500000e+00 1.143150e+00
      vertex   2.034137e+00 2.500000e+00 2.651830e+00
      vertex   2.034223e+00 2.500000e+00 1.143259e+00
    endloop
  endfacet
  facet normal -0.000000e+00 1.000000e+00 0.000000e+00
    outer loop
      vertex   1.256514e-01 2.500000e+00 1.143150e+00
      vertex   2.034223e+00 2.500000e+00 1.143259e+00
      vertex   4.914738e-01 2.500000e+00 -7.768298e-01
    endloop
  endfacet
  facet normal -0.000000e+00 1.000000e+00 0.000000e+00
    outer loop
      vertex   4.914738e-01 2.500000e+00 -7.768298e-01
      vertex   2.034223e+00 2.500000e+00 1.143259e+00
      vertex   2.034333e+00 2.500000e+00 -7.881702e-01
    endloop
  endfacet
  facet normal -0.000000e+00 1.000000e+00 0.000000e+00
    outer loop
      vertex   2.034137e+00 2.500000e+00 2.651830e+00
      vertex   2.994137e+00 2.500000e+00 2.651884e+00
      vertex   2.034223e+00 2.500000e+00 1.143259e+00
    endloop
  endfacet
  facet normal 0.000000e+00 1.000000e+00 0.000000e+00
    outer loop
      vertex   2.034223e+00 2.500000e+00 1.143259e+00
      vertex   2.994137e+00 2.500000e+00 2.651884e+00
      vertex   2.994223e+00 2.500000e+00 1.143313e+00
    endloop
  endfacet
  facet normal 0.000000e+00 1.000000e+00 0.000000e+00
    outer loop
      vertex   1.256514e-01 2.500000e+00 1.143150e+00
      vertex   -1.611493e+00 2.500000e+00 1.143050e+00
      vertex   5.699369e-02 2.500000e+00 2.651717e+00
    endloop
  endfacet
  facet normal 0.000000e+00 1.000000e+00 0.000000e+00
    outer loop
      vertex   5.699369e-02 2.500000e+00 2.651717e+00
      vertex   -1.611493e+00 2.500000e+00 1.143050e+00
      vertex   -3.680151e+00 2.500000e+00 2.651503e+00
    endloop
  endfacet
  facet normal 0.000000e+00 1.000000e+00 0.000000e+00
    outer loop
      vertex   -3.680151e+00 2.500000e+00 2.651503e+00
      vertex   -1.611493e+00 2.500000e+00 1.143050e+00
      vertex   -3.680085e+00 2.500000e+00 1.497217e+00
    endloop
  endfacet
  facet normal 0.000000e+00 1.000000e+00 0.000000e+00
    outer loop
      vertex   -3.680085e+00 2.500000e+00 1.497217e+00
      vertex   -1.611493e+00 2.500000e+00 1.143050e+00
      vertex   -1.165485e+00 2.500000e+00 -3.999782e+00
    endloop
  endfacet
  facet normal 0.000000e+00 1.000000e+00 -0.000000e+00
    outer loop
      vertex   -1.165485e+00 2.500000e+00 -3.999782e+00
      vertex   -1.611493e+00 2.500000e+00 1.143050e+00
      vertex   7.545167e-01 2.500000e+00 -3.999672e+00
    endloop
  endfacet
  facet normal 0.000000e+00 0.000000e+00 -1.000000e+00
    outer loop
      vertex   -1.200000e+01 1.200000e+00 -5.000000e+00
      vertex   1.400000e+01 1.200000e+00 -5.000000e+00
      vertex   -1.200000e+01 -1.000000e+00 -5.000000e+00
    endloop
  endfacet
  facet normal 0.000000e+00 0.000000e+00 -1.000000e+00
    outer loop
      vertex   -1.200000e+01 -1.000000e+00 -5.000000e+00
      vertex   1.400000e+01 1.200000e+00 -5.000000e+00
      vertex   1.400000e+01 -1.000000e+00 -5.000000e+00
    endloop
  endfacet
endsolid
