<?xml version="1.0" encoding="iso-8859-1"?>
<!-- Uploaded to: SVG Repo, www.svgrepo.com, Generator: SVG Repo Mixer Tools -->
<svg height="800px" width="800px" version="1.1" id="Layer_1" xmlns="http://www.w3.org/2000/svg" xmlns:xlink="http://www.w3.org/1999/xlink" 
	 viewBox="0 0 512 512" xml:space="preserve">
<circle style="fill:#FFAD9E;" cx="256" cy="256" r="256"/>
<path style="fill:#FF6262;" d="M147.604,368.109L289.335,509.84c114.598-14.903,205.388-105.591,220.453-220.138L374.4,154.314
	L147.604,368.109z"/>
<circle style="fill:#FF5419;" cx="256" cy="256" r="156.444"/>
<path style="fill:#E03A00;" d="M99.562,255.426c0,0.191-0.007,0.383-0.007,0.574c0,86.402,70.042,156.444,156.444,156.444
	S412.444,342.402,412.444,256c0-0.191-0.007-0.383-0.007-0.574H99.562z"/>
<g>
	<path style="fill:#FFEDB5;" d="M317.397,262.135l-53.743,53.741c-6.513,6.513-6.513,17.074,0,23.586l0,0
		c6.513,6.513,17.074,6.513,23.586,0l70.758-70.758c6.513-6.513,6.513-17.074,0-23.586l-70.758-70.758
		c-6.513-6.513-17.074-6.513-23.586,0l0,0c-6.513,6.513-6.513,17.074,0,23.586l53.743,53.743
		C320.281,254.576,320.281,259.251,317.397,262.135z"/>
	<path style="fill:#FFEDB5;" d="M238.776,262.135l-53.743,53.741c-6.513,6.513-6.513,17.074,0,23.586l0,0
		c6.513,6.513,17.074,6.513,23.586,0l70.758-70.758c6.513-6.513,6.513-17.074,0-23.586l-70.758-70.758
		c-6.513-6.513-17.074-6.513-23.586,0l0,0c-6.513,6.513-6.513,17.074,0,23.586l53.743,53.743
		C241.661,254.574,241.661,259.251,238.776,262.135z"/>
</g>
<g>
	<path style="fill:#FEE187;" d="M319.402,255.426c0.481,2.35-0.183,4.887-2.005,6.709l-53.743,53.741
		c-6.513,6.513-6.513,17.072,0,23.586l0,0c6.513,6.513,17.074,6.513,23.586,0l70.758-70.758c3.636-3.636,5.237-8.532,4.813-13.281
		h-43.41V255.426z"/>
	<path style="fill:#FEE187;" d="M240.781,255.426c0.481,2.35-0.183,4.887-2.005,6.709l-53.743,53.741
		c-6.513,6.513-6.513,17.074,0,23.586l0,0c6.513,6.513,17.074,6.513,23.586,0l70.758-70.758c3.636-3.636,5.237-8.532,4.813-13.281
		h-43.41V255.426z"/>
</g>
</svg>