solid ASCII
  facet normal 1.000000e+00 0.000000e+00 0.000000e+00
    outer loop
      vertex   -1.400000e+01 2.239742e+02 2.787994e+01
      vertex   -1.400000e+01 2.213271e+02 2.960275e+01
      vertex   -1.400000e+01 2.228423e+02 2.719798e+01
    endloop
  endfacet
  facet normal 1.000000e+00 0.000000e+00 0.000000e+00
    outer loop
      vertex   -1.400000e+01 2.228423e+02 2.719798e+01
      vertex   -1.400000e+01 2.213271e+02 2.960275e+01
      vertex   -1.400000e+01 2.200000e+02 2.872281e+01
    endloop
  endfacet
  facet normal 1.000000e+00 0.000000e+00 0.000000e+00
    outer loop
      vertex   -1.400000e+01 2.228423e+02 2.719798e+01
      vertex   -1.400000e+01 2.200000e+02 2.872281e+01
      vertex   -1.400000e+01 2.200000e+02 2.518982e+01
    endloop
  endfacet
  facet normal 1.000000e+00 -0.000000e+00 0.000000e+00
    outer loop
      vertex   -1.400000e+01 2.213271e+02 2.960275e+01
      vertex   -1.400000e+01 2.239742e+02 2.787994e+01
      vertex   -1.400000e+01 2.226929e+02 3.042143e+01
    endloop
  endfacet
  facet normal 1.000000e+00 0.000000e+00 0.000000e+00
    outer loop
      vertex   -1.400000e+01 2.226929e+02 3.042143e+01
      vertex   -1.400000e+01 2.239742e+02 2.787994e+01
      vertex   -1.400000e+01 2.251332e+02 2.851482e+01
    endloop
  endfacet
  facet normal 1.000000e+00 -0.000000e+00 0.000000e+00
    outer loop
      vertex   -1.400000e+01 2.226929e+02 3.042143e+01
      vertex   -1.400000e+01 2.251332e+02 2.851482e+01
      vertex   -1.400000e+01 2.240945e+02 3.117713e+01
    endloop
  endfacet
  facet normal 1.000000e+00 0.000000e+00 0.000000e+00
    outer loop
      vertex   -1.400000e+01 2.240945e+02 3.117713e+01
      vertex   -1.400000e+01 2.251332e+02 2.851482e+01
      vertex   -1.400000e+01 2.263173e+02 2.910154e+01
    endloop
  endfacet
  facet normal 1.000000e+00 -0.000000e+00 0.000000e+00
    outer loop
      vertex   -1.400000e+01 2.240945e+02 3.117713e+01
      vertex   -1.400000e+01 2.263173e+02 2.910154e+01
      vertex   -1.400000e+01 2.255290e+02 3.186830e+01
    endloop
  endfacet
  facet normal 1.000000e+00 0.000000e+00 0.000000e+00
    outer loop
      vertex   -1.400000e+01 2.255290e+02 3.186830e+01
      vertex   -1.400000e+01 2.263173e+02 2.910154e+01
      vertex   -1.400000e+01 2.275245e+02 2.963913e+01
    endloop
  endfacet
  facet normal 1.000000e+00 -0.000000e+00 0.000000e+00
    outer loop
      vertex   -1.400000e+01 2.255290e+02 3.186830e+01
      vertex   -1.400000e+01 2.275245e+02 2.963913e+01
      vertex   -1.400000e+01 2.269934e+02 3.249352e+01
    endloop
  endfacet
  facet normal 1.000000e+00 0.000000e+00 0.000000e+00
    outer loop
      vertex   -1.400000e+01 2.269934e+02 3.249352e+01
      vertex   -1.400000e+01 2.275245e+02 2.963913e+01
      vertex   -1.400000e+01 2.287527e+02 3.012666e+01
    endloop
  endfacet
  facet normal 1.000000e+00 -0.000000e+00 0.000000e+00
    outer loop
      vertex   -1.400000e+01 2.269934e+02 3.249352e+01
      vertex   -1.400000e+01 2.287527e+02 3.012666e+01
      vertex   -1.400000e+01 2.284848e+02 3.305147e+01
    endloop
  endfacet
  facet normal 1.000000e+00 0.000000e+00 0.000000e+00
    outer loop
      vertex   -1.400000e+01 2.284848e+02 3.305147e+01
      vertex   -1.400000e+01 2.287527e+02 3.012666e+01
      vertex   -1.400000e+01 2.300000e+02 3.056331e+01
    endloop
  endfacet
  facet normal 1.000000e+00 -0.000000e+00 0.000000e+00
    outer loop
      vertex   -1.400000e+01 2.284848e+02 3.305147e+01
      vertex   -1.400000e+01 2.300000e+02 3.056331e+01
      vertex   -1.400000e+01 2.300000e+02 3.354102e+01
    endloop
  endfacet
  facet normal 1.000000e+00 0.000000e+00 0.000000e+00
    outer loop
      vertex   -1.400000e+01 2.200000e+02 2.518982e+01
      vertex   -1.400000e+01 2.228423e+02 2.518982e+01
      vertex   -1.400000e+01 2.228423e+02 2.719798e+01
    endloop
  endfacet
  facet normal 0.000000e+00 -1.000000e+00 0.000000e+00
    outer loop
      vertex   -1.400000e+01 2.300000e+02 3.056331e+01
      vertex   1.400000e+01 2.300000e+02 3.056331e+01
      vertex   -1.400000e+01 2.300000e+02 3.354102e+01
    endloop
  endfacet
  facet normal 0.000000e+00 -1.000000e+00 0.000000e+00
    outer loop
      vertex   -1.400000e+01 2.300000e+02 3.354102e+01
      vertex   1.400000e+01 2.300000e+02 3.056331e+01
      vertex   1.400000e+01 2.300000e+02 3.354102e+01
    endloop
  endfacet
  facet normal -1.000000e+00 -1.959221e-15 -1.193104e-15
    outer loop
      vertex   1.400000e+01 2.300000e+02 3.354102e+01
      vertex   1.400000e+01 2.300000e+02 3.056331e+01
      vertex   1.400000e+01 2.284848e+02 3.305147e+01
    endloop
  endfacet
  facet normal -1.000000e+00 0.000000e+00 0.000000e+00
    outer loop
      vertex   1.400000e+01 2.284848e+02 3.305147e+01
      vertex   1.400000e+01 2.300000e+02 3.056331e+01
      vertex   1.400000e+01 2.287527e+02 3.012666e+01
    endloop
  endfacet
  facet normal -1.000000e+00 0.000000e+00 -0.000000e+00
    outer loop
      vertex   1.400000e+01 2.284848e+02 3.305147e+01
      vertex   1.400000e+01 2.287527e+02 3.012666e+01
      vertex   1.400000e+01 2.269934e+02 3.249352e+01
    endloop
  endfacet
  facet normal -1.000000e+00 0.000000e+00 0.000000e+00
    outer loop
      vertex   1.400000e+01 2.269934e+02 3.249352e+01
      vertex   1.400000e+01 2.287527e+02 3.012666e+01
      vertex   1.400000e+01 2.275245e+02 2.963913e+01
    endloop
  endfacet
  facet normal -1.000000e+00 0.000000e+00 -0.000000e+00
    outer loop
      vertex   1.400000e+01 2.269934e+02 3.249352e+01
      vertex   1.400000e+01 2.275245e+02 2.963913e+01
      vertex   1.400000e+01 2.255290e+02 3.186830e+01
    endloop
  endfacet
  facet normal -1.000000e+00 0.000000e+00 0.000000e+00
    outer loop
      vertex   1.400000e+01 2.255290e+02 3.186830e+01
      vertex   1.400000e+01 2.275245e+02 2.963913e+01
      vertex   1.400000e+01 2.263173e+02 2.910154e+01
    endloop
  endfacet
  facet normal -1.000000e+00 0.000000e+00 -0.000000e+00
    outer loop
      vertex   1.400000e+01 2.255290e+02 3.186830e+01
      vertex   1.400000e+01 2.263173e+02 2.910154e+01
      vertex   1.400000e+01 2.240945e+02 3.117713e+01
    endloop
  endfacet
  facet normal -1.000000e+00 0.000000e+00 0.000000e+00
    outer loop
      vertex   1.400000e+01 2.240945e+02 3.117713e+01
      vertex   1.400000e+01 2.263173e+02 2.910154e+01
      vertex   1.400000e+01 2.251332e+02 2.851482e+01
    endloop
  endfacet
  facet normal -1.000000e+00 0.000000e+00 -0.000000e+00
    outer loop
      vertex   1.400000e+01 2.240945e+02 3.117713e+01
      vertex   1.400000e+01 2.251332e+02 2.851482e+01
      vertex   1.400000e+01 2.226929e+02 3.042143e+01
    endloop
  endfacet
  facet normal -1.000000e+00 0.000000e+00 0.000000e+00
    outer loop
      vertex   1.400000e+01 2.226929e+02 3.042143e+01
      vertex   1.400000e+01 2.251332e+02 2.851482e+01
      vertex   1.400000e+01 2.239742e+02 2.787994e+01
    endloop
  endfacet
  facet normal -1.000000e+00 0.000000e+00 -0.000000e+00
    outer loop
      vertex   1.400000e+01 2.226929e+02 3.042143e+01
      vertex   1.400000e+01 2.239742e+02 2.787994e+01
      vertex   1.400000e+01 2.213271e+02 2.960275e+01
    endloop
  endfacet
  facet normal -1.000000e+00 0.000000e+00 0.000000e+00
    outer loop
      vertex   1.400000e+01 2.213271e+02 2.960275e+01
      vertex   1.400000e+01 2.239742e+02 2.787994e+01
      vertex   1.400000e+01 2.228423e+02 2.719798e+01
    endloop
  endfacet
  facet normal -1.000000e+00 1.888184e-15 1.189719e-15
    outer loop
      vertex   1.400000e+01 2.213271e+02 2.960275e+01
      vertex   1.400000e+01 2.228423e+02 2.719798e+01
      vertex   1.400000e+01 2.200000e+02 2.872281e+01
    endloop
  endfacet
  facet normal -1.000000e+00 7.104642e-16 -1.005583e-15
    outer loop
      vertex   1.400000e+01 2.200000e+02 2.872281e+01
      vertex   1.400000e+01 2.228423e+02 2.719798e+01
      vertex   1.400000e+01 2.200000e+02 2.518982e+01
    endloop
  endfacet
  facet normal -1.000000e+00 0.000000e+00 0.000000e+00
    outer loop
      vertex   1.400000e+01 2.200000e+02 2.518982e+01
      vertex   1.400000e+01 2.228423e+02 2.719798e+01
      vertex   1.400000e+01 2.228423e+02 2.518982e+01
    endloop
  endfacet
  facet normal 0.000000e+00 5.160579e-01 -8.565537e-01
    outer loop
      vertex   1.400000e+01 2.228423e+02 2.719798e+01
      vertex   1.400000e+01 2.239742e+02 2.787994e+01
      vertex   2.075000e+01 2.228423e+02 2.719798e+01
    endloop
  endfacet
  facet normal -5.680033e-04 5.135706e-01 -8.580472e-01
    outer loop
      vertex   2.075000e+01 2.228423e+02 2.719798e+01
      vertex   1.400000e+01 2.239742e+02 2.787994e+01
      vertex   2.075000e+01 2.241363e+02 2.797246e+01
    endloop
  endfacet
  facet normal 4.878129e-04 4.804307e-01 -8.770326e-01
    outer loop
      vertex   2.075000e+01 2.241363e+02 2.797246e+01
      vertex   1.400000e+01 2.239742e+02 2.787994e+01
      vertex   1.400000e+01 2.251332e+02 2.851482e+01
    endloop
  endfacet
  facet normal -9.756214e-04 4.727787e-01 -8.811806e-01
    outer loop
      vertex   2.075000e+01 2.241363e+02 2.797246e+01
      vertex   1.400000e+01 2.251332e+02 2.851482e+01
      vertex   2.075000e+01 2.254651e+02 2.868543e+01
    endloop
  endfacet
  facet normal 8.152333e-04 4.439920e-01 -8.960304e-01
    outer loop
      vertex   2.075000e+01 2.254651e+02 2.868543e+01
      vertex   1.400000e+01 2.251332e+02 2.851482e+01
      vertex   1.400000e+01 2.263173e+02 2.910154e+01
    endloop
  endfacet
  facet normal -1.222841e-03 4.309472e-01 -9.023763e-01
    outer loop
      vertex   2.075000e+01 2.254651e+02 2.868543e+01
      vertex   1.400000e+01 2.263173e+02 2.910154e+01
      vertex   2.075000e+01 2.268259e+02 2.933531e+01
    endloop
  endfacet
  facet normal 9.822503e-04 4.068037e-01 -9.135151e-01
    outer loop
      vertex   2.075000e+01 2.268259e+02 2.933531e+01
      vertex   1.400000e+01 2.263173e+02 2.910154e+01
      vertex   1.400000e+01 2.275245e+02 2.963913e+01
    endloop
  endfacet
  facet normal -1.309654e-03 3.881681e-01 -9.215876e-01
    outer loop
      vertex   2.075000e+01 2.268259e+02 2.933531e+01
      vertex   1.400000e+01 2.275245e+02 2.963913e+01
      vertex   2.075000e+01 2.282157e+02 2.992068e+01
    endloop
  endfacet
  facet normal 9.888584e-04 3.689284e-01 -9.294573e-01
    outer loop
      vertex   2.075000e+01 2.282157e+02 2.992068e+01
      vertex   1.400000e+01 2.275245e+02 2.963913e+01
      vertex   1.400000e+01 2.287527e+02 3.012666e+01
    endloop
  endfacet
  facet normal -1.236057e-03 3.445354e-01 -9.387725e-01
    outer loop
      vertex   2.075000e+01 2.282157e+02 2.992068e+01
      vertex   1.400000e+01 2.287527e+02 3.012666e+01
      vertex   2.075000e+01 2.296314e+02 3.044025e+01
    endloop
  endfacet
  facet normal 8.350575e-04 3.304302e-01 -9.438301e-01
    outer loop
      vertex   2.075000e+01 2.296314e+02 3.044025e+01
      vertex   1.400000e+01 2.287527e+02 3.012666e+01
      vertex   1.400000e+01 2.300000e+02 3.056331e+01
    endloop
  endfacet
  facet normal -1.002053e-03 3.001451e-01 -9.538930e-01
    outer loop
      vertex   2.075000e+01 2.296314e+02 3.044025e+01
      vertex   1.400000e+01 2.300000e+02 3.056331e+01
      vertex   2.075000e+01 2.310699e+02 3.089288e+01
    endloop
  endfacet
  facet normal 0.000000e+00 2.943767e-01 -9.556895e-01
    outer loop
      vertex   2.075000e+01 2.310699e+02 3.089288e+01
      vertex   1.400000e+01 2.300000e+02 3.056331e+01
      vertex   -4.440892e-15 2.310699e+02 3.089288e+01
    endloop
  endfacet
  facet normal 0.000000e+00 2.550948e-01 -9.669160e-01
    outer loop
      vertex   2.075000e+01 2.310699e+02 3.089288e+01
      vertex   -4.440892e-15 2.310699e+02 3.089288e+01
      vertex   2.075000e+01 2.325281e+02 3.127757e+01
    endloop
  endfacet
  facet normal -3.311013e-16 2.550948e-01 -9.669160e-01
    outer loop
      vertex   2.075000e+01 2.325281e+02 3.127757e+01
      vertex   -4.440892e-15 2.310699e+02 3.089288e+01
      vertex   -4.440892e-15 2.325281e+02 3.127757e+01
    endloop
  endfacet
  facet normal -3.348325e-16 2.094833e-01 -9.778122e-01
    outer loop
      vertex   2.075000e+01 2.325281e+02 3.127757e+01
      vertex   -4.440892e-15 2.325281e+02 3.127757e+01
      vertex   2.075000e+01 2.340026e+02 3.159348e+01
    endloop
  endfacet
  facet normal 0.000000e+00 2.094833e-01 -9.778122e-01
    outer loop
      vertex   2.075000e+01 2.340026e+02 3.159348e+01
      vertex   -4.440892e-15 2.325281e+02 3.127757e+01
      vertex   -4.440892e-15 2.340026e+02 3.159348e+01
    endloop
  endfacet
  facet normal 0.000000e+00 1.634112e-01 -9.865580e-01
    outer loop
      vertex   2.075000e+01 2.340026e+02 3.159348e+01
      vertex   -4.440892e-15 2.340026e+02 3.159348e+01
      vertex   2.075000e+01 2.354904e+02 3.183991e+01
    endloop
  endfacet
  facet normal -2.238277e-16 1.634112e-01 -9.865580e-01
    outer loop
      vertex   2.075000e+01 2.354904e+02 3.183991e+01
      vertex   -4.440892e-15 2.340026e+02 3.159348e+01
      vertex   -4.440892e-15 2.354904e+02 3.183991e+01
    endloop
  endfacet
  facet normal -1.602295e-16 1.169797e-01 -9.931343e-01
    outer loop
      vertex   2.075000e+01 2.354904e+02 3.183991e+01
      vertex   -4.440892e-15 2.354904e+02 3.183991e+01
      vertex   2.075000e+01 2.369881e+02 3.201632e+01
    endloop
  endfacet
  facet normal 0.000000e+00 1.169797e-01 -9.931343e-01
    outer loop
      vertex   2.075000e+01 2.369881e+02 3.201632e+01
      vertex   -4.440892e-15 2.354904e+02 3.183991e+01
      vertex   -4.440892e-15 2.369881e+02 3.201632e+01
    endloop
  endfacet
  facet normal 0.000000e+00 7.029093e-02 -9.975265e-01
    outer loop
      vertex   2.075000e+01 2.369881e+02 3.201632e+01
      vertex   -4.440892e-15 2.369881e+02 3.201632e+01
      vertex   2.075000e+01 2.384924e+02 3.212232e+01
    endloop
  endfacet
  facet normal 0.000000e+00 7.029093e-02 -9.975265e-01
    outer loop
      vertex   2.075000e+01 2.384924e+02 3.212232e+01
      vertex   -4.440892e-15 2.369881e+02 3.201632e+01
      vertex   -4.440892e-15 2.384924e+02 3.212232e+01
    endloop
  endfacet
  facet normal 0.000000e+00 2.344759e-02 -9.997251e-01
    outer loop
      vertex   2.075000e+01 2.384924e+02 3.212232e+01
      vertex   -4.440892e-15 2.384924e+02 3.212232e+01
      vertex   2.075000e+01 2.400000e+02 3.215768e+01
    endloop
  endfacet
  facet normal 0.000000e+00 2.344759e-02 -9.997251e-01
    outer loop
      vertex   2.075000e+01 2.400000e+02 3.215768e+01
      vertex   -4.440892e-15 2.384924e+02 3.212232e+01
      vertex   -4.440892e-15 2.400000e+02 3.215768e+01
    endloop
  endfacet
  facet normal -0.000000e+00 -2.344732e-02 -9.997251e-01
    outer loop
      vertex   2.075000e+01 2.400000e+02 3.215768e+01
      vertex   -4.440892e-15 2.400000e+02 3.215768e+01
      vertex   2.075000e+01 2.415076e+02 3.212232e+01
    endloop
  endfacet
  facet normal -0.000000e+00 -2.344732e-02 -9.997251e-01
    outer loop
      vertex   2.075000e+01 2.415076e+02 3.212232e+01
      vertex   -4.440892e-15 2.400000e+02 3.215768e+01
      vertex   -4.440892e-15 2.415076e+02 3.212232e+01
    endloop
  endfacet
  facet normal -0.000000e+00 -7.029067e-02 -9.975266e-01
    outer loop
      vertex   2.075000e+01 2.415076e+02 3.212232e+01
      vertex   -4.440892e-15 2.415076e+02 3.212232e+01
      vertex   2.075000e+01 2.430119e+02 3.201632e+01
    endloop
  endfacet
  facet normal -3.415833e-16 -7.029067e-02 -9.975266e-01
    outer loop
      vertex   2.075000e+01 2.430119e+02 3.201632e+01
      vertex   -4.440892e-15 2.415076e+02 3.212232e+01
      vertex   -4.440892e-15 2.430119e+02 3.201632e+01
    endloop
  endfacet
  facet normal -3.400792e-16 -1.169794e-01 -9.931343e-01
    outer loop
      vertex   2.075000e+01 2.430119e+02 3.201632e+01
      vertex   -4.440892e-15 2.430119e+02 3.201632e+01
      vertex   2.075000e+01 2.445096e+02 3.183991e+01
    endloop
  endfacet
  facet normal -0.000000e+00 -1.169794e-01 -9.931343e-01
    outer loop
      vertex   2.075000e+01 2.445096e+02 3.183991e+01
      vertex   -4.440892e-15 2.430119e+02 3.201632e+01
      vertex   -4.440892e-15 2.445096e+02 3.183991e+01
    endloop
  endfacet
  facet normal -0.000000e+00 -1.634109e-01 -9.865581e-01
    outer loop
      vertex   2.075000e+01 2.445096e+02 3.183991e+01
      vertex   -4.440892e-15 2.445096e+02 3.183991e+01
      vertex   2.075000e+01 2.459974e+02 3.159348e+01
    endloop
  endfacet
  facet normal 4.476548e-16 -1.634109e-01 -9.865581e-01
    outer loop
      vertex   2.075000e+01 2.459974e+02 3.159348e+01
      vertex   -4.440892e-15 2.445096e+02 3.183991e+01
      vertex   -4.440892e-15 2.459974e+02 3.159348e+01
    endloop
  endfacet
  facet normal 5.738668e-16 -2.094831e-01 -9.778123e-01
    outer loop
      vertex   2.075000e+01 2.459974e+02 3.159348e+01
      vertex   -4.440892e-15 2.459974e+02 3.159348e+01
      vertex   2.075000e+01 2.474719e+02 3.127757e+01
    endloop
  endfacet
  facet normal -0.000000e+00 -2.094831e-01 -9.778123e-01
    outer loop
      vertex   2.075000e+01 2.474719e+02 3.127757e+01
      vertex   -4.440892e-15 2.459974e+02 3.159348e+01
      vertex   -4.440892e-15 2.474719e+02 3.127757e+01
    endloop
  endfacet
  facet normal -0.000000e+00 -2.550946e-01 -9.669161e-01
    outer loop
      vertex   2.075000e+01 2.474719e+02 3.127757e+01
      vertex   -4.440892e-15 2.474719e+02 3.127757e+01
      vertex   2.075000e+01 2.489301e+02 3.089288e+01
    endloop
  endfacet
  facet normal -3.311013e-16 -2.550946e-01 -9.669161e-01
    outer loop
      vertex   2.075000e+01 2.489301e+02 3.089288e+01
      vertex   -4.440892e-15 2.474719e+02 3.127757e+01
      vertex   -4.440892e-15 2.489301e+02 3.089288e+01
    endloop
  endfacet
  facet normal -3.266420e-16 -3.001450e-01 -9.538936e-01
    outer loop
      vertex   2.075000e+01 2.489301e+02 3.089288e+01
      vertex   -4.440892e-15 2.489301e+02 3.089288e+01
      vertex   2.075000e+01 2.503686e+02 3.044025e+01
    endloop
  endfacet
  facet normal -0.000000e+00 -3.001450e-01 -9.538936e-01
    outer loop
      vertex   2.075000e+01 2.503686e+02 3.044025e+01
      vertex   -4.440892e-15 2.489301e+02 3.089288e+01
      vertex   -4.440892e-15 2.503686e+02 3.044025e+01
    endloop
  endfacet
  facet normal -0.000000e+00 -3.445355e-01 -9.387733e-01
    outer loop
      vertex   2.075000e+01 2.503686e+02 3.044025e+01
      vertex   -4.440892e-15 2.503686e+02 3.044025e+01
      vertex   2.075000e+01 2.517843e+02 2.992068e+01
    endloop
  endfacet
  facet normal -0.000000e+00 -3.445355e-01 -9.387733e-01
    outer loop
      vertex   2.075000e+01 2.517843e+02 2.992068e+01
      vertex   -4.440892e-15 2.503686e+02 3.044025e+01
      vertex   -4.440892e-15 2.517843e+02 2.992068e+01
    endloop
  endfacet
  facet normal -0.000000e+00 -3.881682e-01 -9.215885e-01
    outer loop
      vertex   2.075000e+01 2.517843e+02 2.992068e+01
      vertex   -4.440892e-15 2.517843e+02 2.992068e+01
      vertex   2.075000e+01 2.531741e+02 2.933531e+01
    endloop
  endfacet
  facet normal 1.577899e-16 -3.881682e-01 -9.215885e-01
    outer loop
      vertex   2.075000e+01 2.531741e+02 2.933531e+01
      vertex   -4.440892e-15 2.517843e+02 2.992068e+01
      vertex   -4.440892e-15 2.531741e+02 2.933531e+01
    endloop
  endfacet
  facet normal 1.545006e-16 -4.309473e-01 -9.023771e-01
    outer loop
      vertex   2.075000e+01 2.531741e+02 2.933531e+01
      vertex   -4.440892e-15 2.531741e+02 2.933531e+01
      vertex   2.075000e+01 2.545349e+02 2.868543e+01
    endloop
  endfacet
  facet normal -3.090012e-16 -4.309473e-01 -9.023771e-01
    outer loop
      vertex   2.075000e+01 2.545349e+02 2.868543e+01
      vertex   -4.440892e-15 2.531741e+02 2.933531e+01
      vertex   -4.440892e-15 2.545349e+02 2.868543e+01
    endloop
  endfacet
  facet normal -3.017431e-16 -4.727787e-01 -8.811812e-01
    outer loop
      vertex   2.075000e+01 2.545349e+02 2.868543e+01
      vertex   -4.440892e-15 2.545349e+02 2.868543e+01
      vertex   2.075000e+01 2.558637e+02 2.797247e+01
    endloop
  endfacet
  facet normal 3.017431e-16 -4.727787e-01 -8.811812e-01
    outer loop
      vertex   2.075000e+01 2.558637e+02 2.797247e+01
      vertex   -4.440892e-15 2.545349e+02 2.868543e+01
      vertex   -4.440892e-15 2.558637e+02 2.797247e+01
    endloop
  endfacet
  facet normal 2.938214e-16 -5.135704e-01 -8.580474e-01
    outer loop
      vertex   2.075000e+01 2.558637e+02 2.797247e+01
      vertex   -4.440892e-15 2.558637e+02 2.797247e+01
      vertex   2.075000e+01 2.571577e+02 2.719799e+01
    endloop
  endfacet
  facet normal -0.000000e+00 -5.135704e-01 -8.580474e-01
    outer loop
      vertex   2.075000e+01 2.571577e+02 2.719799e+01
      vertex   -4.440892e-15 2.558637e+02 2.797247e+01
      vertex   -2.075000e+01 2.571577e+02 2.719799e+01
    endloop
  endfacet
  facet normal -2.980308e-16 -5.135704e-01 -8.580474e-01
    outer loop
      vertex   -2.075000e+01 2.571577e+02 2.719799e+01
      vertex   -4.440892e-15 2.558637e+02 2.797247e+01
      vertex   -2.075000e+01 2.558637e+02 2.797247e+01
    endloop
  endfacet
  facet normal -3.017431e-16 -4.727787e-01 -8.811812e-01
    outer loop
      vertex   -2.075000e+01 2.558637e+02 2.797247e+01
      vertex   -4.440892e-15 2.558637e+02 2.797247e+01
      vertex   -2.075000e+01 2.545349e+02 2.868543e+01
    endloop
  endfacet
  facet normal 0.000000e+00 -4.727787e-01 -8.811812e-01
    outer loop
      vertex   -2.075000e+01 2.545349e+02 2.868543e+01
      vertex   -4.440892e-15 2.558637e+02 2.797247e+01
      vertex   -4.440892e-15 2.545349e+02 2.868543e+01
    endloop
  endfacet
  facet normal 0.000000e+00 -4.309473e-01 -9.023771e-01
    outer loop
      vertex   -2.075000e+01 2.545349e+02 2.868543e+01
      vertex   -4.440892e-15 2.545349e+02 2.868543e+01
      vertex   -2.075000e+01 2.531741e+02 2.933531e+01
    endloop
  endfacet
  facet normal -1.545006e-16 -4.309473e-01 -9.023771e-01
    outer loop
      vertex   -2.075000e+01 2.531741e+02 2.933531e+01
      vertex   -4.440892e-15 2.545349e+02 2.868543e+01
      vertex   -4.440892e-15 2.531741e+02 2.933531e+01
    endloop
  endfacet
  facet normal -1.577899e-16 -3.881682e-01 -9.215885e-01
    outer loop
      vertex   -2.075000e+01 2.531741e+02 2.933531e+01
      vertex   -4.440892e-15 2.531741e+02 2.933531e+01
      vertex   -2.075000e+01 2.517843e+02 2.992068e+01
    endloop
  endfacet
  facet normal 0.000000e+00 -3.881682e-01 -9.215885e-01
    outer loop
      vertex   -2.075000e+01 2.517843e+02 2.992068e+01
      vertex   -4.440892e-15 2.531741e+02 2.933531e+01
      vertex   -4.440892e-15 2.517843e+02 2.992068e+01
    endloop
  endfacet
  facet normal 0.000000e+00 -3.445355e-01 -9.387733e-01
    outer loop
      vertex   -2.075000e+01 2.517843e+02 2.992068e+01
      vertex   -4.440892e-15 2.517843e+02 2.992068e+01
      vertex   -2.075000e+01 2.503686e+02 3.044025e+01
    endloop
  endfacet
  facet normal 0.000000e+00 -3.445355e-01 -9.387733e-01
    outer loop
      vertex   -2.075000e+01 2.503686e+02 3.044025e+01
      vertex   -4.440892e-15 2.517843e+02 2.992068e+01
      vertex   -4.440892e-15 2.503686e+02 3.044025e+01
    endloop
  endfacet
  facet normal 0.000000e+00 -3.001450e-01 -9.538936e-01
    outer loop
      vertex   -2.075000e+01 2.503686e+02 3.044025e+01
      vertex   -4.440892e-15 2.503686e+02 3.044025e+01
      vertex   -2.075000e+01 2.489301e+02 3.089288e+01
    endloop
  endfacet
  facet normal 3.266420e-16 -3.001450e-01 -9.538936e-01
    outer loop
      vertex   -2.075000e+01 2.489301e+02 3.089288e+01
      vertex   -4.440892e-15 2.503686e+02 3.044025e+01
      vertex   -4.440892e-15 2.489301e+02 3.089288e+01
    endloop
  endfacet
  facet normal 3.311013e-16 -2.550946e-01 -9.669161e-01
    outer loop
      vertex   -2.075000e+01 2.489301e+02 3.089288e+01
      vertex   -4.440892e-15 2.489301e+02 3.089288e+01
      vertex   -2.075000e+01 2.474719e+02 3.127757e+01
    endloop
  endfacet
  facet normal 0.000000e+00 -2.550946e-01 -9.669161e-01
    outer loop
      vertex   -2.075000e+01 2.474719e+02 3.127757e+01
      vertex   -4.440892e-15 2.489301e+02 3.089288e+01
      vertex   -4.440892e-15 2.474719e+02 3.127757e+01
    endloop
  endfacet
  facet normal 0.000000e+00 -2.094831e-01 -9.778123e-01
    outer loop
      vertex   -2.075000e+01 2.474719e+02 3.127757e+01
      vertex   -4.440892e-15 2.474719e+02 3.127757e+01
      vertex   -2.075000e+01 2.459974e+02 3.159348e+01
    endloop
  endfacet
  facet normal -1.674162e-16 -2.094831e-01 -9.778123e-01
    outer loop
      vertex   -2.075000e+01 2.459974e+02 3.159348e+01
      vertex   -4.440892e-15 2.474719e+02 3.127757e+01
      vertex   -4.440892e-15 2.459974e+02 3.159348e+01
    endloop
  endfacet
  facet normal -1.689137e-16 -1.634109e-01 -9.865581e-01
    outer loop
      vertex   -2.075000e+01 2.459974e+02 3.159348e+01
      vertex   -4.440892e-15 2.459974e+02 3.159348e+01
      vertex   -2.075000e+01 2.445096e+02 3.183991e+01
    endloop
  endfacet
  facet normal -1.689137e-16 -1.634109e-01 -9.865581e-01
    outer loop
      vertex   -2.075000e+01 2.445096e+02 3.183991e+01
      vertex   -4.440892e-15 2.459974e+02 3.159348e+01
      vertex   -4.440892e-15 2.445096e+02 3.183991e+01
    endloop
  endfacet
  facet normal -1.700396e-16 -1.169794e-01 -9.931343e-01
    outer loop
      vertex   -2.075000e+01 2.445096e+02 3.183991e+01
      vertex   -4.440892e-15 2.445096e+02 3.183991e+01
      vertex   -2.075000e+01 2.430119e+02 3.201632e+01
    endloop
  endfacet
  facet normal 3.400792e-16 -1.169794e-01 -9.931343e-01
    outer loop
      vertex   -2.075000e+01 2.430119e+02 3.201632e+01
      vertex   -4.440892e-15 2.445096e+02 3.183991e+01
      vertex   -4.440892e-15 2.430119e+02 3.201632e+01
    endloop
  endfacet
  facet normal 3.415833e-16 -7.029067e-02 -9.975266e-01
    outer loop
      vertex   -2.075000e+01 2.430119e+02 3.201632e+01
      vertex   -4.440892e-15 2.430119e+02 3.201632e+01
      vertex   -2.075000e+01 2.415076e+02 3.212232e+01
    endloop
  endfacet
  facet normal 0.000000e+00 -7.029067e-02 -9.975266e-01
    outer loop
      vertex   -2.075000e+01 2.415076e+02 3.212232e+01
      vertex   -4.440892e-15 2.430119e+02 3.201632e+01
      vertex   -4.440892e-15 2.415076e+02 3.212232e+01
    endloop
  endfacet
  facet normal 0.000000e+00 -2.344732e-02 -9.997251e-01
    outer loop
      vertex   -2.075000e+01 2.415076e+02 3.212232e+01
      vertex   -4.440892e-15 2.415076e+02 3.212232e+01
      vertex   -2.075000e+01 2.400000e+02 3.215768e+01
    endloop
  endfacet
  facet normal 0.000000e+00 -2.344732e-02 -9.997251e-01
    outer loop
      vertex   -2.075000e+01 2.400000e+02 3.215768e+01
      vertex   -4.440892e-15 2.415076e+02 3.212232e+01
      vertex   -4.440892e-15 2.400000e+02 3.215768e+01
    endloop
  endfacet
  facet normal 0.000000e+00 2.344759e-02 -9.997251e-01
    outer loop
      vertex   -2.075000e+01 2.400000e+02 3.215768e+01
      vertex   -4.440892e-15 2.400000e+02 3.215768e+01
      vertex   -2.075000e+01 2.384924e+02 3.212232e+01
    endloop
  endfacet
  facet normal 3.423361e-16 2.344759e-02 -9.997251e-01
    outer loop
      vertex   -2.075000e+01 2.384924e+02 3.212232e+01
      vertex   -4.440892e-15 2.400000e+02 3.215768e+01
      vertex   -4.440892e-15 2.384924e+02 3.212232e+01
    endloop
  endfacet
  facet normal 3.415832e-16 7.029093e-02 -9.975265e-01
    outer loop
      vertex   -2.075000e+01 2.384924e+02 3.212232e+01
      vertex   -4.440892e-15 2.384924e+02 3.212232e+01
      vertex   -2.075000e+01 2.369881e+02 3.201632e+01
    endloop
  endfacet
  facet normal 0.000000e+00 7.029093e-02 -9.975265e-01
    outer loop
      vertex   -2.075000e+01 2.369881e+02 3.201632e+01
      vertex   -4.440892e-15 2.384924e+02 3.212232e+01
      vertex   -4.440892e-15 2.369881e+02 3.201632e+01
    endloop
  endfacet
  facet normal 0.000000e+00 1.169797e-01 -9.931343e-01
    outer loop
      vertex   -2.075000e+01 2.369881e+02 3.201632e+01
      vertex   -4.440892e-15 2.369881e+02 3.201632e+01
      vertex   -2.075000e+01 2.354904e+02 3.183991e+01
    endloop
  endfacet
  facet normal 0.000000e+00 1.169797e-01 -9.931343e-01
    outer loop
      vertex   -2.075000e+01 2.354904e+02 3.183991e+01
      vertex   -4.440892e-15 2.369881e+02 3.201632e+01
      vertex   -4.440892e-15 2.354904e+02 3.183991e+01
    endloop
  endfacet
  facet normal 0.000000e+00 1.634112e-01 -9.865580e-01
    outer loop
      vertex   -2.075000e+01 2.354904e+02 3.183991e+01
      vertex   -4.440892e-15 2.354904e+02 3.183991e+01
      vertex   -2.075000e+01 2.340026e+02 3.159348e+01
    endloop
  endfacet
  facet normal 0.000000e+00 1.634112e-01 -9.865580e-01
    outer loop
      vertex   -2.075000e+01 2.340026e+02 3.159348e+01
      vertex   -4.440892e-15 2.354904e+02 3.183991e+01
      vertex   -4.440892e-15 2.340026e+02 3.159348e+01
    endloop
  endfacet
  facet normal 0.000000e+00 2.094833e-01 -9.778122e-01
    outer loop
      vertex   -2.075000e+01 2.340026e+02 3.159348e+01
      vertex   -4.440892e-15 2.340026e+02 3.159348e+01
      vertex   -2.075000e+01 2.325281e+02 3.127757e+01
    endloop
  endfacet
  facet normal 3.348325e-16 2.094833e-01 -9.778122e-01
    outer loop
      vertex   -2.075000e+01 2.325281e+02 3.127757e+01
      vertex   -4.440892e-15 2.340026e+02 3.159348e+01
      vertex   -4.440892e-15 2.325281e+02 3.127757e+01
    endloop
  endfacet
  facet normal 3.311013e-16 2.550948e-01 -9.669160e-01
    outer loop
      vertex   -2.075000e+01 2.325281e+02 3.127757e+01
      vertex   -4.440892e-15 2.325281e+02 3.127757e+01
      vertex   -2.075000e+01 2.310699e+02 3.089288e+01
    endloop
  endfacet
  facet normal 0.000000e+00 2.550948e-01 -9.669160e-01
    outer loop
      vertex   -2.075000e+01 2.310699e+02 3.089288e+01
      vertex   -4.440892e-15 2.325281e+02 3.127757e+01
      vertex   -4.440892e-15 2.310699e+02 3.089288e+01
    endloop
  endfacet
  facet normal 0.000000e+00 2.943767e-01 -9.556895e-01
    outer loop
      vertex   -2.075000e+01 2.310699e+02 3.089288e+01
      vertex   -4.440892e-15 2.310699e+02 3.089288e+01
      vertex   -1.400000e+01 2.300000e+02 3.056331e+01
    endloop
  endfacet
  facet normal 0.000000e+00 2.943767e-01 -9.556895e-01
    outer loop
      vertex   -1.400000e+01 2.300000e+02 3.056331e+01
      vertex   -4.440892e-15 2.310699e+02 3.089288e+01
      vertex   1.400000e+01 2.300000e+02 3.056331e+01
    endloop
  endfacet
  facet normal 1.002053e-03 3.001451e-01 -9.538930e-01
    outer loop
      vertex   -2.075000e+01 2.310699e+02 3.089288e+01
      vertex   -1.400000e+01 2.300000e+02 3.056331e+01
      vertex   -2.075000e+01 2.296314e+02 3.044025e+01
    endloop
  endfacet
  facet normal -8.350575e-04 3.304302e-01 -9.438301e-01
    outer loop
      vertex   -2.075000e+01 2.296314e+02 3.044025e+01
      vertex   -1.400000e+01 2.300000e+02 3.056331e+01
      vertex   -1.400000e+01 2.287527e+02 3.012666e+01
    endloop
  endfacet
  facet normal 1.236057e-03 3.445354e-01 -9.387725e-01
    outer loop
      vertex   -2.075000e+01 2.296314e+02 3.044025e+01
      vertex   -1.400000e+01 2.287527e+02 3.012666e+01
      vertex   -2.075000e+01 2.282157e+02 2.992068e+01
    endloop
  endfacet
  facet normal -9.888584e-04 3.689284e-01 -9.294573e-01
    outer loop
      vertex   -2.075000e+01 2.282157e+02 2.992068e+01
      vertex   -1.400000e+01 2.287527e+02 3.012666e+01
      vertex   -1.400000e+01 2.275245e+02 2.963913e+01
    endloop
  endfacet
  facet normal 1.309654e-03 3.881681e-01 -9.215876e-01
    outer loop
      vertex   -2.075000e+01 2.282157e+02 2.992068e+01
      vertex   -1.400000e+01 2.275245e+02 2.963913e+01
      vertex   -2.075000e+01 2.268259e+02 2.933531e+01
    endloop
  endfacet
  facet normal -9.822503e-04 4.068037e-01 -9.135151e-01
    outer loop
      vertex   -2.075000e+01 2.268259e+02 2.933531e+01
      vertex   -1.400000e+01 2.275245e+02 2.963913e+01
      vertex   -1.400000e+01 2.263173e+02 2.910154e+01
    endloop
  endfacet
  facet normal 1.222841e-03 4.309472e-01 -9.023763e-01
    outer loop
      vertex   -2.075000e+01 2.268259e+02 2.933531e+01
      vertex   -1.400000e+01 2.263173e+02 2.910154e+01
      vertex   -2.075000e+01 2.254651e+02 2.868543e+01
    endloop
  endfacet
  facet normal -8.152333e-04 4.439920e-01 -8.960304e-01
    outer loop
      vertex   -2.075000e+01 2.254651e+02 2.868543e+01
      vertex   -1.400000e+01 2.263173e+02 2.910154e+01
      vertex   -1.400000e+01 2.251332e+02 2.851482e+01
    endloop
  endfacet
  facet normal 9.756214e-04 4.727787e-01 -8.811806e-01
    outer loop
      vertex   -2.075000e+01 2.254651e+02 2.868543e+01
      vertex   -1.400000e+01 2.251332e+02 2.851482e+01
      vertex   -2.075000e+01 2.241363e+02 2.797246e+01
    endloop
  endfacet
  facet normal -4.878129e-04 4.804307e-01 -8.770326e-01
    outer loop
      vertex   -2.075000e+01 2.241363e+02 2.797246e+01
      vertex   -1.400000e+01 2.251332e+02 2.851482e+01
      vertex   -1.400000e+01 2.239742e+02 2.787994e+01
    endloop
  endfacet
  facet normal 5.680033e-04 5.135706e-01 -8.580472e-01
    outer loop
      vertex   -2.075000e+01 2.241363e+02 2.797246e+01
      vertex   -1.400000e+01 2.239742e+02 2.787994e+01
      vertex   -2.075000e+01 2.228423e+02 2.719798e+01
    endloop
  endfacet
  facet normal 0.000000e+00 5.160579e-01 -8.565537e-01
    outer loop
      vertex   -2.075000e+01 2.228423e+02 2.719798e+01
      vertex   -1.400000e+01 2.239742e+02 2.787994e+01
      vertex   -1.400000e+01 2.228423e+02 2.719798e+01
    endloop
  endfacet
  facet normal 0.000000e+00 1.000000e+00 0.000000e+00
    outer loop
      vertex   -1.400000e+01 2.228423e+02 2.719798e+01
      vertex   -1.400000e+01 2.228423e+02 2.518982e+01
      vertex   -2.075000e+01 2.228423e+02 2.719798e+01
    endloop
  endfacet
  facet normal 0.000000e+00 1.000000e+00 0.000000e+00
    outer loop
      vertex   -2.075000e+01 2.228423e+02 2.719798e+01
      vertex   -1.400000e+01 2.228423e+02 2.518982e+01
      vertex   -2.075000e+01 2.228423e+02 2.518982e+01
    endloop
  endfacet
  facet normal -0.000000e+00 -0.000000e+00 -1.000000e+00
    outer loop
      vertex   -1.400000e+01 2.228423e+02 2.518982e+01
      vertex   -1.400000e+01 2.200000e+02 2.518982e+01
      vertex   -2.075000e+01 2.228423e+02 2.518982e+01
    endloop
  endfacet
  facet normal 0.000000e+00 0.000000e+00 -1.000000e+00
    outer loop
      vertex   -2.075000e+01 2.228423e+02 2.518982e+01
      vertex   -1.400000e+01 2.200000e+02 2.518982e+01
      vertex   -2.075000e+01 2.200000e+02 2.518982e+01
    endloop
  endfacet
  facet normal 0.000000e+00 -1.000000e+00 0.000000e+00
    outer loop
      vertex   -1.400000e+01 2.200000e+02 2.518982e+01
      vertex   -1.400000e+01 2.200000e+02 2.872281e+01
      vertex   -2.075000e+01 2.200000e+02 2.518982e+01
    endloop
  endfacet
  facet normal 0.000000e+00 -1.000000e+00 0.000000e+00
    outer loop
      vertex   -2.075000e+01 2.200000e+02 2.518982e+01
      vertex   -1.400000e+01 2.200000e+02 2.872281e+01
      vertex   -2.075000e+01 2.200000e+02 2.872281e+01
    endloop
  endfacet
  facet normal 0.000000e+00 -1.000000e+00 0.000000e+00
    outer loop
      vertex   -2.075000e+01 2.571577e+02 2.719799e+01
      vertex   -2.075000e+01 2.571577e+02 2.518982e+01
      vertex   2.075000e+01 2.571577e+02 2.719799e+01
    endloop
  endfacet
  facet normal 0.000000e+00 -1.000000e+00 -0.000000e+00
    outer loop
      vertex   2.075000e+01 2.571577e+02 2.719799e+01
      vertex   -2.075000e+01 2.571577e+02 2.518982e+01
      vertex   2.075000e+01 2.571577e+02 2.518982e+01
    endloop
  endfacet
  facet normal 0.000000e+00 1.000000e+00 0.000000e+00
    outer loop
      vertex   1.400000e+01 2.228423e+02 2.518982e+01
      vertex   1.400000e+01 2.228423e+02 2.719798e+01
      vertex   2.075000e+01 2.228423e+02 2.518982e+01
    endloop
  endfacet
  facet normal 0.000000e+00 1.000000e+00 -0.000000e+00
    outer loop
      vertex   2.075000e+01 2.228423e+02 2.518982e+01
      vertex   1.400000e+01 2.228423e+02 2.719798e+01
      vertex   2.075000e+01 2.228423e+02 2.719798e+01
    endloop
  endfacet
  facet normal 0.000000e+00 0.000000e+00 -1.000000e+00
    outer loop
      vertex   1.400000e+01 2.200000e+02 2.518982e+01
      vertex   1.400000e+01 2.228423e+02 2.518982e+01
      vertex   2.075000e+01 2.200000e+02 2.518982e+01
    endloop
  endfacet
  facet normal 0.000000e+00 0.000000e+00 -1.000000e+00
    outer loop
      vertex   2.075000e+01 2.200000e+02 2.518982e+01
      vertex   1.400000e+01 2.228423e+02 2.518982e+01
      vertex   2.075000e+01 2.228423e+02 2.518982e+01
    endloop
  endfacet
  facet normal 0.000000e+00 -1.000000e+00 0.000000e+00
    outer loop
      vertex   1.400000e+01 2.200000e+02 2.872281e+01
      vertex   1.400000e+01 2.200000e+02 2.518982e+01
      vertex   2.075000e+01 2.200000e+02 2.872281e+01
    endloop
  endfacet
  facet normal 0.000000e+00 -1.000000e+00 -0.000000e+00
    outer loop
      vertex   2.075000e+01 2.200000e+02 2.872281e+01
      vertex   1.400000e+01 2.200000e+02 2.518982e+01
      vertex   2.075000e+01 2.200000e+02 2.518982e+01
    endloop
  endfacet
  facet normal -2.831208e-05 -3.074398e-01 9.515675e-01
    outer loop
      vertex   1.400000e+01 2.284848e+02 3.305147e+01
      vertex   2.075000e+01 2.299919e+02 3.353861e+01
      vertex   1.400000e+01 2.300000e+02 3.354102e+01
    endloop
  endfacet
  facet normal 2.829051e-05 -2.640905e-01 9.644979e-01
    outer loop
      vertex   1.400000e+01 2.300000e+02 3.354102e+01
      vertex   2.075000e+01 2.299919e+02 3.353861e+01
      vertex   2.075000e+01 2.315265e+02 3.395881e+01
    endloop
  endfacet
  facet normal -3.313023e-16 -2.639741e-01 9.645298e-01
    outer loop
      vertex   1.400000e+01 2.300000e+02 3.354102e+01
      vertex   2.075000e+01 2.315265e+02 3.395881e+01
      vertex   0.000000e+00 2.315265e+02 3.395881e+01
    endloop
  endfacet
  facet normal -3.340420e-16 -2.199821e-01 9.755039e-01
    outer loop
      vertex   0.000000e+00 2.315265e+02 3.395881e+01
      vertex   2.075000e+01 2.315265e+02 3.395881e+01
      vertex   0.000000e+00 2.330787e+02 3.430883e+01
    endloop
  endfacet
  facet normal -3.329069e-16 -2.199821e-01 9.755039e-01
    outer loop
      vertex   0.000000e+00 2.315265e+02 3.395881e+01
      vertex   0.000000e+00 2.330787e+02 3.430883e+01
      vertex   -2.075000e+01 2.330787e+02 3.430883e+01
    endloop
  endfacet
  facet normal -3.371205e-16 -1.754191e-01 9.844938e-01
    outer loop
      vertex   -2.075000e+01 2.330787e+02 3.430883e+01
      vertex   0.000000e+00 2.330787e+02 3.430883e+01
      vertex   -2.075000e+01 2.346451e+02 3.458794e+01
    endloop
  endfacet
  facet normal 3.371205e-16 -1.754191e-01 9.844938e-01
    outer loop
      vertex   -2.075000e+01 2.346451e+02 3.458794e+01
      vertex   0.000000e+00 2.330787e+02 3.430883e+01
      vertex   0.000000e+00 2.346451e+02 3.458794e+01
    endloop
  endfacet
  facet normal 3.395022e-16 -1.304936e-01 9.914492e-01
    outer loop
      vertex   -2.075000e+01 2.346451e+02 3.458794e+01
      vertex   0.000000e+00 2.346451e+02 3.458794e+01
      vertex   -2.075000e+01 2.362227e+02 3.479557e+01
    endloop
  endfacet
  facet normal 0.000000e+00 -1.304936e-01 9.914492e-01
    outer loop
      vertex   -2.075000e+01 2.362227e+02 3.479557e+01
      vertex   0.000000e+00 2.346451e+02 3.458794e+01
      vertex   0.000000e+00 2.362227e+02 3.479557e+01
    endloop
  endfacet
  facet normal 0.000000e+00 -8.529839e-02 9.963555e-01
    outer loop
      vertex   -2.075000e+01 2.362227e+02 3.479557e+01
      vertex   0.000000e+00 2.362227e+02 3.479557e+01
      vertex   -2.075000e+01 2.378080e+02 3.493129e+01
    endloop
  endfacet
  facet normal 3.411822e-16 -8.529839e-02 9.963555e-01
    outer loop
      vertex   -2.075000e+01 2.378080e+02 3.493129e+01
      vertex   0.000000e+00 2.362227e+02 3.479557e+01
      vertex   0.000000e+00 2.378080e+02 3.493129e+01
    endloop
  endfacet
  facet normal 3.421572e-16 -3.992690e-02 9.992026e-01
    outer loop
      vertex   -2.075000e+01 2.378080e+02 3.493129e+01
      vertex   0.000000e+00 2.378080e+02 3.493129e+01
      vertex   -2.075000e+01 2.393979e+02 3.499482e+01
    endloop
  endfacet
  facet normal 0.000000e+00 -3.992690e-02 9.992026e-01
    outer loop
      vertex   -2.075000e+01 2.393979e+02 3.499482e+01
      vertex   0.000000e+00 2.378080e+02 3.493129e+01
      vertex   0.000000e+00 2.393979e+02 3.499482e+01
    endloop
  endfacet
  facet normal -0.000000e+00 5.527113e-03 9.999847e-01
    outer loop
      vertex   -2.075000e+01 2.393979e+02 3.499482e+01
      vertex   0.000000e+00 2.393979e+02 3.499482e+01
      vertex   -2.075000e+01 2.409890e+02 3.498603e+01
    endloop
  endfacet
  facet normal 3.424250e-16 5.527113e-03 9.999847e-01
    outer loop
      vertex   -2.075000e+01 2.409890e+02 3.498603e+01
      vertex   0.000000e+00 2.393979e+02 3.499482e+01
      vertex   0.000000e+00 2.409890e+02 3.498603e+01
    endloop
  endfacet
  facet normal 3.419851e-16 5.096970e-02 9.987002e-01
    outer loop
      vertex   -2.075000e+01 2.409890e+02 3.498603e+01
      vertex   0.000000e+00 2.409890e+02 3.498603e+01
      vertex   -2.075000e+01 2.425780e+02 3.490493e+01
    endloop
  endfacet
  facet normal -3.419851e-16 5.096970e-02 9.987002e-01
    outer loop
      vertex   -2.075000e+01 2.425780e+02 3.490493e+01
      vertex   0.000000e+00 2.409890e+02 3.498603e+01
      vertex   0.000000e+00 2.425780e+02 3.490493e+01
    endloop
  endfacet
  facet normal -3.408385e-16 9.630695e-02 9.953517e-01
    outer loop
      vertex   -2.075000e+01 2.425780e+02 3.490493e+01
      vertex   0.000000e+00 2.425780e+02 3.490493e+01
      vertex   -2.075000e+01 2.441617e+02 3.475169e+01
    endloop
  endfacet
  facet normal -0.000000e+00 9.630695e-02 9.953517e-01
    outer loop
      vertex   -2.075000e+01 2.441617e+02 3.475169e+01
      vertex   0.000000e+00 2.425780e+02 3.490493e+01
      vertex   0.000000e+00 2.441617e+02 3.475169e+01
    endloop
  endfacet
  facet normal -0.000000e+00 1.414452e-01 9.899461e-01
    outer loop
      vertex   -2.075000e+01 2.441617e+02 3.475169e+01
      vertex   0.000000e+00 2.441617e+02 3.475169e+01
      vertex   -2.075000e+01 2.457369e+02 3.452663e+01
    endloop
  endfacet
  facet normal -0.000000e+00 1.414452e-01 9.899461e-01
    outer loop
      vertex   -2.075000e+01 2.457369e+02 3.452663e+01
      vertex   0.000000e+00 2.441617e+02 3.475169e+01
      vertex   0.000000e+00 2.457369e+02 3.452663e+01
    endloop
  endfacet
  facet normal -0.000000e+00 1.862911e-01 9.824946e-01
    outer loop
      vertex   -2.075000e+01 2.457369e+02 3.452663e+01
      vertex   0.000000e+00 2.457369e+02 3.452663e+01
      vertex   -2.075000e+01 2.473001e+02 3.423022e+01
    endloop
  endfacet
  facet normal -3.364359e-16 1.862911e-01 9.824946e-01
    outer loop
      vertex   -2.075000e+01 2.473001e+02 3.423022e+01
      vertex   0.000000e+00 2.457369e+02 3.452663e+01
      vertex   0.000000e+00 2.473001e+02 3.423022e+01
    endloop
  endfacet
  facet normal -3.331889e-16 2.307519e-01 9.730126e-01
    outer loop
      vertex   -2.075000e+01 2.473001e+02 3.423022e+01
      vertex   0.000000e+00 2.473001e+02 3.423022e+01
      vertex   -2.075000e+01 2.488483e+02 3.386307e+01
    endloop
  endfacet
  facet normal -0.000000e+00 2.307519e-01 9.730126e-01
    outer loop
      vertex   -2.075000e+01 2.488483e+02 3.386307e+01
      vertex   0.000000e+00 2.473001e+02 3.423022e+01
      vertex   0.000000e+00 2.488483e+02 3.386307e+01
    endloop
  endfacet
  facet normal -0.000000e+00 2.747359e-01 9.615197e-01
    outer loop
      vertex   -2.075000e+01 2.488483e+02 3.386307e+01
      vertex   0.000000e+00 2.488483e+02 3.386307e+01
      vertex   -2.075000e+01 2.503782e+02 3.342593e+01
    endloop
  endfacet
  facet normal 3.292534e-16 2.747359e-01 9.615197e-01
    outer loop
      vertex   -2.075000e+01 2.503782e+02 3.342593e+01
      vertex   0.000000e+00 2.488483e+02 3.386307e+01
      vertex   0.000000e+00 2.503782e+02 3.342593e+01
    endloop
  endfacet
  facet normal 3.246374e-16 3.181522e-01 9.480397e-01
    outer loop
      vertex   -2.075000e+01 2.503782e+02 3.342593e+01
      vertex   0.000000e+00 2.503782e+02 3.342593e+01
      vertex   -2.075000e+01 2.518867e+02 3.291971e+01
    endloop
  endfacet
  facet normal -3.246374e-16 3.181522e-01 9.480397e-01
    outer loop
      vertex   -2.075000e+01 2.518867e+02 3.291971e+01
      vertex   0.000000e+00 2.503782e+02 3.342593e+01
      vertex   0.000000e+00 2.518867e+02 3.291971e+01
    endloop
  endfacet
  facet normal -3.193505e-16 3.609108e-01 9.326003e-01
    outer loop
      vertex   -2.075000e+01 2.518867e+02 3.291971e+01
      vertex   0.000000e+00 2.518867e+02 3.291971e+01
      vertex   -2.075000e+01 2.533706e+02 3.234545e+01
    endloop
  endfacet
  facet normal -3.193505e-16 3.609108e-01 9.326003e-01
    outer loop
      vertex   -2.075000e+01 2.533706e+02 3.234545e+01
      vertex   0.000000e+00 2.518867e+02 3.291971e+01
      vertex   0.000000e+00 2.533706e+02 3.234545e+01
    endloop
  endfacet
  facet normal -3.134037e-16 4.029236e-01 9.152336e-01
    outer loop
      vertex   -2.075000e+01 2.533706e+02 3.234545e+01
      vertex   0.000000e+00 2.533706e+02 3.234545e+01
      vertex   -2.075000e+01 2.548268e+02 3.170435e+01
    endloop
  endfacet
  facet normal 4.701055e-16 4.029236e-01 9.152336e-01
    outer loop
      vertex   -2.075000e+01 2.548268e+02 3.170435e+01
      vertex   0.000000e+00 2.533706e+02 3.234545e+01
      vertex   0.000000e+00 2.548268e+02 3.170435e+01
    endloop
  endfacet
  facet normal 4.602136e-16 4.441037e-01 8.959754e-01
    outer loop
      vertex   -2.075000e+01 2.548268e+02 3.170435e+01
      vertex   0.000000e+00 2.548268e+02 3.170435e+01
      vertex   -2.075000e+01 2.562524e+02 3.099772e+01
    endloop
  endfacet
  facet normal 4.602136e-16 4.441037e-01 8.959754e-01
    outer loop
      vertex   -2.075000e+01 2.562524e+02 3.099772e+01
      vertex   0.000000e+00 2.548268e+02 3.170435e+01
      vertex   0.000000e+00 2.562524e+02 3.099772e+01
    endloop
  endfacet
  facet normal 4.493706e-16 4.843660e-01 8.748655e-01
    outer loop
      vertex   -2.075000e+01 2.562524e+02 3.099772e+01
      vertex   0.000000e+00 2.562524e+02 3.099772e+01
      vertex   -2.075000e+01 2.576444e+02 3.022704e+01
    endloop
  endfacet
  facet normal -0.000000e+00 4.843660e-01 8.748655e-01
    outer loop
      vertex   -2.075000e+01 2.576444e+02 3.022704e+01
      vertex   0.000000e+00 2.562524e+02 3.099772e+01
      vertex   0.000000e+00 2.576444e+02 3.022704e+01
    endloop
  endfacet
  facet normal -0.000000e+00 5.236272e-01 8.519475e-01
    outer loop
      vertex   -2.075000e+01 2.576444e+02 3.022704e+01
      vertex   0.000000e+00 2.576444e+02 3.022704e+01
      vertex   -2.075000e+01 2.590000e+02 2.939388e+01
    endloop
  endfacet
  facet normal -0.000000e+00 5.236272e-01 8.519475e-01
    outer loop
      vertex   -2.075000e+01 2.590000e+02 2.939388e+01
      vertex   0.000000e+00 2.576444e+02 3.022704e+01
      vertex   2.075000e+01 2.590000e+02 2.939388e+01
    endloop
  endfacet
  facet normal 0.000000e+00 5.236272e-01 8.519475e-01
    outer loop
      vertex   2.075000e+01 2.590000e+02 2.939388e+01
      vertex   0.000000e+00 2.576444e+02 3.022704e+01
      vertex   2.075000e+01 2.576444e+02 3.022704e+01
    endloop
  endfacet
  facet normal 0.000000e+00 4.843660e-01 8.748655e-01
    outer loop
      vertex   2.075000e+01 2.576444e+02 3.022704e+01
      vertex   0.000000e+00 2.576444e+02 3.022704e+01
      vertex   2.075000e+01 2.562524e+02 3.099772e+01
    endloop
  endfacet
  facet normal -4.493706e-16 4.843660e-01 8.748655e-01
    outer loop
      vertex   2.075000e+01 2.562524e+02 3.099772e+01
      vertex   0.000000e+00 2.576444e+02 3.022704e+01
      vertex   0.000000e+00 2.562524e+02 3.099772e+01
    endloop
  endfacet
  facet normal -4.602136e-16 4.441037e-01 8.959754e-01
    outer loop
      vertex   2.075000e+01 2.562524e+02 3.099772e+01
      vertex   0.000000e+00 2.562524e+02 3.099772e+01
      vertex   2.075000e+01 2.548268e+02 3.170435e+01
    endloop
  endfacet
  facet normal -4.602136e-16 4.441037e-01 8.959754e-01
    outer loop
      vertex   2.075000e+01 2.548268e+02 3.170435e+01
      vertex   0.000000e+00 2.562524e+02 3.099772e+01
      vertex   0.000000e+00 2.548268e+02 3.170435e+01
    endloop
  endfacet
  facet normal -4.701055e-16 4.029236e-01 9.152336e-01
    outer loop
      vertex   2.075000e+01 2.548268e+02 3.170435e+01
      vertex   0.000000e+00 2.548268e+02 3.170435e+01
      vertex   2.075000e+01 2.533706e+02 3.234545e+01
    endloop
  endfacet
  facet normal 3.134037e-16 4.029236e-01 9.152336e-01
    outer loop
      vertex   2.075000e+01 2.533706e+02 3.234545e+01
      vertex   0.000000e+00 2.548268e+02 3.170435e+01
      vertex   0.000000e+00 2.533706e+02 3.234545e+01
    endloop
  endfacet
  facet normal 3.193505e-16 3.609108e-01 9.326003e-01
    outer loop
      vertex   2.075000e+01 2.533706e+02 3.234545e+01
      vertex   0.000000e+00 2.533706e+02 3.234545e+01
      vertex   2.075000e+01 2.518867e+02 3.291971e+01
    endloop
  endfacet
  facet normal 3.193505e-16 3.609108e-01 9.326003e-01
    outer loop
      vertex   2.075000e+01 2.518867e+02 3.291971e+01
      vertex   0.000000e+00 2.533706e+02 3.234545e+01
      vertex   0.000000e+00 2.518867e+02 3.291971e+01
    endloop
  endfacet
  facet normal 3.246374e-16 3.181522e-01 9.480397e-01
    outer loop
      vertex   2.075000e+01 2.518867e+02 3.291971e+01
      vertex   0.000000e+00 2.518867e+02 3.291971e+01
      vertex   2.075000e+01 2.503782e+02 3.342593e+01
    endloop
  endfacet
  facet normal -3.246374e-16 3.181522e-01 9.480397e-01
    outer loop
      vertex   2.075000e+01 2.503782e+02 3.342593e+01
      vertex   0.000000e+00 2.518867e+02 3.291971e+01
      vertex   0.000000e+00 2.503782e+02 3.342593e+01
    endloop
  endfacet
  facet normal -3.292534e-16 2.747359e-01 9.615197e-01
    outer loop
      vertex   2.075000e+01 2.503782e+02 3.342593e+01
      vertex   0.000000e+00 2.503782e+02 3.342593e+01
      vertex   2.075000e+01 2.488483e+02 3.386307e+01
    endloop
  endfacet
  facet normal 0.000000e+00 2.747359e-01 9.615197e-01
    outer loop
      vertex   2.075000e+01 2.488483e+02 3.386307e+01
      vertex   0.000000e+00 2.503782e+02 3.342593e+01
      vertex   0.000000e+00 2.488483e+02 3.386307e+01
    endloop
  endfacet
  facet normal 0.000000e+00 2.307519e-01 9.730126e-01
    outer loop
      vertex   2.075000e+01 2.488483e+02 3.386307e+01
      vertex   0.000000e+00 2.488483e+02 3.386307e+01
      vertex   2.075000e+01 2.473001e+02 3.423022e+01
    endloop
  endfacet
  facet normal 3.331889e-16 2.307519e-01 9.730126e-01
    outer loop
      vertex   2.075000e+01 2.473001e+02 3.423022e+01
      vertex   0.000000e+00 2.488483e+02 3.386307e+01
      vertex   0.000000e+00 2.473001e+02 3.423022e+01
    endloop
  endfacet
  facet normal 3.364359e-16 1.862911e-01 9.824946e-01
    outer loop
      vertex   2.075000e+01 2.473001e+02 3.423022e+01
      vertex   0.000000e+00 2.473001e+02 3.423022e+01
      vertex   2.075000e+01 2.457369e+02 3.452663e+01
    endloop
  endfacet
  facet normal 0.000000e+00 1.862911e-01 9.824946e-01
    outer loop
      vertex   2.075000e+01 2.457369e+02 3.452663e+01
      vertex   0.000000e+00 2.473001e+02 3.423022e+01
      vertex   0.000000e+00 2.457369e+02 3.452663e+01
    endloop
  endfacet
  facet normal 0.000000e+00 1.414452e-01 9.899461e-01
    outer loop
      vertex   2.075000e+01 2.457369e+02 3.452663e+01
      vertex   0.000000e+00 2.457369e+02 3.452663e+01
      vertex   2.075000e+01 2.441617e+02 3.475169e+01
    endloop
  endfacet
  facet normal 0.000000e+00 1.414452e-01 9.899461e-01
    outer loop
      vertex   2.075000e+01 2.441617e+02 3.475169e+01
      vertex   0.000000e+00 2.457369e+02 3.452663e+01
      vertex   0.000000e+00 2.441617e+02 3.475169e+01
    endloop
  endfacet
  facet normal 0.000000e+00 9.630695e-02 9.953517e-01
    outer loop
      vertex   2.075000e+01 2.441617e+02 3.475169e+01
      vertex   0.000000e+00 2.441617e+02 3.475169e+01
      vertex   2.075000e+01 2.425780e+02 3.490493e+01
    endloop
  endfacet
  facet normal 3.408385e-16 9.630695e-02 9.953517e-01
    outer loop
      vertex   2.075000e+01 2.425780e+02 3.490493e+01
      vertex   0.000000e+00 2.441617e+02 3.475169e+01
      vertex   0.000000e+00 2.425780e+02 3.490493e+01
    endloop
  endfacet
  facet normal 3.419851e-16 5.096970e-02 9.987002e-01
    outer loop
      vertex   2.075000e+01 2.425780e+02 3.490493e+01
      vertex   0.000000e+00 2.425780e+02 3.490493e+01
      vertex   2.075000e+01 2.409890e+02 3.498603e+01
    endloop
  endfacet
  facet normal -3.419851e-16 5.096970e-02 9.987002e-01
    outer loop
      vertex   2.075000e+01 2.409890e+02 3.498603e+01
      vertex   0.000000e+00 2.425780e+02 3.490493e+01
      vertex   0.000000e+00 2.409890e+02 3.498603e+01
    endloop
  endfacet
  facet normal -3.424250e-16 5.527113e-03 9.999847e-01
    outer loop
      vertex   2.075000e+01 2.409890e+02 3.498603e+01
      vertex   0.000000e+00 2.409890e+02 3.498603e+01
      vertex   2.075000e+01 2.393979e+02 3.499482e+01
    endloop
  endfacet
  facet normal 0.000000e+00 5.527113e-03 9.999847e-01
    outer loop
      vertex   2.075000e+01 2.393979e+02 3.499482e+01
      vertex   0.000000e+00 2.409890e+02 3.498603e+01
      vertex   0.000000e+00 2.393979e+02 3.499482e+01
    endloop
  endfacet
  facet normal 0.000000e+00 -3.992690e-02 9.992026e-01
    outer loop
      vertex   2.075000e+01 2.393979e+02 3.499482e+01
      vertex   0.000000e+00 2.393979e+02 3.499482e+01
      vertex   2.075000e+01 2.378080e+02 3.493129e+01
    endloop
  endfacet
  facet normal -3.421572e-16 -3.992690e-02 9.992026e-01
    outer loop
      vertex   2.075000e+01 2.378080e+02 3.493129e+01
      vertex   0.000000e+00 2.393979e+02 3.499482e+01
      vertex   0.000000e+00 2.378080e+02 3.493129e+01
    endloop
  endfacet
  facet normal -3.411822e-16 -8.529839e-02 9.963555e-01
    outer loop
      vertex   2.075000e+01 2.378080e+02 3.493129e+01
      vertex   0.000000e+00 2.378080e+02 3.493129e+01
      vertex   2.075000e+01 2.362227e+02 3.479557e+01
    endloop
  endfacet
  facet normal 0.000000e+00 -8.529839e-02 9.963555e-01
    outer loop
      vertex   2.075000e+01 2.362227e+02 3.479557e+01
      vertex   0.000000e+00 2.378080e+02 3.493129e+01
      vertex   0.000000e+00 2.362227e+02 3.479557e+01
    endloop
  endfacet
  facet normal 0.000000e+00 -1.304936e-01 9.914492e-01
    outer loop
      vertex   2.075000e+01 2.362227e+02 3.479557e+01
      vertex   0.000000e+00 2.362227e+02 3.479557e+01
      vertex   2.075000e+01 2.346451e+02 3.458794e+01
    endloop
  endfacet
  facet normal -3.395022e-16 -1.304936e-01 9.914492e-01
    outer loop
      vertex   2.075000e+01 2.346451e+02 3.458794e+01
      vertex   0.000000e+00 2.362227e+02 3.479557e+01
      vertex   0.000000e+00 2.346451e+02 3.458794e+01
    endloop
  endfacet
  facet normal -3.371205e-16 -1.754191e-01 9.844938e-01
    outer loop
      vertex   2.075000e+01 2.346451e+02 3.458794e+01
      vertex   0.000000e+00 2.346451e+02 3.458794e+01
      vertex   2.075000e+01 2.330787e+02 3.430883e+01
    endloop
  endfacet
  facet normal 3.371205e-16 -1.754191e-01 9.844938e-01
    outer loop
      vertex   2.075000e+01 2.330787e+02 3.430883e+01
      vertex   0.000000e+00 2.346451e+02 3.458794e+01
      vertex   0.000000e+00 2.330787e+02 3.430883e+01
    endloop
  endfacet
  facet normal 3.340420e-16 -2.199821e-01 9.755039e-01
    outer loop
      vertex   2.075000e+01 2.330787e+02 3.430883e+01
      vertex   0.000000e+00 2.330787e+02 3.430883e+01
      vertex   2.075000e+01 2.315265e+02 3.395881e+01
    endloop
  endfacet
  facet normal 2.426749e-05 -3.076530e-01 9.514986e-01
    outer loop
      vertex   2.075000e+01 2.299919e+02 3.353861e+01
      vertex   1.400000e+01 2.284848e+02 3.305147e+01
      vertex   2.075000e+01 2.284780e+02 3.304909e+01
    endloop
  endfacet
  facet normal -2.428598e-05 -3.504022e-01 9.365993e-01
    outer loop
      vertex   2.075000e+01 2.284780e+02 3.304909e+01
      vertex   1.400000e+01 2.284848e+02 3.305147e+01
      vertex   1.400000e+01 2.269934e+02 3.249352e+01
    endloop
  endfacet
  facet normal 2.023831e-05 -3.505798e-01 9.365329e-01
    outer loop
      vertex   2.075000e+01 2.284780e+02 3.304909e+01
      vertex   1.400000e+01 2.269934e+02 3.249352e+01
      vertex   2.075000e+01 2.269878e+02 3.249127e+01
    endloop
  endfacet
  facet normal -2.025371e-05 -3.926393e-01 9.196925e-01
    outer loop
      vertex   2.075000e+01 2.269878e+02 3.249127e+01
      vertex   1.400000e+01 2.269934e+02 3.249352e+01
      vertex   1.400000e+01 2.255290e+02 3.186830e+01
    endloop
  endfacet
  facet normal 1.620297e-05 -3.927820e-01 9.196316e-01
    outer loop
      vertex   2.075000e+01 2.269878e+02 3.249127e+01
      vertex   1.400000e+01 2.255290e+02 3.186830e+01
      vertex   2.075000e+01 2.255246e+02 3.186631e+01
    endloop
  endfacet
  facet normal -1.621529e-05 -4.340637e-01 9.008822e-01
    outer loop
      vertex   2.075000e+01 2.255246e+02 3.186631e+01
      vertex   1.400000e+01 2.255290e+02 3.186830e+01
      vertex   1.400000e+01 2.240945e+02 3.117713e+01
    endloop
  endfacet
  facet normal 1.216147e-05 -4.341724e-01 9.008298e-01
    outer loop
      vertex   2.075000e+01 2.255246e+02 3.186631e+01
      vertex   1.400000e+01 2.240945e+02 3.117713e+01
      vertex   2.075000e+01 2.240912e+02 3.117549e+01
    endloop
  endfacet
  facet normal -1.217071e-05 -4.745897e-01 8.802071e-01
    outer loop
      vertex   2.075000e+01 2.240912e+02 3.117549e+01
      vertex   1.400000e+01 2.240945e+02 3.117713e+01
      vertex   1.400000e+01 2.226929e+02 3.042143e+01
    endloop
  endfacet
  facet normal 8.113807e-06 -4.746656e-01 8.801662e-01
    outer loop
      vertex   2.075000e+01 2.240912e+02 3.117549e+01
      vertex   1.400000e+01 2.226929e+02 3.042143e+01
      vertex   2.075000e+01 2.226908e+02 3.042023e+01
    endloop
  endfacet
  facet normal -8.119967e-06 -5.141334e-01 8.577102e-01
    outer loop
      vertex   2.075000e+01 2.226908e+02 3.042023e+01
      vertex   1.400000e+01 2.226929e+02 3.042143e+01
      vertex   1.400000e+01 2.213271e+02 2.960275e+01
    endloop
  endfacet
  facet normal 4.059984e-06 -5.141778e-01 8.576836e-01
    outer loop
      vertex   2.075000e+01 2.226908e+02 3.042023e+01
      vertex   1.400000e+01 2.213271e+02 2.960275e+01
      vertex   2.075000e+01 2.213261e+02 2.960211e+01
    endloop
  endfacet
  facet normal -4.063064e-06 -5.526129e-01 8.334380e-01
    outer loop
      vertex   2.075000e+01 2.213261e+02 2.960211e+01
      vertex   1.400000e+01 2.213271e+02 2.960275e+01
      vertex   1.400000e+01 2.200000e+02 2.872281e+01
    endloop
  endfacet
  facet normal 2.191481e-15 -5.526273e-01 8.334285e-01
    outer loop
      vertex   2.075000e+01 2.213261e+02 2.960211e+01
      vertex   1.400000e+01 2.200000e+02 2.872281e+01
      vertex   2.075000e+01 2.200000e+02 2.872281e+01
    endloop
  endfacet
  facet normal 3.329069e-16 -2.199821e-01 9.755039e-01
    outer loop
      vertex   -2.075000e+01 2.330787e+02 3.430883e+01
      vertex   -2.075000e+01 2.315265e+02 3.395881e+01
      vertex   0.000000e+00 2.315265e+02 3.395881e+01
    endloop
  endfacet
  facet normal 3.302842e-16 -2.639741e-01 9.645298e-01
    outer loop
      vertex   0.000000e+00 2.315265e+02 3.395881e+01
      vertex   -2.075000e+01 2.315265e+02 3.395881e+01
      vertex   -1.400000e+01 2.300000e+02 3.354102e+01
    endloop
  endfacet
  facet normal 0.000000e+00 -2.639741e-01 9.645298e-01
    outer loop
      vertex   0.000000e+00 2.315265e+02 3.395881e+01
      vertex   -1.400000e+01 2.300000e+02 3.354102e+01
      vertex   1.400000e+01 2.300000e+02 3.354102e+01
    endloop
  endfacet
  facet normal -2.829051e-05 -2.640905e-01 9.644979e-01
    outer loop
      vertex   -2.075000e+01 2.315265e+02 3.395881e+01
      vertex   -2.075000e+01 2.299919e+02 3.353861e+01
      vertex   -1.400000e+01 2.300000e+02 3.354102e+01
    endloop
  endfacet
  facet normal 2.831208e-05 -3.074398e-01 9.515675e-01
    outer loop
      vertex   -1.400000e+01 2.300000e+02 3.354102e+01
      vertex   -2.075000e+01 2.299919e+02 3.353861e+01
      vertex   -1.400000e+01 2.284848e+02 3.305147e+01
    endloop
  endfacet
  facet normal -2.426749e-05 -3.076530e-01 9.514986e-01
    outer loop
      vertex   -1.400000e+01 2.284848e+02 3.305147e+01
      vertex   -2.075000e+01 2.299919e+02 3.353861e+01
      vertex   -2.075000e+01 2.284780e+02 3.304909e+01
    endloop
  endfacet
  facet normal 2.428598e-05 -3.504022e-01 9.365993e-01
    outer loop
      vertex   -1.400000e+01 2.284848e+02 3.305147e+01
      vertex   -2.075000e+01 2.284780e+02 3.304909e+01
      vertex   -1.400000e+01 2.269934e+02 3.249352e+01
    endloop
  endfacet
  facet normal -2.023831e-05 -3.505798e-01 9.365329e-01
    outer loop
      vertex   -1.400000e+01 2.269934e+02 3.249352e+01
      vertex   -2.075000e+01 2.284780e+02 3.304909e+01
      vertex   -2.075000e+01 2.269878e+02 3.249127e+01
    endloop
  endfacet
  facet normal 2.025371e-05 -3.926393e-01 9.196925e-01
    outer loop
      vertex   -1.400000e+01 2.269934e+02 3.249352e+01
      vertex   -2.075000e+01 2.269878e+02 3.249127e+01
      vertex   -1.400000e+01 2.255290e+02 3.186830e+01
    endloop
  endfacet
  facet normal -1.620297e-05 -3.927820e-01 9.196316e-01
    outer loop
      vertex   -1.400000e+01 2.255290e+02 3.186830e+01
      vertex   -2.075000e+01 2.269878e+02 3.249127e+01
      vertex   -2.075000e+01 2.255246e+02 3.186631e+01
    endloop
  endfacet
  facet normal 1.621529e-05 -4.340637e-01 9.008822e-01
    outer loop
      vertex   -1.400000e+01 2.255290e+02 3.186830e+01
      vertex   -2.075000e+01 2.255246e+02 3.186631e+01
      vertex   -1.400000e+01 2.240945e+02 3.117713e+01
    endloop
  endfacet
  facet normal -1.216147e-05 -4.341724e-01 9.008298e-01
    outer loop
      vertex   -1.400000e+01 2.240945e+02 3.117713e+01
      vertex   -2.075000e+01 2.255246e+02 3.186631e+01
      vertex   -2.075000e+01 2.240912e+02 3.117549e+01
    endloop
  endfacet
  facet normal 1.217071e-05 -4.745897e-01 8.802071e-01
    outer loop
      vertex   -1.400000e+01 2.240945e+02 3.117713e+01
      vertex   -2.075000e+01 2.240912e+02 3.117549e+01
      vertex   -1.400000e+01 2.226929e+02 3.042143e+01
    endloop
  endfacet
  facet normal -8.113807e-06 -4.746656e-01 8.801662e-01
    outer loop
      vertex   -1.400000e+01 2.226929e+02 3.042143e+01
      vertex   -2.075000e+01 2.240912e+02 3.117549e+01
      vertex   -2.075000e+01 2.226908e+02 3.042023e+01
    endloop
  endfacet
  facet normal 8.119967e-06 -5.141334e-01 8.577102e-01
    outer loop
      vertex   -1.400000e+01 2.226929e+02 3.042143e+01
      vertex   -2.075000e+01 2.226908e+02 3.042023e+01
      vertex   -1.400000e+01 2.213271e+02 2.960275e+01
    endloop
  endfacet
  facet normal -4.059984e-06 -5.141778e-01 8.576836e-01
    outer loop
      vertex   -1.400000e+01 2.213271e+02 2.960275e+01
      vertex   -2.075000e+01 2.226908e+02 3.042023e+01
      vertex   -2.075000e+01 2.213261e+02 2.960211e+01
    endloop
  endfacet
  facet normal 4.063064e-06 -5.526129e-01 8.334380e-01
    outer loop
      vertex   -1.400000e+01 2.213271e+02 2.960275e+01
      vertex   -2.075000e+01 2.213261e+02 2.960211e+01
      vertex   -1.400000e+01 2.200000e+02 2.872281e+01
    endloop
  endfacet
  facet normal 0.000000e+00 -5.526273e-01 8.334285e-01
    outer loop
      vertex   -1.400000e+01 2.200000e+02 2.872281e+01
      vertex   -2.075000e+01 2.213261e+02 2.960211e+01
      vertex   -2.075000e+01 2.200000e+02 2.872281e+01
    endloop
  endfacet
  facet normal 0.000000e+00 1.000000e+00 0.000000e+00
    outer loop
      vertex   -2.075000e+01 2.590000e+02 2.518982e+01
      vertex   -2.075000e+01 2.590000e+02 2.939388e+01
      vertex   2.075000e+01 2.590000e+02 2.518982e+01
    endloop
  endfacet
  facet normal 0.000000e+00 1.000000e+00 0.000000e+00
    outer loop
      vertex   2.075000e+01 2.590000e+02 2.518982e+01
      vertex   -2.075000e+01 2.590000e+02 2.939388e+01
      vertex   2.075000e+01 2.590000e+02 2.939388e+01
    endloop
  endfacet
  facet normal 0.000000e+00 0.000000e+00 -1.000000e+00
    outer loop
      vertex   -2.075000e+01 2.571577e+02 2.518982e+01
      vertex   -2.075000e+01 2.590000e+02 2.518982e+01
      vertex   2.075000e+01 2.571577e+02 2.518982e+01
    endloop
  endfacet
  facet normal 0.000000e+00 0.000000e+00 -1.000000e+00
    outer loop
      vertex   2.075000e+01 2.571577e+02 2.518982e+01
      vertex   -2.075000e+01 2.590000e+02 2.518982e+01
      vertex   2.075000e+01 2.590000e+02 2.518982e+01
    endloop
  endfacet
  facet normal 1.000000e+00 0.000000e+00 0.000000e+00
    outer loop
      vertex   2.075000e+01 2.571577e+02 2.518982e+01
      vertex   2.075000e+01 2.590000e+02 2.518982e+01
      vertex   2.075000e+01 2.571577e+02 2.719799e+01
    endloop
  endfacet
  facet normal 1.000000e+00 9.211372e-16 8.450679e-16
    outer loop
      vertex   2.075000e+01 2.571577e+02 2.719799e+01
      vertex   2.075000e+01 2.590000e+02 2.518982e+01
      vertex   2.075000e+01 2.590000e+02 2.939388e+01
    endloop
  endfacet
  facet normal 1.000000e+00 -1.183126e-15 2.610516e-15
    outer loop
      vertex   2.075000e+01 2.571577e+02 2.719799e+01
      vertex   2.075000e+01 2.590000e+02 2.939388e+01
      vertex   2.075000e+01 2.558637e+02 2.797247e+01
    endloop
  endfacet
  facet normal 1.000000e+00 0.000000e+00 -0.000000e+00
    outer loop
      vertex   2.075000e+01 2.558637e+02 2.797247e+01
      vertex   2.075000e+01 2.590000e+02 2.939388e+01
      vertex   2.075000e+01 2.545349e+02 2.868543e+01
    endloop
  endfacet
  facet normal 1.000000e+00 0.000000e+00 -0.000000e+00
    outer loop
      vertex   2.075000e+01 2.545349e+02 2.868543e+01
      vertex   2.075000e+01 2.590000e+02 2.939388e+01
      vertex   2.075000e+01 2.531741e+02 2.933531e+01
    endloop
  endfacet
  facet normal 1.000000e+00 0.000000e+00 0.000000e+00
    outer loop
      vertex   2.075000e+01 2.531741e+02 2.933531e+01
      vertex   2.075000e+01 2.590000e+02 2.939388e+01
      vertex   2.075000e+01 2.576444e+02 3.022704e+01
    endloop
  endfacet
  facet normal 1.000000e+00 0.000000e+00 -0.000000e+00
    outer loop
      vertex   2.075000e+01 2.531741e+02 2.933531e+01
      vertex   2.075000e+01 2.576444e+02 3.022704e+01
      vertex   2.075000e+01 2.517843e+02 2.992068e+01
    endloop
  endfacet
  facet normal 1.000000e+00 0.000000e+00 0.000000e+00
    outer loop
      vertex   2.075000e+01 2.517843e+02 2.992068e+01
      vertex   2.075000e+01 2.576444e+02 3.022704e+01
      vertex   2.075000e+01 2.562524e+02 3.099772e+01
    endloop
  endfacet
  facet normal 1.000000e+00 0.000000e+00 -0.000000e+00
    outer loop
      vertex   2.075000e+01 2.517843e+02 2.992068e+01
      vertex   2.075000e+01 2.562524e+02 3.099772e+01
      vertex   2.075000e+01 2.503686e+02 3.044025e+01
    endloop
  endfacet
  facet normal 1.000000e+00 0.000000e+00 0.000000e+00
    outer loop
      vertex   2.075000e+01 2.503686e+02 3.044025e+01
      vertex   2.075000e+01 2.562524e+02 3.099772e+01
      vertex   2.075000e+01 2.548268e+02 3.170435e+01
    endloop
  endfacet
  facet normal 1.000000e+00 0.000000e+00 -0.000000e+00
    outer loop
      vertex   2.075000e+01 2.503686e+02 3.044025e+01
      vertex   2.075000e+01 2.548268e+02 3.170435e+01
      vertex   2.075000e+01 2.489301e+02 3.089288e+01
    endloop
  endfacet
  facet normal 1.000000e+00 0.000000e+00 0.000000e+00
    outer loop
      vertex   2.075000e+01 2.489301e+02 3.089288e+01
      vertex   2.075000e+01 2.548268e+02 3.170435e+01
      vertex   2.075000e+01 2.533706e+02 3.234545e+01
    endloop
  endfacet
  facet normal 1.000000e+00 0.000000e+00 -0.000000e+00
    outer loop
      vertex   2.075000e+01 2.489301e+02 3.089288e+01
      vertex   2.075000e+01 2.533706e+02 3.234545e+01
      vertex   2.075000e+01 2.474719e+02 3.127757e+01
    endloop
  endfacet
  facet normal 1.000000e+00 0.000000e+00 0.000000e+00
    outer loop
      vertex   2.075000e+01 2.474719e+02 3.127757e+01
      vertex   2.075000e+01 2.533706e+02 3.234545e+01
      vertex   2.075000e+01 2.518867e+02 3.291971e+01
    endloop
  endfacet
  facet normal 1.000000e+00 0.000000e+00 -0.000000e+00
    outer loop
      vertex   2.075000e+01 2.474719e+02 3.127757e+01
      vertex   2.075000e+01 2.518867e+02 3.291971e+01
      vertex   2.075000e+01 2.459974e+02 3.159348e+01
    endloop
  endfacet
  facet normal 1.000000e+00 0.000000e+00 0.000000e+00
    outer loop
      vertex   2.075000e+01 2.459974e+02 3.159348e+01
      vertex   2.075000e+01 2.518867e+02 3.291971e+01
      vertex   2.075000e+01 2.503782e+02 3.342593e+01
    endloop
  endfacet
  facet normal 1.000000e+00 0.000000e+00 -0.000000e+00
    outer loop
      vertex   2.075000e+01 2.459974e+02 3.159348e+01
      vertex   2.075000e+01 2.503782e+02 3.342593e+01
      vertex   2.075000e+01 2.445096e+02 3.183991e+01
    endloop
  endfacet
  facet normal 1.000000e+00 0.000000e+00 0.000000e+00
    outer loop
      vertex   2.075000e+01 2.445096e+02 3.183991e+01
      vertex   2.075000e+01 2.503782e+02 3.342593e+01
      vertex   2.075000e+01 2.488483e+02 3.386307e+01
    endloop
  endfacet
  facet normal 1.000000e+00 0.000000e+00 -0.000000e+00
    outer loop
      vertex   2.075000e+01 2.445096e+02 3.183991e+01
      vertex   2.075000e+01 2.488483e+02 3.386307e+01
      vertex   2.075000e+01 2.430119e+02 3.201632e+01
    endloop
  endfacet
  facet normal 1.000000e+00 0.000000e+00 0.000000e+00
    outer loop
      vertex   2.075000e+01 2.430119e+02 3.201632e+01
      vertex   2.075000e+01 2.488483e+02 3.386307e+01
      vertex   2.075000e+01 2.473001e+02 3.423022e+01
    endloop
  endfacet
  facet normal 1.000000e+00 0.000000e+00 -0.000000e+00
    outer loop
      vertex   2.075000e+01 2.430119e+02 3.201632e+01
      vertex   2.075000e+01 2.473001e+02 3.423022e+01
      vertex   2.075000e+01 2.415076e+02 3.212232e+01
    endloop
  endfacet
  facet normal 1.000000e+00 0.000000e+00 0.000000e+00
    outer loop
      vertex   2.075000e+01 2.415076e+02 3.212232e+01
      vertex   2.075000e+01 2.473001e+02 3.423022e+01
      vertex   2.075000e+01 2.457369e+02 3.452663e+01
    endloop
  endfacet
  facet normal 1.000000e+00 0.000000e+00 0.000000e+00
    outer loop
      vertex   2.075000e+01 2.415076e+02 3.212232e+01
      vertex   2.075000e+01 2.457369e+02 3.452663e+01
      vertex   2.075000e+01 2.441617e+02 3.475169e+01
    endloop
  endfacet
  facet normal 1.000000e+00 0.000000e+00 0.000000e+00
    outer loop
      vertex   2.075000e+01 2.441617e+02 3.475169e+01
      vertex   2.075000e+01 2.425780e+02 3.490493e+01
      vertex   2.075000e+01 2.415076e+02 3.212232e+01
    endloop
  endfacet
  facet normal 1.000000e+00 0.000000e+00 -0.000000e+00
    outer loop
      vertex   2.075000e+01 2.415076e+02 3.212232e+01
      vertex   2.075000e+01 2.425780e+02 3.490493e+01
      vertex   2.075000e+01 2.400000e+02 3.215768e+01
    endloop
  endfacet
  facet normal 1.000000e+00 0.000000e+00 0.000000e+00
    outer loop
      vertex   2.075000e+01 2.400000e+02 3.215768e+01
      vertex   2.075000e+01 2.425780e+02 3.490493e+01
      vertex   2.075000e+01 2.409890e+02 3.498603e+01
    endloop
  endfacet
  facet normal 1.000000e+00 0.000000e+00 -0.000000e+00
    outer loop
      vertex   2.075000e+01 2.400000e+02 3.215768e+01
      vertex   2.075000e+01 2.409890e+02 3.498603e+01
      vertex   2.075000e+01 2.393979e+02 3.499482e+01
    endloop
  endfacet
  facet normal 1.000000e+00 0.000000e+00 0.000000e+00
    outer loop
      vertex   2.075000e+01 2.393979e+02 3.499482e+01
      vertex   2.075000e+01 2.378080e+02 3.493129e+01
      vertex   2.075000e+01 2.400000e+02 3.215768e+01
    endloop
  endfacet
  facet normal 1.000000e+00 0.000000e+00 0.000000e+00
    outer loop
      vertex   2.075000e+01 2.400000e+02 3.215768e+01
      vertex   2.075000e+01 2.378080e+02 3.493129e+01
      vertex   2.075000e+01 2.362227e+02 3.479557e+01
    endloop
  endfacet
  facet normal 1.000000e+00 0.000000e+00 0.000000e+00
    outer loop
      vertex   2.075000e+01 2.400000e+02 3.215768e+01
      vertex   2.075000e+01 2.362227e+02 3.479557e+01
      vertex   2.075000e+01 2.384924e+02 3.212232e+01
    endloop
  endfacet
  facet normal 1.000000e+00 0.000000e+00 0.000000e+00
    outer loop
      vertex   2.075000e+01 2.384924e+02 3.212232e+01
      vertex   2.075000e+01 2.362227e+02 3.479557e+01
      vertex   2.075000e+01 2.346451e+02 3.458794e+01
    endloop
  endfacet
  facet normal 1.000000e+00 0.000000e+00 0.000000e+00
    outer loop
      vertex   2.075000e+01 2.384924e+02 3.212232e+01
      vertex   2.075000e+01 2.346451e+02 3.458794e+01
      vertex   2.075000e+01 2.330787e+02 3.430883e+01
    endloop
  endfacet
  facet normal 1.000000e+00 0.000000e+00 0.000000e+00
    outer loop
      vertex   2.075000e+01 2.384924e+02 3.212232e+01
      vertex   2.075000e+01 2.330787e+02 3.430883e+01
      vertex   2.075000e+01 2.369881e+02 3.201632e+01
    endloop
  endfacet
  facet normal 1.000000e+00 0.000000e+00 0.000000e+00
    outer loop
      vertex   2.075000e+01 2.369881e+02 3.201632e+01
      vertex   2.075000e+01 2.330787e+02 3.430883e+01
      vertex   2.075000e+01 2.315265e+02 3.395881e+01
    endloop
  endfacet
  facet normal 1.000000e+00 0.000000e+00 0.000000e+00
    outer loop
      vertex   2.075000e+01 2.369881e+02 3.201632e+01
      vertex   2.075000e+01 2.315265e+02 3.395881e+01
      vertex   2.075000e+01 2.354904e+02 3.183991e+01
    endloop
  endfacet
  facet normal 1.000000e+00 0.000000e+00 0.000000e+00
    outer loop
      vertex   2.075000e+01 2.354904e+02 3.183991e+01
      vertex   2.075000e+01 2.315265e+02 3.395881e+01
      vertex   2.075000e+01 2.299919e+02 3.353861e+01
    endloop
  endfacet
  facet normal 1.000000e+00 0.000000e+00 0.000000e+00
    outer loop
      vertex   2.075000e+01 2.354904e+02 3.183991e+01
      vertex   2.075000e+01 2.299919e+02 3.353861e+01
      vertex   2.075000e+01 2.284780e+02 3.304909e+01
    endloop
  endfacet
  facet normal 1.000000e+00 0.000000e+00 0.000000e+00
    outer loop
      vertex   2.075000e+01 2.354904e+02 3.183991e+01
      vertex   2.075000e+01 2.284780e+02 3.304909e+01
      vertex   2.075000e+01 2.340026e+02 3.159348e+01
    endloop
  endfacet
  facet normal 1.000000e+00 0.000000e+00 0.000000e+00
    outer loop
      vertex   2.075000e+01 2.340026e+02 3.159348e+01
      vertex   2.075000e+01 2.284780e+02 3.304909e+01
      vertex   2.075000e+01 2.269878e+02 3.249127e+01
    endloop
  endfacet
  facet normal 1.000000e+00 0.000000e+00 0.000000e+00
    outer loop
      vertex   2.075000e+01 2.340026e+02 3.159348e+01
      vertex   2.075000e+01 2.269878e+02 3.249127e+01
      vertex   2.075000e+01 2.325281e+02 3.127757e+01
    endloop
  endfacet
  facet normal 1.000000e+00 0.000000e+00 0.000000e+00
    outer loop
      vertex   2.075000e+01 2.325281e+02 3.127757e+01
      vertex   2.075000e+01 2.269878e+02 3.249127e+01
      vertex   2.075000e+01 2.255246e+02 3.186631e+01
    endloop
  endfacet
  facet normal 1.000000e+00 0.000000e+00 0.000000e+00
    outer loop
      vertex   2.075000e+01 2.325281e+02 3.127757e+01
      vertex   2.075000e+01 2.255246e+02 3.186631e+01
      vertex   2.075000e+01 2.310699e+02 3.089288e+01
    endloop
  endfacet
  facet normal 1.000000e+00 0.000000e+00 0.000000e+00
    outer loop
      vertex   2.075000e+01 2.310699e+02 3.089288e+01
      vertex   2.075000e+01 2.255246e+02 3.186631e+01
      vertex   2.075000e+01 2.296314e+02 3.044025e+01
    endloop
  endfacet
  facet normal 1.000000e+00 0.000000e+00 0.000000e+00
    outer loop
      vertex   2.075000e+01 2.296314e+02 3.044025e+01
      vertex   2.075000e+01 2.255246e+02 3.186631e+01
      vertex   2.075000e+01 2.240912e+02 3.117549e+01
    endloop
  endfacet
  facet normal 1.000000e+00 0.000000e+00 0.000000e+00
    outer loop
      vertex   2.075000e+01 2.296314e+02 3.044025e+01
      vertex   2.075000e+01 2.240912e+02 3.117549e+01
      vertex   2.075000e+01 2.282157e+02 2.992068e+01
    endloop
  endfacet
  facet normal 1.000000e+00 0.000000e+00 0.000000e+00
    outer loop
      vertex   2.075000e+01 2.282157e+02 2.992068e+01
      vertex   2.075000e+01 2.240912e+02 3.117549e+01
      vertex   2.075000e+01 2.226908e+02 3.042023e+01
    endloop
  endfacet
  facet normal 1.000000e+00 0.000000e+00 0.000000e+00
    outer loop
      vertex   2.075000e+01 2.282157e+02 2.992068e+01
      vertex   2.075000e+01 2.226908e+02 3.042023e+01
      vertex   2.075000e+01 2.268259e+02 2.933531e+01
    endloop
  endfacet
  facet normal 1.000000e+00 0.000000e+00 0.000000e+00
    outer loop
      vertex   2.075000e+01 2.268259e+02 2.933531e+01
      vertex   2.075000e+01 2.226908e+02 3.042023e+01
      vertex   2.075000e+01 2.213261e+02 2.960211e+01
    endloop
  endfacet
  facet normal 1.000000e+00 0.000000e+00 0.000000e+00
    outer loop
      vertex   2.075000e+01 2.268259e+02 2.933531e+01
      vertex   2.075000e+01 2.213261e+02 2.960211e+01
      vertex   2.075000e+01 2.254651e+02 2.868543e+01
    endloop
  endfacet
  facet normal 1.000000e+00 6.707871e-16 3.028763e-15
    outer loop
      vertex   2.075000e+01 2.254651e+02 2.868543e+01
      vertex   2.075000e+01 2.213261e+02 2.960211e+01
      vertex   2.075000e+01 2.200000e+02 2.872281e+01
    endloop
  endfacet
  facet normal 1.000000e+00 6.418850e-16 -1.196366e-15
    outer loop
      vertex   2.075000e+01 2.254651e+02 2.868543e+01
      vertex   2.075000e+01 2.200000e+02 2.872281e+01
      vertex   2.075000e+01 2.241363e+02 2.797246e+01
    endloop
  endfacet
  facet normal 1.000000e+00 1.297741e-15 2.419023e-15
    outer loop
      vertex   2.075000e+01 2.241363e+02 2.797246e+01
      vertex   2.075000e+01 2.200000e+02 2.872281e+01
      vertex   2.075000e+01 2.228423e+02 2.719798e+01
    endloop
  endfacet
  facet normal 1.000000e+00 0.000000e+00 0.000000e+00
    outer loop
      vertex   2.075000e+01 2.228423e+02 2.719798e+01
      vertex   2.075000e+01 2.200000e+02 2.872281e+01
      vertex   2.075000e+01 2.200000e+02 2.518982e+01
    endloop
  endfacet
  facet normal 1.000000e+00 0.000000e+00 0.000000e+00
    outer loop
      vertex   2.075000e+01 2.228423e+02 2.719798e+01
      vertex   2.075000e+01 2.200000e+02 2.518982e+01
      vertex   2.075000e+01 2.228423e+02 2.518982e+01
    endloop
  endfacet
  facet normal -1.000000e+00 0.000000e+00 0.000000e+00
    outer loop
      vertex   -2.075000e+01 2.571577e+02 2.518982e+01
      vertex   -2.075000e+01 2.571577e+02 2.719799e+01
      vertex   -2.075000e+01 2.590000e+02 2.518982e+01
    endloop
  endfacet
  facet normal -1.000000e+00 0.000000e+00 0.000000e+00
    outer loop
      vertex   -2.075000e+01 2.590000e+02 2.518982e+01
      vertex   -2.075000e+01 2.571577e+02 2.719799e+01
      vertex   -2.075000e+01 2.590000e+02 2.939388e+01
    endloop
  endfacet
  facet normal -1.000000e+00 0.000000e+00 0.000000e+00
    outer loop
      vertex   -2.075000e+01 2.590000e+02 2.939388e+01
      vertex   -2.075000e+01 2.571577e+02 2.719799e+01
      vertex   -2.075000e+01 2.558637e+02 2.797247e+01
    endloop
  endfacet
  facet normal -1.000000e+00 0.000000e+00 0.000000e+00
    outer loop
      vertex   -2.075000e+01 2.590000e+02 2.939388e+01
      vertex   -2.075000e+01 2.558637e+02 2.797247e+01
      vertex   -2.075000e+01 2.545349e+02 2.868543e+01
    endloop
  endfacet
  facet normal -1.000000e+00 0.000000e+00 0.000000e+00
    outer loop
      vertex   -2.075000e+01 2.545349e+02 2.868543e+01
      vertex   -2.075000e+01 2.531741e+02 2.933531e+01
      vertex   -2.075000e+01 2.590000e+02 2.939388e+01
    endloop
  endfacet
  facet normal -1.000000e+00 -0.000000e+00 0.000000e+00
    outer loop
      vertex   -2.075000e+01 2.590000e+02 2.939388e+01
      vertex   -2.075000e+01 2.531741e+02 2.933531e+01
      vertex   -2.075000e+01 2.576444e+02 3.022704e+01
    endloop
  endfacet
  facet normal -1.000000e+00 0.000000e+00 0.000000e+00
    outer loop
      vertex   -2.075000e+01 2.576444e+02 3.022704e+01
      vertex   -2.075000e+01 2.531741e+02 2.933531e+01
      vertex   -2.075000e+01 2.517843e+02 2.992068e+01
    endloop
  endfacet
  facet normal -1.000000e+00 -0.000000e+00 0.000000e+00
    outer loop
      vertex   -2.075000e+01 2.576444e+02 3.022704e+01
      vertex   -2.075000e+01 2.517843e+02 2.992068e+01
      vertex   -2.075000e+01 2.562524e+02 3.099772e+01
    endloop
  endfacet
  facet normal -1.000000e+00 0.000000e+00 0.000000e+00
    outer loop
      vertex   -2.075000e+01 2.562524e+02 3.099772e+01
      vertex   -2.075000e+01 2.517843e+02 2.992068e+01
      vertex   -2.075000e+01 2.503686e+02 3.044025e+01
    endloop
  endfacet
  facet normal -1.000000e+00 -0.000000e+00 0.000000e+00
    outer loop
      vertex   -2.075000e+01 2.562524e+02 3.099772e+01
      vertex   -2.075000e+01 2.503686e+02 3.044025e+01
      vertex   -2.075000e+01 2.548268e+02 3.170435e+01
    endloop
  endfacet
  facet normal -1.000000e+00 0.000000e+00 0.000000e+00
    outer loop
      vertex   -2.075000e+01 2.548268e+02 3.170435e+01
      vertex   -2.075000e+01 2.503686e+02 3.044025e+01
      vertex   -2.075000e+01 2.489301e+02 3.089288e+01
    endloop
  endfacet
  facet normal -1.000000e+00 -0.000000e+00 0.000000e+00
    outer loop
      vertex   -2.075000e+01 2.548268e+02 3.170435e+01
      vertex   -2.075000e+01 2.489301e+02 3.089288e+01
      vertex   -2.075000e+01 2.533706e+02 3.234545e+01
    endloop
  endfacet
  facet normal -1.000000e+00 0.000000e+00 0.000000e+00
    outer loop
      vertex   -2.075000e+01 2.533706e+02 3.234545e+01
      vertex   -2.075000e+01 2.489301e+02 3.089288e+01
      vertex   -2.075000e+01 2.474719e+02 3.127757e+01
    endloop
  endfacet
  facet normal -1.000000e+00 -0.000000e+00 0.000000e+00
    outer loop
      vertex   -2.075000e+01 2.533706e+02 3.234545e+01
      vertex   -2.075000e+01 2.474719e+02 3.127757e+01
      vertex   -2.075000e+01 2.518867e+02 3.291971e+01
    endloop
  endfacet
  facet normal -1.000000e+00 0.000000e+00 0.000000e+00
    outer loop
      vertex   -2.075000e+01 2.518867e+02 3.291971e+01
      vertex   -2.075000e+01 2.474719e+02 3.127757e+01
      vertex   -2.075000e+01 2.459974e+02 3.159348e+01
    endloop
  endfacet
  facet normal -1.000000e+00 -0.000000e+00 0.000000e+00
    outer loop
      vertex   -2.075000e+01 2.518867e+02 3.291971e+01
      vertex   -2.075000e+01 2.459974e+02 3.159348e+01
      vertex   -2.075000e+01 2.503782e+02 3.342593e+01
    endloop
  endfacet
  facet normal -1.000000e+00 0.000000e+00 0.000000e+00
    outer loop
      vertex   -2.075000e+01 2.503782e+02 3.342593e+01
      vertex   -2.075000e+01 2.459974e+02 3.159348e+01
      vertex   -2.075000e+01 2.445096e+02 3.183991e+01
    endloop
  endfacet
  facet normal -1.000000e+00 -0.000000e+00 0.000000e+00
    outer loop
      vertex   -2.075000e+01 2.503782e+02 3.342593e+01
      vertex   -2.075000e+01 2.445096e+02 3.183991e+01
      vertex   -2.075000e+01 2.488483e+02 3.386307e+01
    endloop
  endfacet
  facet normal -1.000000e+00 0.000000e+00 0.000000e+00
    outer loop
      vertex   -2.075000e+01 2.488483e+02 3.386307e+01
      vertex   -2.075000e+01 2.445096e+02 3.183991e+01
      vertex   -2.075000e+01 2.430119e+02 3.201632e+01
    endloop
  endfacet
  facet normal -1.000000e+00 -0.000000e+00 0.000000e+00
    outer loop
      vertex   -2.075000e+01 2.488483e+02 3.386307e+01
      vertex   -2.075000e+01 2.430119e+02 3.201632e+01
      vertex   -2.075000e+01 2.473001e+02 3.423022e+01
    endloop
  endfacet
  facet normal -1.000000e+00 0.000000e+00 0.000000e+00
    outer loop
      vertex   -2.075000e+01 2.473001e+02 3.423022e+01
      vertex   -2.075000e+01 2.430119e+02 3.201632e+01
      vertex   -2.075000e+01 2.415076e+02 3.212232e+01
    endloop
  endfacet
  facet normal -1.000000e+00 -0.000000e+00 0.000000e+00
    outer loop
      vertex   -2.075000e+01 2.473001e+02 3.423022e+01
      vertex   -2.075000e+01 2.415076e+02 3.212232e+01
      vertex   -2.075000e+01 2.457369e+02 3.452663e+01
    endloop
  endfacet
  facet normal -1.000000e+00 -0.000000e+00 0.000000e+00
    outer loop
      vertex   -2.075000e+01 2.457369e+02 3.452663e+01
      vertex   -2.075000e+01 2.415076e+02 3.212232e+01
      vertex   -2.075000e+01 2.441617e+02 3.475169e+01
    endloop
  endfacet
  facet normal -1.000000e+00 -0.000000e+00 0.000000e+00
    outer loop
      vertex   -2.075000e+01 2.441617e+02 3.475169e+01
      vertex   -2.075000e+01 2.415076e+02 3.212232e+01
      vertex   -2.075000e+01 2.425780e+02 3.490493e+01
    endloop
  endfacet
  facet normal -1.000000e+00 0.000000e+00 0.000000e+00
    outer loop
      vertex   -2.075000e+01 2.425780e+02 3.490493e+01
      vertex   -2.075000e+01 2.415076e+02 3.212232e+01
      vertex   -2.075000e+01 2.400000e+02 3.215768e+01
    endloop
  endfacet
  facet normal -1.000000e+00 -0.000000e+00 0.000000e+00
    outer loop
      vertex   -2.075000e+01 2.425780e+02 3.490493e+01
      vertex   -2.075000e+01 2.400000e+02 3.215768e+01
      vertex   -2.075000e+01 2.409890e+02 3.498603e+01
    endloop
  endfacet
  facet normal -1.000000e+00 -0.000000e+00 0.000000e+00
    outer loop
      vertex   -2.075000e+01 2.409890e+02 3.498603e+01
      vertex   -2.075000e+01 2.400000e+02 3.215768e+01
      vertex   -2.075000e+01 2.393979e+02 3.499482e+01
    endloop
  endfacet
  facet normal -1.000000e+00 0.000000e+00 -0.000000e+00
    outer loop
      vertex   -2.075000e+01 2.393979e+02 3.499482e+01
      vertex   -2.075000e+01 2.400000e+02 3.215768e+01
      vertex   -2.075000e+01 2.378080e+02 3.493129e+01
    endloop
  endfacet
  facet normal -1.000000e+00 0.000000e+00 -0.000000e+00
    outer loop
      vertex   -2.075000e+01 2.378080e+02 3.493129e+01
      vertex   -2.075000e+01 2.400000e+02 3.215768e+01
      vertex   -2.075000e+01 2.362227e+02 3.479557e+01
    endloop
  endfacet
  facet normal -1.000000e+00 0.000000e+00 0.000000e+00
    outer loop
      vertex   -2.075000e+01 2.362227e+02 3.479557e+01
      vertex   -2.075000e+01 2.400000e+02 3.215768e+01
      vertex   -2.075000e+01 2.384924e+02 3.212232e+01
    endloop
  endfacet
  facet normal -1.000000e+00 0.000000e+00 -0.000000e+00
    outer loop
      vertex   -2.075000e+01 2.362227e+02 3.479557e+01
      vertex   -2.075000e+01 2.384924e+02 3.212232e+01
      vertex   -2.075000e+01 2.346451e+02 3.458794e+01
    endloop
  endfacet
  facet normal -1.000000e+00 0.000000e+00 -0.000000e+00
    outer loop
      vertex   -2.075000e+01 2.346451e+02 3.458794e+01
      vertex   -2.075000e+01 2.384924e+02 3.212232e+01
      vertex   -2.075000e+01 2.330787e+02 3.430883e+01
    endloop
  endfacet
  facet normal -1.000000e+00 0.000000e+00 0.000000e+00
    outer loop
      vertex   -2.075000e+01 2.330787e+02 3.430883e+01
      vertex   -2.075000e+01 2.384924e+02 3.212232e+01
      vertex   -2.075000e+01 2.369881e+02 3.201632e+01
    endloop
  endfacet
  facet normal -1.000000e+00 0.000000e+00 -0.000000e+00
    outer loop
      vertex   -2.075000e+01 2.330787e+02 3.430883e+01
      vertex   -2.075000e+01 2.369881e+02 3.201632e+01
      vertex   -2.075000e+01 2.315265e+02 3.395881e+01
    endloop
  endfacet
  facet normal -1.000000e+00 0.000000e+00 0.000000e+00
    outer loop
      vertex   -2.075000e+01 2.315265e+02 3.395881e+01
      vertex   -2.075000e+01 2.369881e+02 3.201632e+01
      vertex   -2.075000e+01 2.354904e+02 3.183991e+01
    endloop
  endfacet
  facet normal -1.000000e+00 0.000000e+00 -0.000000e+00
    outer loop
      vertex   -2.075000e+01 2.315265e+02 3.395881e+01
      vertex   -2.075000e+01 2.354904e+02 3.183991e+01
      vertex   -2.075000e+01 2.299919e+02 3.353861e+01
    endloop
  endfacet
  facet normal -1.000000e+00 0.000000e+00 -0.000000e+00
    outer loop
      vertex   -2.075000e+01 2.299919e+02 3.353861e+01
      vertex   -2.075000e+01 2.354904e+02 3.183991e+01
      vertex   -2.075000e+01 2.284780e+02 3.304909e+01
    endloop
  endfacet
  facet normal -1.000000e+00 0.000000e+00 0.000000e+00
    outer loop
      vertex   -2.075000e+01 2.284780e+02 3.304909e+01
      vertex   -2.075000e+01 2.354904e+02 3.183991e+01
      vertex   -2.075000e+01 2.340026e+02 3.159348e+01
    endloop
  endfacet
  facet normal -1.000000e+00 0.000000e+00 -0.000000e+00
    outer loop
      vertex   -2.075000e+01 2.284780e+02 3.304909e+01
      vertex   -2.075000e+01 2.340026e+02 3.159348e+01
      vertex   -2.075000e+01 2.269878e+02 3.249127e+01
    endloop
  endfacet
  facet normal -1.000000e+00 0.000000e+00 0.000000e+00
    outer loop
      vertex   -2.075000e+01 2.269878e+02 3.249127e+01
      vertex   -2.075000e+01 2.340026e+02 3.159348e+01
      vertex   -2.075000e+01 2.325281e+02 3.127757e+01
    endloop
  endfacet
  facet normal -1.000000e+00 0.000000e+00 -0.000000e+00
    outer loop
      vertex   -2.075000e+01 2.269878e+02 3.249127e+01
      vertex   -2.075000e+01 2.325281e+02 3.127757e+01
      vertex   -2.075000e+01 2.255246e+02 3.186631e+01
    endloop
  endfacet
  facet normal -1.000000e+00 0.000000e+00 0.000000e+00
    outer loop
      vertex   -2.075000e+01 2.255246e+02 3.186631e+01
      vertex   -2.075000e+01 2.325281e+02 3.127757e+01
      vertex   -2.075000e+01 2.310699e+02 3.089288e+01
    endloop
  endfacet
  facet normal -1.000000e+00 0.000000e+00 0.000000e+00
    outer loop
      vertex   -2.075000e+01 2.255246e+02 3.186631e+01
      vertex   -2.075000e+01 2.310699e+02 3.089288e+01
      vertex   -2.075000e+01 2.296314e+02 3.044025e+01
    endloop
  endfacet
  facet normal -1.000000e+00 0.000000e+00 -0.000000e+00
    outer loop
      vertex   -2.075000e+01 2.255246e+02 3.186631e+01
      vertex   -2.075000e+01 2.296314e+02 3.044025e+01
      vertex   -2.075000e+01 2.240912e+02 3.117549e+01
    endloop
  endfacet
  facet normal -1.000000e+00 0.000000e+00 0.000000e+00
    outer loop
      vertex   -2.075000e+01 2.240912e+02 3.117549e+01
      vertex   -2.075000e+01 2.296314e+02 3.044025e+01
      vertex   -2.075000e+01 2.282157e+02 2.992068e+01
    endloop
  endfacet
  facet normal -1.000000e+00 0.000000e+00 -0.000000e+00
    outer loop
      vertex   -2.075000e+01 2.240912e+02 3.117549e+01
      vertex   -2.075000e+01 2.282157e+02 2.992068e+01
      vertex   -2.075000e+01 2.226908e+02 3.042023e+01
    endloop
  endfacet
  facet normal -1.000000e+00 0.000000e+00 0.000000e+00
    outer loop
      vertex   -2.075000e+01 2.226908e+02 3.042023e+01
      vertex   -2.075000e+01 2.282157e+02 2.992068e+01
      vertex   -2.075000e+01 2.268259e+02 2.933531e+01
    endloop
  endfacet
  facet normal -1.000000e+00 0.000000e+00 -0.000000e+00
    outer loop
      vertex   -2.075000e+01 2.226908e+02 3.042023e+01
      vertex   -2.075000e+01 2.268259e+02 2.933531e+01
      vertex   -2.075000e+01 2.213261e+02 2.960211e+01
    endloop
  endfacet
  facet normal -1.000000e+00 0.000000e+00 0.000000e+00
    outer loop
      vertex   -2.075000e+01 2.213261e+02 2.960211e+01
      vertex   -2.075000e+01 2.268259e+02 2.933531e+01
      vertex   -2.075000e+01 2.254651e+02 2.868543e+01
    endloop
  endfacet
  facet normal -1.000000e+00 0.000000e+00 -0.000000e+00
    outer loop
      vertex   -2.075000e+01 2.213261e+02 2.960211e+01
      vertex   -2.075000e+01 2.254651e+02 2.868543e+01
      vertex   -2.075000e+01 2.200000e+02 2.872281e+01
    endloop
  endfacet
  facet normal -1.000000e+00 0.000000e+00 0.000000e+00
    outer loop
      vertex   -2.075000e+01 2.200000e+02 2.872281e+01
      vertex   -2.075000e+01 2.254651e+02 2.868543e+01
      vertex   -2.075000e+01 2.241363e+02 2.797246e+01
    endloop
  endfacet
  facet normal -1.000000e+00 0.000000e+00 0.000000e+00
    outer loop
      vertex   -2.075000e+01 2.200000e+02 2.872281e+01
      vertex   -2.075000e+01 2.241363e+02 2.797246e+01
      vertex   -2.075000e+01 2.228423e+02 2.719798e+01
    endloop
  endfacet
  facet normal -1.000000e+00 0.000000e+00 0.000000e+00
    outer loop
      vertex   -2.075000e+01 2.228423e+02 2.518982e+01
      vertex   -2.075000e+01 2.200000e+02 2.518982e+01
      vertex   -2.075000e+01 2.228423e+02 2.719798e+01
    endloop
  endfacet
  facet normal -1.000000e+00 -0.000000e+00 0.000000e+00
    outer loop
      vertex   -2.075000e+01 2.228423e+02 2.719798e+01
      vertex   -2.075000e+01 2.200000e+02 2.518982e+01
      vertex   -2.075000e+01 2.200000e+02 2.872281e+01
    endloop
  endfacet
endsolid
