solid ASCII
  facet normal 7.281381e-17 7.071068e-01 -7.071068e-01
    outer loop
      vertex   1.400000e+01 1.500000e+00 -4.700000e+00
      vertex   1.400000e+01 1.200000e+00 -5.000000e+00
      vertex   -1.187574e+01 1.500000e+00 -4.700000e+00
    endloop
  endfacet
  facet normal 0.000000e+00 7.071068e-01 -7.071068e-01
    outer loop
      vertex   -1.187574e+01 1.500000e+00 -4.700000e+00
      vertex   1.400000e+01 1.200000e+00 -5.000000e+00
      vertex   -1.200000e+01 1.200000e+00 -5.000000e+00
    endloop
  endfacet
  facet normal -7.071068e-01 7.071068e-01 -2.093457e-16
    outer loop
      vertex   -1.400000e+01 1.200000e+00 -3.000000e+00
      vertex   -1.400000e+01 1.200000e+00 3.000000e+00
      vertex   -1.370000e+01 1.500000e+00 -2.875736e+00
    endloop
  endfacet
  facet normal -7.071068e-01 7.071068e-01 -2.183917e-16
    outer loop
      vertex   -1.370000e+01 1.500000e+00 -2.875736e+00
      vertex   -1.400000e+01 1.200000e+00 3.000000e+00
      vertex   -1.370000e+01 1.500000e+00 2.875736e+00
    endloop
  endfacet
  facet normal -5.000000e-01 7.071068e-01 5.000000e-01
    outer loop
      vertex   -1.187574e+01 1.500000e+00 4.700000e+00
      vertex   -1.370000e+01 1.500000e+00 2.875736e+00
      vertex   -1.200000e+01 1.200000e+00 5.000000e+00
    endloop
  endfacet
  facet normal -5.000000e-01 7.071068e-01 5.000000e-01
    outer loop
      vertex   -1.200000e+01 1.200000e+00 5.000000e+00
      vertex   -1.370000e+01 1.500000e+00 2.875736e+00
      vertex   -1.400000e+01 1.200000e+00 3.000000e+00
    endloop
  endfacet
  facet normal -5.000000e-01 7.071068e-01 -5.000000e-01
    outer loop
      vertex   -1.200000e+01 1.200000e+00 -5.000000e+00
      vertex   -1.400000e+01 1.200000e+00 -3.000000e+00
      vertex   -1.187574e+01 1.500000e+00 -4.700000e+00
    endloop
  endfacet
  facet normal -5.000000e-01 7.071068e-01 -5.000000e-01
    outer loop
      vertex   -1.187574e+01 1.500000e+00 -4.700000e+00
      vertex   -1.400000e+01 1.200000e+00 -3.000000e+00
      vertex   -1.370000e+01 1.500000e+00 -2.875736e+00
    endloop
  endfacet
  facet normal 2.415527e-17 7.071068e-01 7.071068e-01
    outer loop
      vertex   -1.200000e+01 1.200000e+00 5.000000e+00
      vertex   1.400000e+01 1.200000e+00 5.000000e+00
      vertex   -1.187574e+01 1.500000e+00 4.700000e+00
    endloop
  endfacet
  facet normal 2.427127e-17 7.071068e-01 7.071068e-01
    outer loop
      vertex   -1.187574e+01 1.500000e+00 4.700000e+00
      vertex   1.400000e+01 1.200000e+00 5.000000e+00
      vertex   1.400000e+01 1.500000e+00 4.700000e+00
    endloop
  endfacet
  facet normal 1.000000e+00 1.889741e-16 -1.889741e-16
    outer loop
      vertex   1.400000e+01 1.500000e+00 -4.700000e+00
      vertex   1.400000e+01 1.500000e+00 4.700000e+00
      vertex   1.400000e+01 1.200000e+00 -5.000000e+00
    endloop
  endfacet
  facet normal 1.000000e+00 -1.776357e-16 -1.776357e-16
    outer loop
      vertex   1.400000e+01 1.200000e+00 -5.000000e+00
      vertex   1.400000e+01 1.500000e+00 4.700000e+00
      vertex   1.400000e+01 1.200000e+00 5.000000e+00
    endloop
  endfacet
  facet normal 1.000000e+00 0.000000e+00 -1.776357e-16
    outer loop
      vertex   1.400000e+01 1.200000e+00 -5.000000e+00
      vertex   1.400000e+01 1.200000e+00 5.000000e+00
      vertex   1.400000e+01 -1.000000e+00 -5.000000e+00
    endloop
  endfacet
  facet normal 1.000000e+00 0.000000e+00 -1.776357e-16
    outer loop
      vertex   1.400000e+01 -1.000000e+00 -5.000000e+00
      vertex   1.400000e+01 1.200000e+00 5.000000e+00
      vertex   1.400000e+01 -1.000000e+00 5.000000e+00
    endloop
  endfacet
  facet normal 3.416071e-17 4.037175e-16 1.000000e+00
    outer loop
      vertex   1.400000e+01 1.200000e+00 5.000000e+00
      vertex   -1.200000e+01 1.200000e+00 5.000000e+00
      vertex   1.400000e+01 -1.000000e+00 5.000000e+00
    endloop
  endfacet
  facet normal 6.832142e-17 8.074349e-16 1.000000e+00
    outer loop
      vertex   1.400000e+01 -1.000000e+00 5.000000e+00
      vertex   -1.200000e+01 1.200000e+00 5.000000e+00
      vertex   -1.200000e+01 -1.000000e+00 5.000000e+00
    endloop
  endfacet
  facet normal -7.071068e-01 5.709427e-16 7.071068e-01
    outer loop
      vertex   -1.200000e+01 1.200000e+00 5.000000e+00
      vertex   -1.400000e+01 1.200000e+00 3.000000e+00
      vertex   -1.200000e+01 -1.000000e+00 5.000000e+00
    endloop
  endfacet
  facet normal -7.071068e-01 0.000000e+00 7.071068e-01
    outer loop
      vertex   -1.200000e+01 -1.000000e+00 5.000000e+00
      vertex   -1.400000e+01 1.200000e+00 3.000000e+00
      vertex   -1.400000e+01 -1.000000e+00 3.000000e+00
    endloop
  endfacet
  facet normal -1.000000e+00 -0.000000e+00 -2.960595e-16
    outer loop
      vertex   -1.400000e+01 1.200000e+00 3.000000e+00
      vertex   -1.400000e+01 1.200000e+00 -3.000000e+00
      vertex   -1.400000e+01 -1.000000e+00 3.000000e+00
    endloop
  endfacet
  facet normal -1.000000e+00 0.000000e+00 -2.960595e-16
    outer loop
      vertex   -1.400000e+01 -1.000000e+00 3.000000e+00
      vertex   -1.400000e+01 1.200000e+00 -3.000000e+00
      vertex   -1.400000e+01 -1.000000e+00 -3.000000e+00
    endloop
  endfacet
  facet normal -7.071068e-01 -1.427357e-16 -7.071068e-01
    outer loop
      vertex   -1.400000e+01 1.200000e+00 -3.000000e+00
      vertex   -1.200000e+01 1.200000e+00 -5.000000e+00
      vertex   -1.400000e+01 -1.000000e+00 -3.000000e+00
    endloop
  endfacet
  facet normal -7.071068e-01 0.000000e+00 -7.071068e-01
    outer loop
      vertex   -1.400000e+01 -1.000000e+00 -3.000000e+00
      vertex   -1.200000e+01 1.200000e+00 -5.000000e+00
      vertex   -1.200000e+01 -1.000000e+00 -5.000000e+00
    endloop
  endfacet
  facet normal 0.000000e+00 1.000000e+00 0.000000e+00
    outer loop
      vertex   1.400000e+01 1.500000e+00 4.700000e+00
      vertex   8.740576e-01 1.500000e+00 4.000335e+00
      vertex   -1.187574e+01 1.500000e+00 4.700000e+00
    endloop
  endfacet
  facet normal 0.000000e+00 1.000000e+00 0.000000e+00
    outer loop
      vertex   -1.187574e+01 1.500000e+00 4.700000e+00
      vertex   8.740576e-01 1.500000e+00 4.000335e+00
      vertex   -3.925943e+00 1.500000e+00 4.000061e+00
    endloop
  endfacet
  facet normal 0.000000e+00 1.000000e+00 0.000000e+00
    outer loop
      vertex   -1.187574e+01 1.500000e+00 4.700000e+00
      vertex   -3.925943e+00 1.500000e+00 4.000061e+00
      vertex   -6.760229e+00 1.500000e+00 3.999899e+00
    endloop
  endfacet
  facet normal -0.000000e+00 1.000000e+00 0.000000e+00
    outer loop
      vertex   -6.760229e+00 1.500000e+00 3.999899e+00
      vertex   -3.925943e+00 1.500000e+00 4.000061e+00
      vertex   -3.925861e+00 1.500000e+00 2.571489e+00
    endloop
  endfacet
  facet normal 0.000000e+00 1.000000e+00 0.000000e+00
    outer loop
      vertex   -6.760229e+00 1.500000e+00 3.999899e+00
      vertex   -3.925861e+00 1.500000e+00 2.571489e+00
      vertex   -6.759854e+00 1.500000e+00 -2.560102e+00
    endloop
  endfacet
  facet normal 0.000000e+00 1.000000e+00 0.000000e+00
    outer loop
      vertex   -6.759854e+00 1.500000e+00 -2.560102e+00
      vertex   -3.925861e+00 1.500000e+00 2.571489e+00
      vertex   -3.628490e+00 1.500000e+00 -1.405637e+00
    endloop
  endfacet
  facet normal 0.000000e+00 1.000000e+00 0.000000e+00
    outer loop
      vertex   -6.759854e+00 1.500000e+00 -2.560102e+00
      vertex   -3.628490e+00 1.500000e+00 -1.405637e+00
      vertex   -4.668425e+00 1.500000e+00 -2.559982e+00
    endloop
  endfacet
  facet normal -0.000000e+00 1.000000e+00 0.000000e+00
    outer loop
      vertex   -4.668425e+00 1.500000e+00 -2.559982e+00
      vertex   -3.628490e+00 1.500000e+00 -1.405637e+00
      vertex   -4.302706e+00 1.500000e+00 -2.639961e+00
    endloop
  endfacet
  facet normal 0.000000e+00 1.000000e+00 0.000000e+00
    outer loop
      vertex   -4.668425e+00 1.500000e+00 -2.559982e+00
      vertex   -4.302706e+00 1.500000e+00 -2.639961e+00
      vertex   -4.668342e+00 1.500000e+00 -3.999982e+00
    endloop
  endfacet
  facet normal 0.000000e+00 1.000000e+00 0.000000e+00
    outer loop
      vertex   -4.668342e+00 1.500000e+00 -3.999982e+00
      vertex   -4.302706e+00 1.500000e+00 -2.639961e+00
      vertex   -1.914058e+00 1.500000e+00 -3.999825e+00
    endloop
  endfacet
  facet normal -0.000000e+00 1.000000e+00 0.000000e+00
    outer loop
      vertex   -4.668342e+00 1.500000e+00 -3.999982e+00
      vertex   -1.914058e+00 1.500000e+00 -3.999825e+00
      vertex   -1.187574e+01 1.500000e+00 -4.700000e+00
    endloop
  endfacet
  facet normal 0.000000e+00 1.000000e+00 0.000000e+00
    outer loop
      vertex   -1.187574e+01 1.500000e+00 -4.700000e+00
      vertex   -1.914058e+00 1.500000e+00 -3.999825e+00
      vertex   -4.512000e-01 1.500000e+00 -3.999741e+00
    endloop
  endfacet
  facet normal 0.000000e+00 1.000000e+00 0.000000e+00
    outer loop
      vertex   -1.187574e+01 1.500000e+00 -4.700000e+00
      vertex   -4.512000e-01 1.500000e+00 -3.999741e+00
      vertex   1.400000e+01 1.500000e+00 -4.700000e+00
    endloop
  endfacet
  facet normal 0.000000e+00 1.000000e+00 0.000000e+00
    outer loop
      vertex   1.400000e+01 1.500000e+00 -4.700000e+00
      vertex   -4.512000e-01 1.500000e+00 -3.999741e+00
      vertex   7.000000e+00 1.500000e+00 -1.750000e+00
    endloop
  endfacet
  facet normal 0.000000e+00 1.000000e+00 0.000000e+00
    outer loop
      vertex   1.400000e+01 1.500000e+00 -4.700000e+00
      vertex   7.000000e+00 1.500000e+00 -1.750000e+00
      vertex   1.100000e+01 1.500000e+00 -1.750000e+00
    endloop
  endfacet
  facet normal 0.000000e+00 1.000000e+00 0.000000e+00
    outer loop
      vertex   1.100000e+01 1.500000e+00 -1.750000e+00
      vertex   7.000000e+00 1.500000e+00 -1.750000e+00
      vertex   7.000000e+00 1.500000e+00 1.750000e+00
    endloop
  endfacet
  facet normal 0.000000e+00 1.000000e+00 -0.000000e+00
    outer loop
      vertex   1.100000e+01 1.500000e+00 -1.750000e+00
      vertex   7.000000e+00 1.500000e+00 1.750000e+00
      vertex   1.100000e+01 1.500000e+00 1.750000e+00
    endloop
  endfacet
  facet normal 0.000000e+00 1.000000e+00 -0.000000e+00
    outer loop
      vertex   1.100000e+01 1.500000e+00 1.750000e+00
      vertex   7.000000e+00 1.500000e+00 1.750000e+00
      vertex   1.400000e+01 1.500000e+00 4.700000e+00
    endloop
  endfacet
  facet normal 0.000000e+00 1.000000e+00 0.000000e+00
    outer loop
      vertex   1.100000e+01 1.500000e+00 1.750000e+00
      vertex   1.400000e+01 1.500000e+00 4.700000e+00
      vertex   1.250000e+01 1.500000e+00 1.750000e+00
    endloop
  endfacet
  facet normal -0.000000e+00 1.000000e+00 0.000000e+00
    outer loop
      vertex   1.250000e+01 1.500000e+00 1.750000e+00
      vertex   1.400000e+01 1.500000e+00 4.700000e+00
      vertex   1.400000e+01 1.500000e+00 -4.700000e+00
    endloop
  endfacet
  facet normal 0.000000e+00 1.000000e+00 0.000000e+00
    outer loop
      vertex   1.250000e+01 1.500000e+00 1.750000e+00
      vertex   1.400000e+01 1.500000e+00 -4.700000e+00
      vertex   1.250000e+01 1.500000e+00 -1.750000e+00
    endloop
  endfacet
  facet normal 0.000000e+00 1.000000e+00 0.000000e+00
    outer loop
      vertex   1.250000e+01 1.500000e+00 -1.750000e+00
      vertex   1.400000e+01 1.500000e+00 -4.700000e+00
      vertex   1.100000e+01 1.500000e+00 -1.750000e+00
    endloop
  endfacet
  facet normal 0.000000e+00 1.000000e+00 0.000000e+00
    outer loop
      vertex   -4.668342e+00 1.500000e+00 -3.999982e+00
      vertex   -1.187574e+01 1.500000e+00 -4.700000e+00
      vertex   -1.087406e+01 1.500000e+00 -4.000337e+00
    endloop
  endfacet
  facet normal 0.000000e+00 1.000000e+00 0.000000e+00
    outer loop
      vertex   -1.087406e+01 1.500000e+00 -4.000337e+00
      vertex   -1.187574e+01 1.500000e+00 -4.700000e+00
      vertex   -1.370000e+01 1.500000e+00 -2.875736e+00
    endloop
  endfacet
  facet normal 0.000000e+00 1.000000e+00 0.000000e+00
    outer loop
      vertex   -1.087406e+01 1.500000e+00 -4.000337e+00
      vertex   -1.370000e+01 1.500000e+00 -2.875736e+00
      vertex   -1.087414e+01 1.500000e+00 -2.560337e+00
    endloop
  endfacet
  facet normal 0.000000e+00 1.000000e+00 0.000000e+00
    outer loop
      vertex   -1.087414e+01 1.500000e+00 -2.560337e+00
      vertex   -1.370000e+01 1.500000e+00 -2.875736e+00
      vertex   -1.370000e+01 1.500000e+00 2.875736e+00
    endloop
  endfacet
  facet normal 0.000000e+00 1.000000e+00 -0.000000e+00
    outer loop
      vertex   -1.087414e+01 1.500000e+00 -2.560337e+00
      vertex   -1.370000e+01 1.500000e+00 2.875736e+00
      vertex   -8.759854e+00 1.500000e+00 -2.560216e+00
    endloop
  endfacet
  facet normal 0.000000e+00 1.000000e+00 0.000000e+00
    outer loop
      vertex   -8.759854e+00 1.500000e+00 -2.560216e+00
      vertex   -1.370000e+01 1.500000e+00 2.875736e+00
      vertex   -8.760229e+00 1.500000e+00 3.999785e+00
    endloop
  endfacet
  facet normal 0.000000e+00 1.000000e+00 0.000000e+00
    outer loop
      vertex   -8.760229e+00 1.500000e+00 3.999785e+00
      vertex   -1.370000e+01 1.500000e+00 2.875736e+00
      vertex   -1.187574e+01 1.500000e+00 4.700000e+00
    endloop
  endfacet
  facet normal 0.000000e+00 1.000000e+00 -0.000000e+00
    outer loop
      vertex   -8.760229e+00 1.500000e+00 3.999785e+00
      vertex   -1.187574e+01 1.500000e+00 4.700000e+00
      vertex   -6.760229e+00 1.500000e+00 3.999899e+00
    endloop
  endfacet
  facet normal 0.000000e+00 1.000000e+00 0.000000e+00
    outer loop
      vertex   1.400000e+01 1.500000e+00 4.700000e+00
      vertex   7.000000e+00 1.500000e+00 1.750000e+00
      vertex   8.740576e-01 1.500000e+00 4.000335e+00
    endloop
  endfacet
  facet normal 0.000000e+00 1.000000e+00 0.000000e+00
    outer loop
      vertex   8.740576e-01 1.500000e+00 4.000335e+00
      vertex   7.000000e+00 1.500000e+00 1.750000e+00
      vertex   5.500000e+00 1.500000e+00 1.750000e+00
    endloop
  endfacet
  facet normal 0.000000e+00 1.000000e+00 0.000000e+00
    outer loop
      vertex   8.740576e-01 1.500000e+00 4.000335e+00
      vertex   5.500000e+00 1.500000e+00 1.750000e+00
      vertex   8.741392e-01 1.500000e+00 2.571763e+00
    endloop
  endfacet
  facet normal 0.000000e+00 1.000000e+00 0.000000e+00
    outer loop
      vertex   8.741392e-01 1.500000e+00 2.571763e+00
      vertex   5.500000e+00 1.500000e+00 1.750000e+00
      vertex   -4.515754e-01 1.500000e+00 2.571687e+00
    endloop
  endfacet
  facet normal 0.000000e+00 1.000000e+00 0.000000e+00
    outer loop
      vertex   -4.515754e-01 1.500000e+00 2.571687e+00
      vertex   5.500000e+00 1.500000e+00 1.750000e+00
      vertex   5.500000e+00 1.500000e+00 -1.750000e+00
    endloop
  endfacet
  facet normal 0.000000e+00 1.000000e+00 0.000000e+00
    outer loop
      vertex   -4.515754e-01 1.500000e+00 2.571687e+00
      vertex   5.500000e+00 1.500000e+00 -1.750000e+00
      vertex   -4.512000e-01 1.500000e+00 -3.999741e+00
    endloop
  endfacet
  facet normal 0.000000e+00 1.000000e+00 0.000000e+00
    outer loop
      vertex   -4.512000e-01 1.500000e+00 -3.999741e+00
      vertex   5.500000e+00 1.500000e+00 -1.750000e+00
      vertex   7.000000e+00 1.500000e+00 -1.750000e+00
    endloop
  endfacet
  facet normal -0.000000e+00 1.000000e+00 0.000000e+00
    outer loop
      vertex   -3.925861e+00 1.500000e+00 2.571489e+00
      vertex   -2.394432e+00 1.500000e+00 2.571576e+00
      vertex   -3.628490e+00 1.500000e+00 -1.405637e+00
    endloop
  endfacet
  facet normal -0.000000e+00 1.000000e+00 0.000000e+00
    outer loop
      vertex   -3.628490e+00 1.500000e+00 -1.405637e+00
      vertex   -2.394432e+00 1.500000e+00 2.571576e+00
      vertex   -2.394173e+00 1.500000e+00 -1.965567e+00
    endloop
  endfacet
  facet normal 1.000000e+00 -0.000000e+00 0.000000e+00
    outer loop
      vertex   1.100000e+01 -1.000000e+00 1.750000e+00
      vertex   1.100000e+01 -1.000000e+00 -1.750000e+00
      vertex   1.100000e+01 1.500000e+00 1.750000e+00
    endloop
  endfacet
  facet normal 1.000000e+00 0.000000e+00 0.000000e+00
    outer loop
      vertex   1.100000e+01 1.500000e+00 1.750000e+00
      vertex   1.100000e+01 -1.000000e+00 -1.750000e+00
      vertex   1.100000e+01 1.500000e+00 -1.750000e+00
    endloop
  endfacet
  facet normal 0.000000e+00 0.000000e+00 1.000000e+00
    outer loop
      vertex   1.100000e+01 -1.000000e+00 -1.750000e+00
      vertex   1.250000e+01 -1.000000e+00 -1.750000e+00
      vertex   1.100000e+01 1.500000e+00 -1.750000e+00
    endloop
  endfacet
  facet normal -0.000000e+00 0.000000e+00 1.000000e+00
    outer loop
      vertex   1.100000e+01 1.500000e+00 -1.750000e+00
      vertex   1.250000e+01 -1.000000e+00 -1.750000e+00
      vertex   1.250000e+01 1.500000e+00 -1.750000e+00
    endloop
  endfacet
  facet normal -1.000000e+00 0.000000e+00 -5.075305e-16
    outer loop
      vertex   1.250000e+01 -1.000000e+00 -1.750000e+00
      vertex   1.250000e+01 -1.000000e+00 1.750000e+00
      vertex   1.250000e+01 1.500000e+00 -1.750000e+00
    endloop
  endfacet
  facet normal -1.000000e+00 0.000000e+00 -5.075305e-16
    outer loop
      vertex   1.250000e+01 1.500000e+00 -1.750000e+00
      vertex   1.250000e+01 -1.000000e+00 1.750000e+00
      vertex   1.250000e+01 1.500000e+00 1.750000e+00
    endloop
  endfacet
  facet normal 0.000000e+00 0.000000e+00 -1.000000e+00
    outer loop
      vertex   1.250000e+01 -1.000000e+00 1.750000e+00
      vertex   1.100000e+01 -1.000000e+00 1.750000e+00
      vertex   1.250000e+01 1.500000e+00 1.750000e+00
    endloop
  endfacet
  facet normal -0.000000e+00 0.000000e+00 -1.000000e+00
    outer loop
      vertex   1.250000e+01 1.500000e+00 1.750000e+00
      vertex   1.100000e+01 -1.000000e+00 1.750000e+00
      vertex   1.100000e+01 1.500000e+00 1.750000e+00
    endloop
  endfacet
  facet normal 1.000000e+00 0.000000e+00 -2.537653e-16
    outer loop
      vertex   5.500000e+00 -1.000000e+00 1.750000e+00
      vertex   5.500000e+00 -1.000000e+00 -1.750000e+00
      vertex   5.500000e+00 1.500000e+00 1.750000e+00
    endloop
  endfacet
  facet normal 1.000000e+00 0.000000e+00 -2.537653e-16
    outer loop
      vertex   5.500000e+00 1.500000e+00 1.750000e+00
      vertex   5.500000e+00 -1.000000e+00 -1.750000e+00
      vertex   5.500000e+00 1.500000e+00 -1.750000e+00
    endloop
  endfacet
  facet normal 7.401487e-16 -0.000000e+00 1.000000e+00
    outer loop
      vertex   5.500000e+00 -1.000000e+00 -1.750000e+00
      vertex   7.000000e+00 -1.000000e+00 -1.750000e+00
      vertex   5.500000e+00 1.500000e+00 -1.750000e+00
    endloop
  endfacet
  facet normal 7.401487e-16 0.000000e+00 1.000000e+00
    outer loop
      vertex   5.500000e+00 1.500000e+00 -1.750000e+00
      vertex   7.000000e+00 -1.000000e+00 -1.750000e+00
      vertex   7.000000e+00 1.500000e+00 -1.750000e+00
    endloop
  endfacet
  facet normal -1.000000e+00 0.000000e+00 0.000000e+00
    outer loop
      vertex   7.000000e+00 -1.000000e+00 -1.750000e+00
      vertex   7.000000e+00 -1.000000e+00 1.750000e+00
      vertex   7.000000e+00 1.500000e+00 -1.750000e+00
    endloop
  endfacet
  facet normal -1.000000e+00 0.000000e+00 0.000000e+00
    outer loop
      vertex   7.000000e+00 1.500000e+00 -1.750000e+00
      vertex   7.000000e+00 -1.000000e+00 1.750000e+00
      vertex   7.000000e+00 1.500000e+00 1.750000e+00
    endloop
  endfacet
  facet normal -7.401487e-16 0.000000e+00 -1.000000e+00
    outer loop
      vertex   7.000000e+00 -1.000000e+00 1.750000e+00
      vertex   5.500000e+00 -1.000000e+00 1.750000e+00
      vertex   7.000000e+00 1.500000e+00 1.750000e+00
    endloop
  endfacet
  facet normal -7.401487e-16 0.000000e+00 -1.000000e+00
    outer loop
      vertex   7.000000e+00 1.500000e+00 1.750000e+00
      vertex   5.500000e+00 -1.000000e+00 1.750000e+00
      vertex   5.500000e+00 1.500000e+00 1.750000e+00
    endloop
  endfacet
  facet normal 0.000000e+00 -1.000000e+00 0.000000e+00
    outer loop
      vertex   -1.200000e+01 -1.000000e+00 -5.000000e+00
      vertex   5.500000e+00 -1.000000e+00 -1.750000e+00
      vertex   -1.400000e+01 -1.000000e+00 -3.000000e+00
    endloop
  endfacet
  facet normal 0.000000e+00 -1.000000e+00 0.000000e+00
    outer loop
      vertex   -1.400000e+01 -1.000000e+00 -3.000000e+00
      vertex   5.500000e+00 -1.000000e+00 -1.750000e+00
      vertex   5.500000e+00 -1.000000e+00 1.750000e+00
    endloop
  endfacet
  facet normal 0.000000e+00 -1.000000e+00 0.000000e+00
    outer loop
      vertex   -1.400000e+01 -1.000000e+00 -3.000000e+00
      vertex   5.500000e+00 -1.000000e+00 1.750000e+00
      vertex   -1.400000e+01 -1.000000e+00 3.000000e+00
    endloop
  endfacet
  facet normal 0.000000e+00 -1.000000e+00 0.000000e+00
    outer loop
      vertex   -1.400000e+01 -1.000000e+00 3.000000e+00
      vertex   5.500000e+00 -1.000000e+00 1.750000e+00
      vertex   -1.200000e+01 -1.000000e+00 5.000000e+00
    endloop
  endfacet
  facet normal 0.000000e+00 -1.000000e+00 0.000000e+00
    outer loop
      vertex   -1.200000e+01 -1.000000e+00 5.000000e+00
      vertex   5.500000e+00 -1.000000e+00 1.750000e+00
      vertex   1.400000e+01 -1.000000e+00 5.000000e+00
    endloop
  endfacet
  facet normal 0.000000e+00 -1.000000e+00 0.000000e+00
    outer loop
      vertex   1.400000e+01 -1.000000e+00 5.000000e+00
      vertex   5.500000e+00 -1.000000e+00 1.750000e+00
      vertex   7.000000e+00 -1.000000e+00 1.750000e+00
    endloop
  endfacet
  facet normal 0.000000e+00 -1.000000e+00 0.000000e+00
    outer loop
      vertex   1.400000e+01 -1.000000e+00 5.000000e+00
      vertex   7.000000e+00 -1.000000e+00 1.750000e+00
      vertex   1.100000e+01 -1.000000e+00 1.750000e+00
    endloop
  endfacet
  facet normal -0.000000e+00 -1.000000e+00 0.000000e+00
    outer loop
      vertex   1.100000e+01 -1.000000e+00 1.750000e+00
      vertex   7.000000e+00 -1.000000e+00 1.750000e+00
      vertex   7.000000e+00 -1.000000e+00 -1.750000e+00
    endloop
  endfacet
  facet normal 0.000000e+00 -1.000000e+00 -0.000000e+00
    outer loop
      vertex   1.100000e+01 -1.000000e+00 1.750000e+00
      vertex   7.000000e+00 -1.000000e+00 -1.750000e+00
      vertex   1.100000e+01 -1.000000e+00 -1.750000e+00
    endloop
  endfacet
  facet normal -0.000000e+00 -1.000000e+00 -0.000000e+00
    outer loop
      vertex   1.100000e+01 -1.000000e+00 -1.750000e+00
      vertex   7.000000e+00 -1.000000e+00 -1.750000e+00
      vertex   1.400000e+01 -1.000000e+00 -5.000000e+00
    endloop
  endfacet
  facet normal 0.000000e+00 -1.000000e+00 0.000000e+00
    outer loop
      vertex   1.100000e+01 -1.000000e+00 -1.750000e+00
      vertex   1.400000e+01 -1.000000e+00 -5.000000e+00
      vertex   1.250000e+01 -1.000000e+00 -1.750000e+00
    endloop
  endfacet
  facet normal 0.000000e+00 -1.000000e+00 0.000000e+00
    outer loop
      vertex   1.250000e+01 -1.000000e+00 -1.750000e+00
      vertex   1.400000e+01 -1.000000e+00 -5.000000e+00
      vertex   1.400000e+01 -1.000000e+00 5.000000e+00
    endloop
  endfacet
  facet normal 0.000000e+00 -1.000000e+00 0.000000e+00
    outer loop
      vertex   1.250000e+01 -1.000000e+00 -1.750000e+00
      vertex   1.400000e+01 -1.000000e+00 5.000000e+00
      vertex   1.250000e+01 -1.000000e+00 1.750000e+00
    endloop
  endfacet
  facet normal 0.000000e+00 -1.000000e+00 0.000000e+00
    outer loop
      vertex   1.250000e+01 -1.000000e+00 1.750000e+00
      vertex   1.400000e+01 -1.000000e+00 5.000000e+00
      vertex   1.100000e+01 -1.000000e+00 1.750000e+00
    endloop
  endfacet
  facet normal 0.000000e+00 -1.000000e+00 0.000000e+00
    outer loop
      vertex   -1.200000e+01 -1.000000e+00 -5.000000e+00
      vertex   1.400000e+01 -1.000000e+00 -5.000000e+00
      vertex   5.500000e+00 -1.000000e+00 -1.750000e+00
    endloop
  endfacet
  facet normal 0.000000e+00 -1.000000e+00 0.000000e+00
    outer loop
      vertex   5.500000e+00 -1.000000e+00 -1.750000e+00
      vertex   1.400000e+01 -1.000000e+00 -5.000000e+00
      vertex   7.000000e+00 -1.000000e+00 -1.750000e+00
    endloop
  endfacet
  facet normal -5.712543e-05 0.000000e+00 1.000000e+00
    outer loop
      vertex   -6.759854e+00 1.500000e+00 -2.560102e+00
      vertex   -4.668425e+00 1.500000e+00 -2.559982e+00
      vertex   -6.759854e+00 2.500000e+00 -2.560102e+00
    endloop
  endfacet
  facet normal -5.712543e-05 0.000000e+00 1.000000e+00
    outer loop
      vertex   -6.759854e+00 2.500000e+00 -2.560102e+00
      vertex   -4.668425e+00 1.500000e+00 -2.559982e+00
      vertex   -4.668425e+00 2.500000e+00 -2.559982e+00
    endloop
  endfacet
  facet normal 1.000000e+00 -0.000000e+00 5.712543e-05
    outer loop
      vertex   -6.760229e+00 1.500000e+00 3.999899e+00
      vertex   -6.759854e+00 1.500000e+00 -2.560102e+00
      vertex   -6.760229e+00 2.500000e+00 3.999899e+00
    endloop
  endfacet
  facet normal 1.000000e+00 0.000000e+00 5.712543e-05
    outer loop
      vertex   -6.760229e+00 2.500000e+00 3.999899e+00
      vertex   -6.759854e+00 1.500000e+00 -2.560102e+00
      vertex   -6.759854e+00 2.500000e+00 -2.560102e+00
    endloop
  endfacet
  facet normal -5.712543e-05 0.000000e+00 1.000000e+00
    outer loop
      vertex   -8.760229e+00 1.500000e+00 3.999785e+00
      vertex   -6.760229e+00 1.500000e+00 3.999899e+00
      vertex   -8.760229e+00 2.500000e+00 3.999785e+00
    endloop
  endfacet
  facet normal -5.712543e-05 0.000000e+00 1.000000e+00
    outer loop
      vertex   -8.760229e+00 2.500000e+00 3.999785e+00
      vertex   -6.760229e+00 1.500000e+00 3.999899e+00
      vertex   -6.760229e+00 2.500000e+00 3.999899e+00
    endloop
  endfacet
  facet normal -1.000000e+00 0.000000e+00 -5.712543e-05
    outer loop
      vertex   -8.759854e+00 1.500000e+00 -2.560216e+00
      vertex   -8.760229e+00 1.500000e+00 3.999785e+00
      vertex   -8.759854e+00 2.500000e+00 -2.560216e+00
    endloop
  endfacet
  facet normal -1.000000e+00 0.000000e+00 -5.712543e-05
    outer loop
      vertex   -8.759854e+00 2.500000e+00 -2.560216e+00
      vertex   -8.760229e+00 1.500000e+00 3.999785e+00
      vertex   -8.760229e+00 2.500000e+00 3.999785e+00
    endloop
  endfacet
  facet normal -5.712543e-05 0.000000e+00 1.000000e+00
    outer loop
      vertex   -1.087414e+01 1.500000e+00 -2.560337e+00
      vertex   -8.759854e+00 1.500000e+00 -2.560216e+00
      vertex   -1.087414e+01 2.500000e+00 -2.560337e+00
    endloop
  endfacet
  facet normal -5.712543e-05 0.000000e+00 1.000000e+00
    outer loop
      vertex   -1.087414e+01 2.500000e+00 -2.560337e+00
      vertex   -8.759854e+00 1.500000e+00 -2.560216e+00
      vertex   -8.759854e+00 2.500000e+00 -2.560216e+00
    endloop
  endfacet
  facet normal -1.000000e+00 0.000000e+00 -5.712543e-05
    outer loop
      vertex   -1.087406e+01 1.500000e+00 -4.000337e+00
      vertex   -1.087414e+01 1.500000e+00 -2.560337e+00
      vertex   -1.087406e+01 2.500000e+00 -4.000337e+00
    endloop
  endfacet
  facet normal -1.000000e+00 0.000000e+00 -5.712543e-05
    outer loop
      vertex   -1.087406e+01 2.500000e+00 -4.000337e+00
      vertex   -1.087414e+01 1.500000e+00 -2.560337e+00
      vertex   -1.087414e+01 2.500000e+00 -2.560337e+00
    endloop
  endfacet
  facet normal 5.712543e-05 0.000000e+00 -1.000000e+00
    outer loop
      vertex   -4.668342e+00 1.500000e+00 -3.999982e+00
      vertex   -1.087406e+01 1.500000e+00 -4.000337e+00
      vertex   -4.668342e+00 2.500000e+00 -3.999982e+00
    endloop
  endfacet
  facet normal 5.712543e-05 0.000000e+00 -1.000000e+00
    outer loop
      vertex   -4.668342e+00 2.500000e+00 -3.999982e+00
      vertex   -1.087406e+01 1.500000e+00 -4.000337e+00
      vertex   -1.087406e+01 2.500000e+00 -4.000337e+00
    endloop
  endfacet
  facet normal 1.000000e+00 -0.000000e+00 5.712543e-05
    outer loop
      vertex   -4.668425e+00 1.500000e+00 -2.559982e+00
      vertex   -4.668342e+00 1.500000e+00 -3.999982e+00
      vertex   -4.668425e+00 2.500000e+00 -2.559982e+00
    endloop
  endfacet
  facet normal 1.000000e+00 0.000000e+00 5.712543e-05
    outer loop
      vertex   -4.668425e+00 2.500000e+00 -2.559982e+00
      vertex   -4.668342e+00 1.500000e+00 -3.999982e+00
      vertex   -4.668342e+00 2.500000e+00 -3.999982e+00
    endloop
  endfacet
  facet normal 0.000000e+00 1.000000e+00 0.000000e+00
    outer loop
      vertex   -4.668425e+00 2.500000e+00 -2.559982e+00
      vertex   -4.668342e+00 2.500000e+00 -3.999982e+00
      vertex   -6.759854e+00 2.500000e+00 -2.560102e+00
    endloop
  endfacet
  facet normal 0.000000e+00 1.000000e+00 0.000000e+00
    outer loop
      vertex   -6.759854e+00 2.500000e+00 -2.560102e+00
      vertex   -4.668342e+00 2.500000e+00 -3.999982e+00
      vertex   -8.759854e+00 2.500000e+00 -2.560216e+00
    endloop
  endfacet
  facet normal 0.000000e+00 1.000000e+00 0.000000e+00
    outer loop
      vertex   -6.759854e+00 2.500000e+00 -2.560102e+00
      vertex   -8.759854e+00 2.500000e+00 -2.560216e+00
      vertex   -6.760229e+00 2.500000e+00 3.999899e+00
    endloop
  endfacet
  facet normal 0.000000e+00 1.000000e+00 0.000000e+00
    outer loop
      vertex   -6.760229e+00 2.500000e+00 3.999899e+00
      vertex   -8.759854e+00 2.500000e+00 -2.560216e+00
      vertex   -8.760229e+00 2.500000e+00 3.999785e+00
    endloop
  endfacet
  facet normal 0.000000e+00 1.000000e+00 0.000000e+00
    outer loop
      vertex   -4.668342e+00 2.500000e+00 -3.999982e+00
      vertex   -1.087406e+01 2.500000e+00 -4.000337e+00
      vertex   -8.759854e+00 2.500000e+00 -2.560216e+00
    endloop
  endfacet
  facet normal 0.000000e+00 1.000000e+00 0.000000e+00
    outer loop
      vertex   -8.759854e+00 2.500000e+00 -2.560216e+00
      vertex   -1.087406e+01 2.500000e+00 -4.000337e+00
      vertex   -1.087414e+01 2.500000e+00 -2.560337e+00
    endloop
  endfacet
  facet normal 1.000000e+00 1.110223e-16 5.712543e-05
    outer loop
      vertex   8.740576e-01 1.500000e+00 4.000335e+00
      vertex   8.741392e-01 1.500000e+00 2.571763e+00
      vertex   8.740576e-01 2.500000e+00 4.000335e+00
    endloop
  endfacet
  facet normal 1.000000e+00 0.000000e+00 5.712543e-05
    outer loop
      vertex   8.740576e-01 2.500000e+00 4.000335e+00
      vertex   8.741392e-01 1.500000e+00 2.571763e+00
      vertex   8.741392e-01 2.500000e+00 2.571763e+00
    endloop
  endfacet
  facet normal -5.712543e-05 0.000000e+00 1.000000e+00
    outer loop
      vertex   -3.925943e+00 1.500000e+00 4.000061e+00
      vertex   8.740576e-01 1.500000e+00 4.000335e+00
      vertex   -3.925943e+00 2.500000e+00 4.000061e+00
    endloop
  endfacet
  facet normal -5.712543e-05 0.000000e+00 1.000000e+00
    outer loop
      vertex   -3.925943e+00 2.500000e+00 4.000061e+00
      vertex   8.740576e-01 1.500000e+00 4.000335e+00
      vertex   8.740576e-01 2.500000e+00 4.000335e+00
    endloop
  endfacet
  facet normal -1.000000e+00 0.000000e+00 -5.712543e-05
    outer loop
      vertex   -3.925861e+00 1.500000e+00 2.571489e+00
      vertex   -3.925943e+00 1.500000e+00 4.000061e+00
      vertex   -3.925861e+00 2.500000e+00 2.571489e+00
    endloop
  endfacet
  facet normal -1.000000e+00 0.000000e+00 -5.712543e-05
    outer loop
      vertex   -3.925861e+00 2.500000e+00 2.571489e+00
      vertex   -3.925943e+00 1.500000e+00 4.000061e+00
      vertex   -3.925943e+00 2.500000e+00 4.000061e+00
    endloop
  endfacet
  facet normal 5.712543e-05 0.000000e+00 -1.000000e+00
    outer loop
      vertex   -2.394432e+00 1.500000e+00 2.571576e+00
      vertex   -3.925861e+00 1.500000e+00 2.571489e+00
      vertex   -2.394432e+00 2.500000e+00 2.571576e+00
    endloop
  endfacet
  facet normal 5.712543e-05 0.000000e+00 -1.000000e+00
    outer loop
      vertex   -2.394432e+00 2.500000e+00 2.571576e+00
      vertex   -3.925861e+00 1.500000e+00 2.571489e+00
      vertex   -3.925861e+00 2.500000e+00 2.571489e+00
    endloop
  endfacet
  facet normal -1.000000e+00 0.000000e+00 -5.712543e-05
    outer loop
      vertex   -2.394173e+00 1.500000e+00 -1.965567e+00
      vertex   -2.394432e+00 1.500000e+00 2.571576e+00
      vertex   -2.394173e+00 2.500000e+00 -1.965567e+00
    endloop
  endfacet
  facet normal -1.000000e+00 0.000000e+00 -5.712543e-05
    outer loop
      vertex   -2.394173e+00 2.500000e+00 -1.965567e+00
      vertex   -2.394432e+00 1.500000e+00 2.571576e+00
      vertex   -2.394432e+00 2.500000e+00 2.571576e+00
    endloop
  endfacet
  facet normal 4.131158e-01 -0.000000e+00 9.106785e-01
    outer loop
      vertex   -3.628490e+00 1.500000e+00 -1.405637e+00
      vertex   -2.394173e+00 1.500000e+00 -1.965567e+00
      vertex   -3.628490e+00 2.500000e+00 -1.405637e+00
    endloop
  endfacet
  facet normal 4.131158e-01 0.000000e+00 9.106785e-01
    outer loop
      vertex   -3.628490e+00 2.500000e+00 -1.405637e+00
      vertex   -2.394173e+00 1.500000e+00 -1.965567e+00
      vertex   -2.394173e+00 2.500000e+00 -1.965567e+00
    endloop
  endfacet
  facet normal -8.776120e-01 0.000000e+00 4.793716e-01
    outer loop
      vertex   -4.302706e+00 1.500000e+00 -2.639961e+00
      vertex   -3.628490e+00 1.500000e+00 -1.405637e+00
      vertex   -4.302706e+00 2.500000e+00 -2.639961e+00
    endloop
  endfacet
  facet normal -8.776120e-01 0.000000e+00 4.793716e-01
    outer loop
      vertex   -4.302706e+00 2.500000e+00 -2.639961e+00
      vertex   -3.628490e+00 1.500000e+00 -1.405637e+00
      vertex   -3.628490e+00 2.500000e+00 -1.405637e+00
    endloop
  endfacet
  facet normal -4.947456e-01 0.000000e+00 -8.690379e-01
    outer loop
      vertex   -1.914058e+00 1.500000e+00 -3.999825e+00
      vertex   -4.302706e+00 1.500000e+00 -2.639961e+00
      vertex   -1.914058e+00 2.500000e+00 -3.999825e+00
    endloop
  endfacet
  facet normal -4.947456e-01 0.000000e+00 -8.690379e-01
    outer loop
      vertex   -1.914058e+00 2.500000e+00 -3.999825e+00
      vertex   -4.302706e+00 1.500000e+00 -2.639961e+00
      vertex   -4.302706e+00 2.500000e+00 -2.639961e+00
    endloop
  endfacet
  facet normal 5.712543e-05 4.440892e-16 -1.000000e+00
    outer loop
      vertex   -4.512000e-01 1.500000e+00 -3.999741e+00
      vertex   -1.914058e+00 1.500000e+00 -3.999825e+00
      vertex   -4.512000e-01 2.500000e+00 -3.999741e+00
    endloop
  endfacet
  facet normal 5.712543e-05 0.000000e+00 -1.000000e+00
    outer loop
      vertex   -4.512000e-01 2.500000e+00 -3.999741e+00
      vertex   -1.914058e+00 1.500000e+00 -3.999825e+00
      vertex   -1.914058e+00 2.500000e+00 -3.999825e+00
    endloop
  endfacet
  facet normal 1.000000e+00 -0.000000e+00 5.712543e-05
    outer loop
      vertex   -4.515754e-01 1.500000e+00 2.571687e+00
      vertex   -4.512000e-01 1.500000e+00 -3.999741e+00
      vertex   -4.515754e-01 2.500000e+00 2.571687e+00
    endloop
  endfacet
  facet normal 1.000000e+00 0.000000e+00 5.712543e-05
    outer loop
      vertex   -4.515754e-01 2.500000e+00 2.571687e+00
      vertex   -4.512000e-01 1.500000e+00 -3.999741e+00
      vertex   -4.512000e-01 2.500000e+00 -3.999741e+00
    endloop
  endfacet
  facet normal 5.712543e-05 0.000000e+00 -1.000000e+00
    outer loop
      vertex   8.741392e-01 1.500000e+00 2.571763e+00
      vertex   -4.515754e-01 1.500000e+00 2.571687e+00
      vertex   8.741392e-01 2.500000e+00 2.571763e+00
    endloop
  endfacet
  facet normal 5.712543e-05 0.000000e+00 -1.000000e+00
    outer loop
      vertex   8.741392e-01 2.500000e+00 2.571763e+00
      vertex   -4.515754e-01 1.500000e+00 2.571687e+00
      vertex   -4.515754e-01 2.500000e+00 2.571687e+00
    endloop
  endfacet
  facet normal 0.000000e+00 1.000000e+00 0.000000e+00
    outer loop
      vertex   8.741392e-01 2.500000e+00 2.571763e+00
      vertex   -4.515754e-01 2.500000e+00 2.571687e+00
      vertex   8.740576e-01 2.500000e+00 4.000335e+00
    endloop
  endfacet
  facet normal 0.000000e+00 1.000000e+00 0.000000e+00
    outer loop
      vertex   8.740576e-01 2.500000e+00 4.000335e+00
      vertex   -4.515754e-01 2.500000e+00 2.571687e+00
      vertex   -2.394432e+00 2.500000e+00 2.571576e+00
    endloop
  endfacet
  facet normal 0.000000e+00 1.000000e+00 0.000000e+00
    outer loop
      vertex   8.740576e-01 2.500000e+00 4.000335e+00
      vertex   -2.394432e+00 2.500000e+00 2.571576e+00
      vertex   -3.925943e+00 2.500000e+00 4.000061e+00
    endloop
  endfacet
  facet normal 0.000000e+00 1.000000e+00 0.000000e+00
    outer loop
      vertex   -3.925943e+00 2.500000e+00 4.000061e+00
      vertex   -2.394432e+00 2.500000e+00 2.571576e+00
      vertex   -3.925861e+00 2.500000e+00 2.571489e+00
    endloop
  endfacet
  facet normal -0.000000e+00 1.000000e+00 0.000000e+00
    outer loop
      vertex   -2.394432e+00 2.500000e+00 2.571576e+00
      vertex   -4.515754e-01 2.500000e+00 2.571687e+00
      vertex   -2.394173e+00 2.500000e+00 -1.965567e+00
    endloop
  endfacet
  facet normal -0.000000e+00 1.000000e+00 0.000000e+00
    outer loop
      vertex   -2.394173e+00 2.500000e+00 -1.965567e+00
      vertex   -4.515754e-01 2.500000e+00 2.571687e+00
      vertex   -4.512000e-01 2.500000e+00 -3.999741e+00
    endloop
  endfacet
  facet normal 0.000000e+00 1.000000e+00 0.000000e+00
    outer loop
      vertex   -2.394173e+00 2.500000e+00 -1.965567e+00
      vertex   -4.512000e-01 2.500000e+00 -3.999741e+00
      vertex   -1.914058e+00 2.500000e+00 -3.999825e+00
    endloop
  endfacet
  facet normal 0.000000e+00 1.000000e+00 0.000000e+00
    outer loop
      vertex   -1.914058e+00 2.500000e+00 -3.999825e+00
      vertex   -4.302706e+00 2.500000e+00 -2.639961e+00
      vertex   -2.394173e+00 2.500000e+00 -1.965567e+00
    endloop
  endfacet
  facet normal 0.000000e+00 1.000000e+00 0.000000e+00
    outer loop
      vertex   -2.394173e+00 2.500000e+00 -1.965567e+00
      vertex   -4.302706e+00 2.500000e+00 -2.639961e+00
      vertex   -3.628490e+00 2.500000e+00 -1.405637e+00
    endloop
  endfacet
  facet normal 0.000000e+00 0.000000e+00 -1.000000e+00
    outer loop
      vertex   -1.200000e+01 1.200000e+00 -5.000000e+00
      vertex   1.400000e+01 1.200000e+00 -5.000000e+00
      vertex   -1.200000e+01 -1.000000e+00 -5.000000e+00
    endloop
  endfacet
  facet normal 0.000000e+00 0.000000e+00 -1.000000e+00
    outer loop
      vertex   -1.200000e+01 -1.000000e+00 -5.000000e+00
      vertex   1.400000e+01 1.200000e+00 -5.000000e+00
      vertex   1.400000e+01 -1.000000e+00 -5.000000e+00
    endloop
  endfacet
endsolid
