solid ASCII
  facet normal -5.227950e-01 0.000000e+00 8.524584e-01
    outer loop
      vertex   2.162651e+01 2.976800e+01 1.954472e+02
      vertex   4.431490e+01 2.976800e+01 2.093615e+02
      vertex   2.162651e+01 3.176800e+01 1.954472e+02
    endloop
  endfacet
  facet normal -5.227950e-01 0.000000e+00 8.524584e-01
    outer loop
      vertex   2.162651e+01 3.176800e+01 1.954472e+02
      vertex   4.431490e+01 2.976800e+01 2.093615e+02
      vertex   4.431490e+01 3.176800e+01 2.093615e+02
    endloop
  endfacet
  facet normal 1.437420e-13 -2.553370e-28 1.000000e+00
    outer loop
      vertex   -2.187349e+01 2.976800e+01 1.954472e+02
      vertex   2.162651e+01 2.976800e+01 1.954472e+02
      vertex   -2.187349e+01 3.176800e+01 1.954472e+02
    endloop
  endfacet
  facet normal 1.437420e-13 0.000000e+00 1.000000e+00
    outer loop
      vertex   -2.187349e+01 3.176800e+01 1.954472e+02
      vertex   2.162651e+01 2.976800e+01 1.954472e+02
      vertex   2.162651e+01 3.176800e+01 1.954472e+02
    endloop
  endfacet
  facet normal 5.227950e-01 -1.857341e-15 8.524584e-01
    outer loop
      vertex   -4.456187e+01 2.976800e+01 2.093615e+02
      vertex   -2.187349e+01 2.976800e+01 1.954472e+02
      vertex   -4.456187e+01 3.176800e+01 2.093615e+02
    endloop
  endfacet
  facet normal 5.227950e-01 -1.067874e-15 8.524584e-01
    outer loop
      vertex   -4.456187e+01 3.176800e+01 2.093615e+02
      vertex   -2.187349e+01 2.976800e+01 1.954472e+02
      vertex   -2.187349e+01 3.176800e+01 1.954472e+02
    endloop
  endfacet
  facet normal 7.346440e-01 1.062104e-02 -6.783696e-01
    outer loop
      vertex   -7.087250e+01 2.976800e+01 6.902775e+01
      vertex   -7.444530e+01 2.976800e+01 6.515856e+01
      vertex   -7.379575e+01 3.176800e+01 6.589331e+01
    endloop
  endfacet
  facet normal 7.571374e-01 -5.920315e-03 -6.532288e-01
    outer loop
      vertex   -7.379575e+01 3.176800e+01 6.589331e+01
      vertex   -7.444530e+01 2.976800e+01 6.515856e+01
      vertex   -7.536530e+01 2.976800e+01 6.409223e+01
    endloop
  endfacet
  facet normal 7.630692e-01 -1.700135e-02 -6.460932e-01
    outer loop
      vertex   -7.379575e+01 3.176800e+01 6.589331e+01
      vertex   -7.536530e+01 2.976800e+01 6.409223e+01
      vertex   -7.715928e+01 3.176800e+01 6.192081e+01
    endloop
  endfacet
  facet normal 7.663343e-01 -1.002346e-02 -6.423638e-01
    outer loop
      vertex   -7.715928e+01 3.176800e+01 6.192081e+01
      vertex   -7.536530e+01 2.976800e+01 6.409223e+01
      vertex   -7.627002e+01 2.976800e+01 6.301291e+01
    endloop
  endfacet
  facet normal 7.754397e-01 -7.753091e-15 -6.314216e-01
    outer loop
      vertex   -7.715928e+01 3.176800e+01 6.192081e+01
      vertex   -7.627002e+01 2.976800e+01 6.301291e+01
      vertex   -7.715928e+01 2.976800e+01 6.192081e+01
    endloop
  endfacet
  facet normal 7.281008e-01 -9.957300e-03 -6.853977e-01
    outer loop
      vertex   -7.379575e+01 3.176800e+01 6.589331e+01
      vertex   -7.022795e+01 3.176800e+01 6.968340e+01
      vertex   -7.087250e+01 2.976800e+01 6.902775e+01
    endloop
  endfacet
  facet normal 6.975083e-01 1.009965e-02 -7.165055e-01
    outer loop
      vertex   -7.087250e+01 2.976800e+01 6.902775e+01
      vertex   -7.022795e+01 3.176800e+01 6.968340e+01
      vertex   -6.709885e+01 2.976800e+01 7.270134e+01
    endloop
  endfacet
  facet normal 6.910481e-01 -9.426406e-03 -7.227473e-01
    outer loop
      vertex   -6.709885e+01 2.976800e+01 7.270134e+01
      vertex   -7.022795e+01 3.176800e+01 6.968340e+01
      vertex   -6.646575e+01 3.176800e+01 7.328060e+01
    endloop
  endfacet
  facet normal 6.583956e-01 9.559267e-03 -7.526113e-01
    outer loop
      vertex   -6.709885e+01 2.976800e+01 7.270134e+01
      vertex   -6.646575e+01 3.176800e+01 7.328060e+01
      vertex   -6.313507e+01 2.976800e+01 7.616892e+01
    endloop
  endfacet
  facet normal 6.520820e-01 -8.876522e-03 -7.580965e-01
    outer loop
      vertex   -6.313507e+01 2.976800e+01 7.616892e+01
      vertex   -6.646575e+01 3.176800e+01 7.328060e+01
      vertex   -6.251955e+01 3.176800e+01 7.667494e+01
    endloop
  endfacet
  facet normal 6.174167e-01 8.999893e-03 -7.865848e-01
    outer loop
      vertex   -6.313507e+01 2.976800e+01 7.616892e+01
      vertex   -6.251955e+01 3.176800e+01 7.667494e+01
      vertex   -5.899238e+01 2.976800e+01 7.942065e+01
    endloop
  endfacet
  facet normal 6.113103e-01 -8.307647e-03 -7.913474e-01
    outer loop
      vertex   -5.899238e+01 2.976800e+01 7.942065e+01
      vertex   -6.251955e+01 3.176800e+01 7.667494e+01
      vertex   -5.840030e+01 3.176800e+01 7.985704e+01
    endloop
  endfacet
  facet normal 5.746877e-01 8.421529e-03 -8.183295e-01
    outer loop
      vertex   -5.899238e+01 2.976800e+01 7.942065e+01
      vertex   -5.840030e+01 3.176800e+01 7.985704e+01
      vertex   -5.468253e+01 2.976800e+01 8.244733e+01
    endloop
  endfacet
  facet normal 5.688459e-01 -7.719782e-03 -8.224079e-01
    outer loop
      vertex   -5.468253e+01 2.976800e+01 8.244733e+01
      vertex   -5.840030e+01 3.176800e+01 7.985704e+01
      vertex   -5.411938e+01 3.176800e+01 8.281808e+01
    endloop
  endfacet
  facet normal 5.303296e-01 7.824175e-03 -8.477554e-01
    outer loop
      vertex   -5.468253e+01 2.976800e+01 8.244733e+01
      vertex   -5.411938e+01 3.176800e+01 8.281808e+01
      vertex   -5.021772e+01 2.976800e+01 8.524038e+01
    endloop
  endfacet
  facet normal 5.248063e-01 -7.112926e-03 -8.511919e-01
    outer loop
      vertex   -5.021772e+01 2.976800e+01 8.524038e+01
      vertex   -5.411938e+01 3.176800e+01 8.281808e+01
      vertex   -4.968865e+01 3.176800e+01 8.554986e+01
    endloop
  endfacet
  facet normal 4.844682e-01 7.207830e-03 -8.747792e-01
    outer loop
      vertex   -5.021772e+01 2.976800e+01 8.524038e+01
      vertex   -4.968865e+01 3.176800e+01 8.554986e+01
      vertex   -4.561061e+01 2.976800e+01 8.779188e+01
    endloop
  endfacet
  facet normal 4.793135e-01 -6.487081e-03 -8.776198e-01
    outer loop
      vertex   -4.561061e+01 2.976800e+01 8.779188e+01
      vertex   -4.968865e+01 3.176800e+01 8.554986e+01
      vertex   -4.512038e+01 3.176800e+01 8.804483e+01
    endloop
  endfacet
  facet normal 4.372334e-01 6.572494e-03 -8.993240e-01
    outer loop
      vertex   -4.561061e+01 2.976800e+01 8.779188e+01
      vertex   -4.512038e+01 3.176800e+01 8.804483e+01
      vertex   -4.087425e+01 2.976800e+01 9.009460e+01
    endloop
  endfacet
  facet normal 4.324933e-01 -5.842245e-03 -9.016182e-01
    outer loop
      vertex   -4.087425e+01 2.976800e+01 9.009460e+01
      vertex   -4.512038e+01 3.176800e+01 8.804483e+01
      vertex   -4.042720e+01 3.176800e+01 9.029608e+01
    endloop
  endfacet
  facet normal 3.887591e-01 5.918169e-03 -9.213204e-01
    outer loop
      vertex   -4.087425e+01 2.976800e+01 9.009460e+01
      vertex   -4.042720e+01 3.176800e+01 9.029608e+01
      vertex   -3.602206e+01 2.976800e+01 9.214202e+01
    endloop
  endfacet
  facet normal 3.844755e-01 -5.178420e-03 -9.231207e-01
    outer loop
      vertex   -3.602206e+01 2.976800e+01 9.214202e+01
      vertex   -4.042720e+01 3.176800e+01 9.029608e+01
      vertex   -3.562212e+01 3.176800e+01 9.229738e+01
    endloop
  endfacet
  facet normal 3.391826e-01 5.244854e-03 -9.407059e-01
    outer loop
      vertex   -3.602206e+01 2.976800e+01 9.214202e+01
      vertex   -3.562212e+01 3.176800e+01 9.229738e+01
      vertex   -3.106780e+01 2.976800e+01 9.392834e+01
    endloop
  endfacet
  facet normal 3.353928e-01 -4.495606e-03 -9.420676e-01
    outer loop
      vertex   -3.106780e+01 2.976800e+01 9.392834e+01
      vertex   -3.562212e+01 3.176800e+01 9.229738e+01
      vertex   -3.071843e+01 3.176800e+01 9.404318e+01
    endloop
  endfacet
  facet normal 2.886446e-01 4.552549e-03 -9.574255e-01
    outer loop
      vertex   -3.106780e+01 2.976800e+01 9.392834e+01
      vertex   -3.071843e+01 3.176800e+01 9.404318e+01
      vertex   -2.602551e+01 2.976800e+01 9.544849e+01
    endloop
  endfacet
  facet normal 2.853813e-01 -3.793804e-03 -9.584065e-01
    outer loop
      vertex   -2.602551e+01 2.976800e+01 9.544849e+01
      vertex   -3.071843e+01 3.176800e+01 9.404318e+01
      vertex   -2.572971e+01 3.176800e+01 9.552865e+01
    endloop
  endfacet
  facet normal 2.372881e-01 3.841256e-03 -9.714317e-01
    outer loop
      vertex   -2.602551e+01 2.976800e+01 9.544849e+01
      vertex   -2.572971e+01 3.176800e+01 9.552865e+01
      vertex   -2.090946e+01 2.976800e+01 9.669817e+01
    endloop
  endfacet
  facet normal 2.345795e-01 -3.073014e-03 -9.720921e-01
    outer loop
      vertex   -2.090946e+01 2.976800e+01 9.669817e+01
      vertex   -2.572971e+01 3.176800e+01 9.552865e+01
      vertex   -2.066976e+01 3.176800e+01 9.674969e+01
    endloop
  endfacet
  facet normal 1.852588e-01 3.110976e-03 -9.826848e-01
    outer loop
      vertex   -2.090946e+01 2.976800e+01 9.669817e+01
      vertex   -2.066976e+01 3.176800e+01 9.674969e+01
      vertex   -1.573416e+01 2.976800e+01 9.767383e+01
    endloop
  endfacet
  facet normal 1.831279e-01 -2.333237e-03 -9.830863e-01
    outer loop
      vertex   -1.573416e+01 2.976800e+01 9.767383e+01
      vertex   -2.066976e+01 3.176800e+01 9.674969e+01
      vertex   -1.555259e+01 3.176800e+01 9.770291e+01
    endloop
  endfacet
  facet normal 1.327043e-01 2.361708e-03 -9.911529e-01
    outer loop
      vertex   -1.573416e+01 2.976800e+01 9.767383e+01
      vertex   -1.555259e+01 3.176800e+01 9.770291e+01
      vertex   -1.051428e+01 2.976800e+01 9.837272e+01
    endloop
  endfacet
  facet normal 1.311691e-01 -1.574475e-03 -9.913588e-01
    outer loop
      vertex   -1.051428e+01 2.976800e+01 9.837272e+01
      vertex   -1.555259e+01 3.176800e+01 9.770291e+01
      vertex   -1.039237e+01 3.176800e+01 9.838567e+01
    endloop
  endfacet
  facet normal 7.977340e-02 1.593456e-03 -9.968118e-01
    outer loop
      vertex   -1.051428e+01 2.976800e+01 9.837272e+01
      vertex   -1.039237e+01 3.176800e+01 9.838567e+01
      vertex   -5.264597e+00 2.976800e+01 9.879284e+01
    endloop
  endfacet
  facet normal 7.884707e-02 -7.967287e-04 -9.968864e-01
    outer loop
      vertex   -5.264597e+00 2.976800e+01 9.879284e+01
      vertex   -1.039237e+01 3.176800e+01 9.838567e+01
      vertex   -5.203389e+00 3.176800e+01 9.879608e+01
    endloop
  endfacet
  facet normal 2.661630e-02 8.062191e-04 -9.996454e-01
    outer loop
      vertex   -5.264597e+00 2.976800e+01 9.879284e+01
      vertex   -5.203389e+00 3.176800e+01 9.879608e+01
      vertex   -2.934383e-14 2.976800e+01 9.893302e+01
    endloop
  endfacet
  facet normal 2.630664e-02 2.889461e-16 -9.996539e-01
    outer loop
      vertex   -2.934383e-14 2.976800e+01 9.893302e+01
      vertex   -5.203389e+00 3.176800e+01 9.879608e+01
      vertex   -5.131137e-14 3.176800e+01 9.893302e+01
    endloop
  endfacet
  facet normal -2.630664e-02 -2.889461e-16 -9.996539e-01
    outer loop
      vertex   -2.934383e-14 2.976800e+01 9.893302e+01
      vertex   -5.131137e-14 3.176800e+01 9.893302e+01
      vertex   5.203389e+00 3.176800e+01 9.879608e+01
    endloop
  endfacet
  facet normal -2.661630e-02 8.062191e-04 -9.996454e-01
    outer loop
      vertex   -2.934383e-14 2.976800e+01 9.893302e+01
      vertex   5.203389e+00 3.176800e+01 9.879608e+01
      vertex   5.264597e+00 2.976800e+01 9.879284e+01
    endloop
  endfacet
  facet normal -7.884707e-02 -7.967287e-04 -9.968864e-01
    outer loop
      vertex   5.264597e+00 2.976800e+01 9.879284e+01
      vertex   5.203389e+00 3.176800e+01 9.879608e+01
      vertex   1.039237e+01 3.176800e+01 9.838567e+01
    endloop
  endfacet
  facet normal -7.977340e-02 1.593456e-03 -9.968118e-01
    outer loop
      vertex   5.264597e+00 2.976800e+01 9.879284e+01
      vertex   1.039237e+01 3.176800e+01 9.838567e+01
      vertex   1.051428e+01 2.976800e+01 9.837272e+01
    endloop
  endfacet
  facet normal -1.311691e-01 -1.574475e-03 -9.913588e-01
    outer loop
      vertex   1.051428e+01 2.976800e+01 9.837272e+01
      vertex   1.039237e+01 3.176800e+01 9.838567e+01
      vertex   1.555259e+01 3.176800e+01 9.770291e+01
    endloop
  endfacet
  facet normal -1.327043e-01 2.361708e-03 -9.911529e-01
    outer loop
      vertex   1.051428e+01 2.976800e+01 9.837272e+01
      vertex   1.555259e+01 3.176800e+01 9.770291e+01
      vertex   1.573416e+01 2.976800e+01 9.767383e+01
    endloop
  endfacet
  facet normal -1.831279e-01 -2.333237e-03 -9.830863e-01
    outer loop
      vertex   1.573416e+01 2.976800e+01 9.767383e+01
      vertex   1.555259e+01 3.176800e+01 9.770291e+01
      vertex   2.066976e+01 3.176800e+01 9.674969e+01
    endloop
  endfacet
  facet normal -1.852588e-01 3.110976e-03 -9.826848e-01
    outer loop
      vertex   1.573416e+01 2.976800e+01 9.767383e+01
      vertex   2.066976e+01 3.176800e+01 9.674969e+01
      vertex   2.090946e+01 2.976800e+01 9.669817e+01
    endloop
  endfacet
  facet normal -2.345795e-01 -3.073014e-03 -9.720921e-01
    outer loop
      vertex   2.090946e+01 2.976800e+01 9.669817e+01
      vertex   2.066976e+01 3.176800e+01 9.674969e+01
      vertex   2.572971e+01 3.176800e+01 9.552865e+01
    endloop
  endfacet
  facet normal -2.372881e-01 3.841256e-03 -9.714317e-01
    outer loop
      vertex   2.090946e+01 2.976800e+01 9.669817e+01
      vertex   2.572971e+01 3.176800e+01 9.552865e+01
      vertex   2.602551e+01 2.976800e+01 9.544849e+01
    endloop
  endfacet
  facet normal -2.853813e-01 -3.793804e-03 -9.584065e-01
    outer loop
      vertex   2.602551e+01 2.976800e+01 9.544849e+01
      vertex   2.572971e+01 3.176800e+01 9.552865e+01
      vertex   3.071843e+01 3.176800e+01 9.404318e+01
    endloop
  endfacet
  facet normal -2.886446e-01 4.552549e-03 -9.574255e-01
    outer loop
      vertex   2.602551e+01 2.976800e+01 9.544849e+01
      vertex   3.071843e+01 3.176800e+01 9.404318e+01
      vertex   3.106780e+01 2.976800e+01 9.392834e+01
    endloop
  endfacet
  facet normal -3.353928e-01 -4.495606e-03 -9.420676e-01
    outer loop
      vertex   3.106780e+01 2.976800e+01 9.392834e+01
      vertex   3.071843e+01 3.176800e+01 9.404318e+01
      vertex   3.562212e+01 3.176800e+01 9.229738e+01
    endloop
  endfacet
  facet normal -3.391826e-01 5.244854e-03 -9.407059e-01
    outer loop
      vertex   3.106780e+01 2.976800e+01 9.392834e+01
      vertex   3.562212e+01 3.176800e+01 9.229738e+01
      vertex   3.602206e+01 2.976800e+01 9.214202e+01
    endloop
  endfacet
  facet normal -3.844755e-01 -5.178420e-03 -9.231207e-01
    outer loop
      vertex   3.602206e+01 2.976800e+01 9.214202e+01
      vertex   3.562212e+01 3.176800e+01 9.229738e+01
      vertex   4.042720e+01 3.176800e+01 9.029608e+01
    endloop
  endfacet
  facet normal -3.887591e-01 5.918169e-03 -9.213204e-01
    outer loop
      vertex   3.602206e+01 2.976800e+01 9.214202e+01
      vertex   4.042720e+01 3.176800e+01 9.029608e+01
      vertex   4.087425e+01 2.976800e+01 9.009460e+01
    endloop
  endfacet
  facet normal -4.324933e-01 -5.842245e-03 -9.016182e-01
    outer loop
      vertex   4.087425e+01 2.976800e+01 9.009460e+01
      vertex   4.042720e+01 3.176800e+01 9.029608e+01
      vertex   4.512038e+01 3.176800e+01 8.804483e+01
    endloop
  endfacet
  facet normal -4.372334e-01 6.572494e-03 -8.993240e-01
    outer loop
      vertex   4.087425e+01 2.976800e+01 9.009460e+01
      vertex   4.512038e+01 3.176800e+01 8.804483e+01
      vertex   4.561061e+01 2.976800e+01 8.779188e+01
    endloop
  endfacet
  facet normal -4.793135e-01 -6.487081e-03 -8.776198e-01
    outer loop
      vertex   4.561061e+01 2.976800e+01 8.779188e+01
      vertex   4.512038e+01 3.176800e+01 8.804483e+01
      vertex   4.968865e+01 3.176800e+01 8.554986e+01
    endloop
  endfacet
  facet normal -4.844682e-01 7.207830e-03 -8.747792e-01
    outer loop
      vertex   4.561061e+01 2.976800e+01 8.779188e+01
      vertex   4.968865e+01 3.176800e+01 8.554986e+01
      vertex   5.021772e+01 2.976800e+01 8.524038e+01
    endloop
  endfacet
  facet normal -5.248063e-01 -7.112926e-03 -8.511919e-01
    outer loop
      vertex   5.021772e+01 2.976800e+01 8.524038e+01
      vertex   4.968865e+01 3.176800e+01 8.554986e+01
      vertex   5.411938e+01 3.176800e+01 8.281808e+01
    endloop
  endfacet
  facet normal -5.303296e-01 7.824175e-03 -8.477554e-01
    outer loop
      vertex   5.021772e+01 2.976800e+01 8.524038e+01
      vertex   5.411938e+01 3.176800e+01 8.281808e+01
      vertex   5.468253e+01 2.976800e+01 8.244733e+01
    endloop
  endfacet
  facet normal -5.688459e-01 -7.719782e-03 -8.224079e-01
    outer loop
      vertex   5.468253e+01 2.976800e+01 8.244733e+01
      vertex   5.411938e+01 3.176800e+01 8.281808e+01
      vertex   5.840030e+01 3.176800e+01 7.985704e+01
    endloop
  endfacet
  facet normal -5.746877e-01 8.421529e-03 -8.183295e-01
    outer loop
      vertex   5.468253e+01 2.976800e+01 8.244733e+01
      vertex   5.840030e+01 3.176800e+01 7.985704e+01
      vertex   5.899238e+01 2.976800e+01 7.942065e+01
    endloop
  endfacet
  facet normal -6.113103e-01 -8.307647e-03 -7.913474e-01
    outer loop
      vertex   5.899238e+01 2.976800e+01 7.942065e+01
      vertex   5.840030e+01 3.176800e+01 7.985704e+01
      vertex   6.251955e+01 3.176800e+01 7.667494e+01
    endloop
  endfacet
  facet normal -6.174167e-01 8.999893e-03 -7.865848e-01
    outer loop
      vertex   5.899238e+01 2.976800e+01 7.942065e+01
      vertex   6.251955e+01 3.176800e+01 7.667494e+01
      vertex   6.313507e+01 2.976800e+01 7.616892e+01
    endloop
  endfacet
  facet normal -6.520820e-01 -8.876522e-03 -7.580965e-01
    outer loop
      vertex   6.313507e+01 2.976800e+01 7.616892e+01
      vertex   6.251955e+01 3.176800e+01 7.667494e+01
      vertex   6.646575e+01 3.176800e+01 7.328060e+01
    endloop
  endfacet
  facet normal -6.583956e-01 9.559267e-03 -7.526113e-01
    outer loop
      vertex   6.313507e+01 2.976800e+01 7.616892e+01
      vertex   6.646575e+01 3.176800e+01 7.328060e+01
      vertex   6.709885e+01 2.976800e+01 7.270134e+01
    endloop
  endfacet
  facet normal -6.910481e-01 -9.426406e-03 -7.227473e-01
    outer loop
      vertex   6.709885e+01 2.976800e+01 7.270134e+01
      vertex   6.646575e+01 3.176800e+01 7.328060e+01
      vertex   7.022795e+01 3.176800e+01 6.968340e+01
    endloop
  endfacet
  facet normal -6.975083e-01 1.009965e-02 -7.165055e-01
    outer loop
      vertex   6.709885e+01 2.976800e+01 7.270134e+01
      vertex   7.022795e+01 3.176800e+01 6.968340e+01
      vertex   7.087250e+01 2.976800e+01 6.902775e+01
    endloop
  endfacet
  facet normal -7.281008e-01 -9.957300e-03 -6.853977e-01
    outer loop
      vertex   7.087250e+01 2.976800e+01 6.902775e+01
      vertex   7.022795e+01 3.176800e+01 6.968340e+01
      vertex   7.379575e+01 3.176800e+01 6.589331e+01
    endloop
  endfacet
  facet normal -7.346440e-01 1.062104e-02 -6.783696e-01
    outer loop
      vertex   7.087250e+01 2.976800e+01 6.902775e+01
      vertex   7.379575e+01 3.176800e+01 6.589331e+01
      vertex   7.444530e+01 2.976800e+01 6.515856e+01
    endloop
  endfacet
  facet normal -7.571374e-01 -5.920315e-03 -6.532288e-01
    outer loop
      vertex   7.444530e+01 2.976800e+01 6.515856e+01
      vertex   7.379575e+01 3.176800e+01 6.589331e+01
      vertex   7.536530e+01 2.976800e+01 6.409223e+01
    endloop
  endfacet
  facet normal -7.630692e-01 -1.700135e-02 -6.460932e-01
    outer loop
      vertex   7.536530e+01 2.976800e+01 6.409223e+01
      vertex   7.379575e+01 3.176800e+01 6.589331e+01
      vertex   7.715928e+01 3.176800e+01 6.192081e+01
    endloop
  endfacet
  facet normal -7.663343e-01 -1.002346e-02 -6.423638e-01
    outer loop
      vertex   7.536530e+01 2.976800e+01 6.409223e+01
      vertex   7.715928e+01 3.176800e+01 6.192081e+01
      vertex   7.627002e+01 2.976800e+01 6.301291e+01
    endloop
  endfacet
  facet normal -7.754397e-01 0.000000e+00 -6.314216e-01
    outer loop
      vertex   7.627002e+01 2.976800e+01 6.301291e+01
      vertex   7.715928e+01 3.176800e+01 6.192081e+01
      vertex   7.715928e+01 2.976800e+01 6.192081e+01
    endloop
  endfacet
  facet normal 5.593867e-15 1.000000e+00 1.205837e-15
    outer loop
      vertex   4.500000e+01 3.176800e+01 2.170000e+02
      vertex   7.715928e+01 3.176800e+01 6.192081e+01
      vertex   4.491625e+01 3.176800e+01 2.144422e+02
    endloop
  endfacet
  facet normal -7.736285e-17 1.000000e+00 6.938707e-18
    outer loop
      vertex   4.491625e+01 3.176800e+01 2.144422e+02
      vertex   7.715928e+01 3.176800e+01 6.192081e+01
      vertex   4.468764e+01 3.176800e+01 2.118933e+02
    endloop
  endfacet
  facet normal -3.922855e-15 1.000000e+00 -8.256766e-16
    outer loop
      vertex   4.468764e+01 3.176800e+01 2.118933e+02
      vertex   7.715928e+01 3.176800e+01 6.192081e+01
      vertex   4.431490e+01 3.176800e+01 2.093615e+02
    endloop
  endfacet
  facet normal 7.723785e-17 1.000000e+00 6.539754e-17
    outer loop
      vertex   4.431490e+01 3.176800e+01 2.093615e+02
      vertex   7.715928e+01 3.176800e+01 6.192081e+01
      vertex   7.379575e+01 3.176800e+01 6.589331e+01
    endloop
  endfacet
  facet normal 6.730352e-17 1.000000e+00 6.335617e-17
    outer loop
      vertex   4.431490e+01 3.176800e+01 2.093615e+02
      vertex   7.379575e+01 3.176800e+01 6.589331e+01
      vertex   7.022795e+01 3.176800e+01 6.968340e+01
    endloop
  endfacet
  facet normal 5.912704e-17 1.000000e+00 6.183927e-17
    outer loop
      vertex   7.022795e+01 3.176800e+01 6.968340e+01
      vertex   6.646575e+01 3.176800e+01 7.328060e+01
      vertex   4.431490e+01 3.176800e+01 2.093615e+02
    endloop
  endfacet
  facet normal 5.222511e-17 1.000000e+00 6.071579e-17
    outer loop
      vertex   4.431490e+01 3.176800e+01 2.093615e+02
      vertex   6.646575e+01 3.176800e+01 7.328060e+01
      vertex   6.251955e+01 3.176800e+01 7.667494e+01
    endloop
  endfacet
  facet normal -9.184396e-16 1.000000e+00 -7.245990e-17
    outer loop
      vertex   4.431490e+01 3.176800e+01 2.093615e+02
      vertex   6.251955e+01 3.176800e+01 7.667494e+01
      vertex   5.840030e+01 3.176800e+01 7.985704e+01
    endloop
  endfacet
  facet normal 2.051867e-17 1.000000e+00 2.966483e-17
    outer loop
      vertex   5.840030e+01 3.176800e+01 7.985704e+01
      vertex   5.411938e+01 3.176800e+01 8.281808e+01
      vertex   4.431490e+01 3.176800e+01 2.093615e+02
    endloop
  endfacet
  facet normal 1.817819e-17 1.000000e+00 2.948349e-17
    outer loop
      vertex   4.431490e+01 3.176800e+01 2.093615e+02
      vertex   5.411938e+01 3.176800e+01 8.281808e+01
      vertex   4.968865e+01 3.176800e+01 8.554986e+01
    endloop
  endfacet
  facet normal 1.605206e-17 1.000000e+00 2.939122e-17
    outer loop
      vertex   4.431490e+01 3.176800e+01 2.093615e+02
      vertex   4.968865e+01 3.176800e+01 8.554986e+01
      vertex   4.512038e+01 3.176800e+01 8.804483e+01
    endloop
  endfacet
  facet normal 1.409230e-17 1.000000e+00 2.937820e-17
    outer loop
      vertex   4.512038e+01 3.176800e+01 8.804483e+01
      vertex   4.042720e+01 3.176800e+01 9.029608e+01
      vertex   4.431490e+01 3.176800e+01 2.093615e+02
    endloop
  endfacet
  facet normal 1.411139e-16 1.000000e+00 2.523073e-17
    outer loop
      vertex   4.431490e+01 3.176800e+01 2.093615e+02
      vertex   4.042720e+01 3.176800e+01 9.029608e+01
      vertex   2.162651e+01 3.176800e+01 1.954472e+02
    endloop
  endfacet
  facet normal 0.000000e+00 1.000000e+00 0.000000e+00
    outer loop
      vertex   2.162651e+01 3.176800e+01 1.954472e+02
      vertex   4.042720e+01 3.176800e+01 9.029608e+01
      vertex   3.562212e+01 3.176800e+01 9.229738e+01
    endloop
  endfacet
  facet normal 0.000000e+00 1.000000e+00 0.000000e+00
    outer loop
      vertex   2.162651e+01 3.176800e+01 1.954472e+02
      vertex   3.562212e+01 3.176800e+01 9.229738e+01
      vertex   3.071843e+01 3.176800e+01 9.404318e+01
    endloop
  endfacet
  facet normal -7.316831e-16 1.000000e+00 -6.560297e-17
    outer loop
      vertex   3.071843e+01 3.176800e+01 9.404318e+01
      vertex   2.572971e+01 3.176800e+01 9.552865e+01
      vertex   2.162651e+01 3.176800e+01 1.954472e+02
    endloop
  endfacet
  facet normal -8.666067e-18 1.000000e+00 -3.591199e-17
    outer loop
      vertex   2.162651e+01 3.176800e+01 1.954472e+02
      vertex   2.572971e+01 3.176800e+01 9.552865e+01
      vertex   2.066976e+01 3.176800e+01 9.674969e+01
    endloop
  endfacet
  facet normal -6.693196e-18 1.000000e+00 -3.593111e-17
    outer loop
      vertex   2.162651e+01 3.176800e+01 1.954472e+02
      vertex   2.066976e+01 3.176800e+01 9.674969e+01
      vertex   1.555259e+01 3.176800e+01 9.770291e+01
    endloop
  endfacet
  facet normal -4.769948e-18 1.000000e+00 -3.605063e-17
    outer loop
      vertex   1.555259e+01 3.176800e+01 9.770291e+01
      vertex   1.039237e+01 3.176800e+01 9.838567e+01
      vertex   2.162651e+01 3.176800e+01 1.954472e+02
    endloop
  endfacet
  facet normal -2.868769e-18 1.000000e+00 -3.627067e-17
    outer loop
      vertex   2.162651e+01 3.176800e+01 1.954472e+02
      vertex   1.039237e+01 3.176800e+01 9.838567e+01
      vertex   5.203389e+00 3.176800e+01 9.879608e+01
    endloop
  endfacet
  facet normal -9.630117e-19 1.000000e+00 -3.659450e-17
    outer loop
      vertex   2.162651e+01 3.176800e+01 1.954472e+02
      vertex   5.203389e+00 3.176800e+01 9.879608e+01
      vertex   -5.131137e-14 3.176800e+01 9.893302e+01
    endloop
  endfacet
  facet normal -8.167158e-17 1.000000e+00 -1.850964e-17
    outer loop
      vertex   2.162651e+01 3.176800e+01 1.954472e+02
      vertex   -5.131137e-14 3.176800e+01 9.893302e+01
      vertex   -2.187349e+01 3.176800e+01 1.954472e+02
    endloop
  endfacet
  facet normal 0.000000e+00 1.000000e+00 0.000000e+00
    outer loop
      vertex   -2.187349e+01 3.176800e+01 1.954472e+02
      vertex   -5.131137e-14 3.176800e+01 9.893302e+01
      vertex   -5.203389e+00 3.176800e+01 9.879608e+01
    endloop
  endfacet
  facet normal 0.000000e+00 1.000000e+00 0.000000e+00
    outer loop
      vertex   -2.187349e+01 3.176800e+01 1.954472e+02
      vertex   -5.203389e+00 3.176800e+01 9.879608e+01
      vertex   -1.039237e+01 3.176800e+01 9.838567e+01
    endloop
  endfacet
  facet normal 0.000000e+00 1.000000e+00 0.000000e+00
    outer loop
      vertex   -1.039237e+01 3.176800e+01 9.838567e+01
      vertex   -1.555259e+01 3.176800e+01 9.770291e+01
      vertex   -2.187349e+01 3.176800e+01 1.954472e+02
    endloop
  endfacet
  facet normal 0.000000e+00 1.000000e+00 0.000000e+00
    outer loop
      vertex   -2.187349e+01 3.176800e+01 1.954472e+02
      vertex   -1.555259e+01 3.176800e+01 9.770291e+01
      vertex   -2.066976e+01 3.176800e+01 9.674969e+01
    endloop
  endfacet
  facet normal 0.000000e+00 1.000000e+00 0.000000e+00
    outer loop
      vertex   -2.187349e+01 3.176800e+01 1.954472e+02
      vertex   -2.066976e+01 3.176800e+01 9.674969e+01
      vertex   -2.572971e+01 3.176800e+01 9.552865e+01
    endloop
  endfacet
  facet normal -7.204278e-16 1.000000e+00 2.780393e-17
    outer loop
      vertex   -2.572971e+01 3.176800e+01 9.552865e+01
      vertex   -3.071843e+01 3.176800e+01 9.404318e+01
      vertex   -2.187349e+01 3.176800e+01 1.954472e+02
    endloop
  endfacet
  facet normal 1.287292e-17 1.000000e+00 -3.615809e-17
    outer loop
      vertex   -2.187349e+01 3.176800e+01 1.954472e+02
      vertex   -3.071843e+01 3.176800e+01 9.404318e+01
      vertex   -3.562212e+01 3.176800e+01 9.229738e+01
    endloop
  endfacet
  facet normal 1.518821e-17 1.000000e+00 -3.646669e-17
    outer loop
      vertex   -2.187349e+01 3.176800e+01 1.954472e+02
      vertex   -3.562212e+01 3.176800e+01 9.229738e+01
      vertex   -4.042720e+01 3.176800e+01 9.029608e+01
    endloop
  endfacet
  facet normal -1.599947e-16 1.000000e+00 -5.555980e-18
    outer loop
      vertex   -2.187349e+01 3.176800e+01 1.954472e+02
      vertex   -4.042720e+01 3.176800e+01 9.029608e+01
      vertex   -4.456187e+01 3.176800e+01 2.093615e+02
    endloop
  endfacet
  facet normal 0.000000e+00 1.000000e+00 0.000000e+00
    outer loop
      vertex   -4.456187e+01 3.176800e+01 2.093615e+02
      vertex   -4.042720e+01 3.176800e+01 9.029608e+01
      vertex   -4.512038e+01 3.176800e+01 8.804483e+01
    endloop
  endfacet
  facet normal 0.000000e+00 1.000000e+00 0.000000e+00
    outer loop
      vertex   -4.456187e+01 3.176800e+01 2.093615e+02
      vertex   -4.512038e+01 3.176800e+01 8.804483e+01
      vertex   -4.968865e+01 3.176800e+01 8.554986e+01
    endloop
  endfacet
  facet normal 0.000000e+00 1.000000e+00 -0.000000e+00
    outer loop
      vertex   -4.968865e+01 3.176800e+01 8.554986e+01
      vertex   -5.411938e+01 3.176800e+01 8.281808e+01
      vertex   -4.456187e+01 3.176800e+01 2.093615e+02
    endloop
  endfacet
  facet normal 0.000000e+00 1.000000e+00 0.000000e+00
    outer loop
      vertex   -4.456187e+01 3.176800e+01 2.093615e+02
      vertex   -5.411938e+01 3.176800e+01 8.281808e+01
      vertex   -5.840030e+01 3.176800e+01 7.985704e+01
    endloop
  endfacet
  facet normal 9.400635e-16 1.000000e+00 -1.004522e-16
    outer loop
      vertex   -4.456187e+01 3.176800e+01 2.093615e+02
      vertex   -5.840030e+01 3.176800e+01 7.985704e+01
      vertex   -6.251955e+01 3.176800e+01 7.667494e+01
    endloop
  endfacet
  facet normal -2.606524e-17 1.000000e+00 3.030289e-17
    outer loop
      vertex   -6.251955e+01 3.176800e+01 7.667494e+01
      vertex   -6.646575e+01 3.176800e+01 7.328060e+01
      vertex   -4.456187e+01 3.176800e+01 2.093615e+02
    endloop
  endfacet
  facet normal -2.950289e-17 1.000000e+00 3.085622e-17
    outer loop
      vertex   -4.456187e+01 3.176800e+01 2.093615e+02
      vertex   -6.646575e+01 3.176800e+01 7.328060e+01
      vertex   -7.022795e+01 3.176800e+01 6.968340e+01
    endloop
  endfacet
  facet normal -3.357322e-17 1.000000e+00 3.160415e-17
    outer loop
      vertex   -4.456187e+01 3.176800e+01 2.093615e+02
      vertex   -7.022795e+01 3.176800e+01 6.968340e+01
      vertex   -7.379575e+01 3.176800e+01 6.589331e+01
    endloop
  endfacet
  facet normal -1.429518e-15 1.000000e+00 3.160498e-16
    outer loop
      vertex   -7.379575e+01 3.176800e+01 6.589331e+01
      vertex   -7.715928e+01 3.176800e+01 6.192081e+01
      vertex   -4.456187e+01 3.176800e+01 2.093615e+02
    endloop
  endfacet
  facet normal 0.000000e+00 1.000000e+00 0.000000e+00
    outer loop
      vertex   -4.456187e+01 3.176800e+01 2.093615e+02
      vertex   -7.715928e+01 3.176800e+01 6.192081e+01
      vertex   -4.488992e+01 3.176800e+01 2.115284e+02
    endloop
  endfacet
  facet normal 0.000000e+00 1.000000e+00 0.000000e+00
    outer loop
      vertex   -4.488992e+01 3.176800e+01 2.115284e+02
      vertex   -7.715928e+01 3.176800e+01 6.192081e+01
      vertex   -4.511236e+01 3.176800e+01 2.137087e+02
    endloop
  endfacet
  facet normal 0.000000e+00 1.000000e+00 0.000000e+00
    outer loop
      vertex   -4.511236e+01 3.176800e+01 2.137087e+02
      vertex   -7.715928e+01 3.176800e+01 6.192081e+01
      vertex   -4.522868e+01 3.176800e+01 2.158973e+02
    endloop
  endfacet
  facet normal 1.313843e-16 -1.000000e+00 4.109549e-17
    outer loop
      vertex   4.431490e+01 2.976800e+01 2.093615e+02
      vertex   2.162651e+01 2.976800e+01 1.954472e+02
      vertex   4.498720e+01 2.976800e+01 2.072121e+02
    endloop
  endfacet
  facet normal 1.533362e-16 -1.000000e+00 -2.492630e-18
    outer loop
      vertex   4.498720e+01 2.976800e+01 2.072121e+02
      vertex   2.162651e+01 2.976800e+01 1.954472e+02
      vertex   6.647242e+01 2.976800e+01 1.036056e+02
    endloop
  endfacet
  facet normal 3.340522e-16 -1.000000e+00 8.575035e-17
    outer loop
      vertex   6.647242e+01 2.976800e+01 1.036056e+02
      vertex   2.162651e+01 2.976800e+01 1.954472e+02
      vertex   2.602551e+01 2.976800e+01 9.544849e+01
    endloop
  endfacet
  facet normal 7.753404e-16 -1.000000e+00 -2.102376e-15
    outer loop
      vertex   6.647242e+01 2.976800e+01 1.036056e+02
      vertex   2.602551e+01 2.976800e+01 9.544849e+01
      vertex   3.106780e+01 2.976800e+01 9.392834e+01
    endloop
  endfacet
  facet normal 1.633432e-16 -1.000000e+00 3.701929e-17
    outer loop
      vertex   -2.187349e+01 2.976800e+01 1.954472e+02
      vertex   -2.934383e-14 2.976800e+01 9.893302e+01
      vertex   2.162651e+01 2.976800e+01 1.954472e+02
    endloop
  endfacet
  facet normal 1.948577e-18 -1.000000e+00 7.318395e-17
    outer loop
      vertex   2.162651e+01 2.976800e+01 1.954472e+02
      vertex   -2.934383e-14 2.976800e+01 9.893302e+01
      vertex   5.264597e+00 2.976800e+01 9.879284e+01
    endloop
  endfacet
  facet normal 5.804567e-18 -1.000000e+00 7.253120e-17
    outer loop
      vertex   2.162651e+01 2.976800e+01 1.954472e+02
      vertex   5.264597e+00 2.976800e+01 9.879284e+01
      vertex   1.051428e+01 2.976800e+01 9.837272e+01
    endloop
  endfacet
  facet normal -2.793127e-16 -1.000000e+00 5.521463e-17
    outer loop
      vertex   -4.456187e+01 2.976800e+01 2.093615e+02
      vertex   -4.497783e+01 2.976800e+01 2.072573e+02
      vertex   -2.187349e+01 2.976800e+01 1.954472e+02
    endloop
  endfacet
  facet normal -2.709859e-16 -1.000000e+00 7.150447e-17
    outer loop
      vertex   -2.187349e+01 2.976800e+01 1.954472e+02
      vertex   -4.497783e+01 2.976800e+01 2.072573e+02
      vertex   -3.602206e+01 2.976800e+01 9.214202e+01
    endloop
  endfacet
  facet normal -1.304404e-17 -1.000000e+00 3.617699e-17
    outer loop
      vertex   -2.187349e+01 2.976800e+01 1.954472e+02
      vertex   -3.602206e+01 2.976800e+01 9.214202e+01
      vertex   -3.106780e+01 2.976800e+01 9.392834e+01
    endloop
  endfacet
  facet normal -2.564727e-15 -1.000000e+00 5.318557e-16
    outer loop
      vertex   -7.444530e+01 2.976800e+01 6.515856e+01
      vertex   -7.087250e+01 2.976800e+01 6.902775e+01
      vertex   -4.497783e+01 2.976800e+01 2.072573e+02
    endloop
  endfacet
  facet normal -6.120112e-17 -1.000000e+00 6.286797e-17
    outer loop
      vertex   -4.497783e+01 2.976800e+01 2.072573e+02
      vertex   -7.087250e+01 2.976800e+01 6.902775e+01
      vertex   -6.709885e+01 2.976800e+01 7.270134e+01
    endloop
  endfacet
  facet normal -5.395583e-17 -1.000000e+00 6.167685e-17
    outer loop
      vertex   -4.497783e+01 2.976800e+01 2.072573e+02
      vertex   -6.709885e+01 2.976800e+01 7.270134e+01
      vertex   -6.313507e+01 2.976800e+01 7.616892e+01
    endloop
  endfacet
  facet normal -1.009935e-15 -1.000000e+00 1.940910e-16
    outer loop
      vertex   -6.313507e+01 2.976800e+01 7.616892e+01
      vertex   -5.899238e+01 2.976800e+01 7.942065e+01
      vertex   -4.497783e+01 2.976800e+01 2.072573e+02
    endloop
  endfacet
  facet normal -6.343412e-17 -1.000000e+00 9.032734e-17
    outer loop
      vertex   -4.497783e+01 2.976800e+01 2.072573e+02
      vertex   -5.899238e+01 2.976800e+01 7.942065e+01
      vertex   -5.468253e+01 2.976800e+01 8.244733e+01
    endloop
  endfacet
  facet normal -5.615177e-17 -1.000000e+00 8.976110e-17
    outer loop
      vertex   -4.497783e+01 2.976800e+01 2.072573e+02
      vertex   -5.468253e+01 2.976800e+01 8.244733e+01
      vertex   -5.021772e+01 2.976800e+01 8.524038e+01
    endloop
  endfacet
  facet normal -4.955438e-17 -1.000000e+00 8.947778e-17
    outer loop
      vertex   -5.021772e+01 2.976800e+01 8.524038e+01
      vertex   -4.561061e+01 2.976800e+01 8.779188e+01
      vertex   -4.497783e+01 2.976800e+01 2.072573e+02
    endloop
  endfacet
  facet normal -4.348669e-17 -1.000000e+00 8.944564e-17
    outer loop
      vertex   -4.497783e+01 2.976800e+01 2.072573e+02
      vertex   -4.561061e+01 2.976800e+01 8.779188e+01
      vertex   -4.087425e+01 2.976800e+01 9.009460e+01
    endloop
  endfacet
  facet normal -3.782602e-17 -1.000000e+00 8.964390e-17
    outer loop
      vertex   -4.497783e+01 2.976800e+01 2.072573e+02
      vertex   -4.087425e+01 2.976800e+01 9.009460e+01
      vertex   -3.602206e+01 2.976800e+01 9.214202e+01
    endloop
  endfacet
  facet normal 7.135138e-16 -1.000000e+00 -2.962562e-17
    outer loop
      vertex   -3.106780e+01 2.976800e+01 9.392834e+01
      vertex   -2.602551e+01 2.976800e+01 9.544849e+01
      vertex   -2.187349e+01 2.976800e+01 1.954472e+02
    endloop
  endfacet
  facet normal 0.000000e+00 -1.000000e+00 -0.000000e+00
    outer loop
      vertex   -2.187349e+01 2.976800e+01 1.954472e+02
      vertex   -2.602551e+01 2.976800e+01 9.544849e+01
      vertex   -2.090946e+01 2.976800e+01 9.669817e+01
    endloop
  endfacet
  facet normal 0.000000e+00 -1.000000e+00 0.000000e+00
    outer loop
      vertex   -2.187349e+01 2.976800e+01 1.954472e+02
      vertex   -2.090946e+01 2.976800e+01 9.669817e+01
      vertex   -1.573416e+01 2.976800e+01 9.767383e+01
    endloop
  endfacet
  facet normal 0.000000e+00 -1.000000e+00 0.000000e+00
    outer loop
      vertex   -1.573416e+01 2.976800e+01 9.767383e+01
      vertex   -1.051428e+01 2.976800e+01 9.837272e+01
      vertex   -2.187349e+01 2.976800e+01 1.954472e+02
    endloop
  endfacet
  facet normal 0.000000e+00 -1.000000e+00 0.000000e+00
    outer loop
      vertex   -2.187349e+01 2.976800e+01 1.954472e+02
      vertex   -1.051428e+01 2.976800e+01 9.837272e+01
      vertex   -5.264597e+00 2.976800e+01 9.879284e+01
    endloop
  endfacet
  facet normal 0.000000e+00 -1.000000e+00 0.000000e+00
    outer loop
      vertex   -2.187349e+01 2.976800e+01 1.954472e+02
      vertex   -5.264597e+00 2.976800e+01 9.879284e+01
      vertex   -2.934383e-14 2.976800e+01 9.893302e+01
    endloop
  endfacet
  facet normal 9.652146e-18 -1.000000e+00 7.209076e-17
    outer loop
      vertex   1.051428e+01 2.976800e+01 9.837272e+01
      vertex   1.573416e+01 2.976800e+01 9.767383e+01
      vertex   2.162651e+01 2.976800e+01 1.954472e+02
    endloop
  endfacet
  facet normal 1.354653e-17 -1.000000e+00 7.185607e-17
    outer loop
      vertex   2.162651e+01 2.976800e+01 1.954472e+02
      vertex   1.573416e+01 2.976800e+01 9.767383e+01
      vertex   2.090946e+01 2.976800e+01 9.669817e+01
    endloop
  endfacet
  facet normal 1.754493e-17 -1.000000e+00 7.182703e-17
    outer loop
      vertex   2.162651e+01 2.976800e+01 1.954472e+02
      vertex   2.090946e+01 2.976800e+01 9.669817e+01
      vertex   2.602551e+01 2.976800e+01 9.544849e+01
    endloop
  endfacet
  facet normal 1.141545e-16 -1.000000e+00 3.166017e-16
    outer loop
      vertex   3.106780e+01 2.976800e+01 9.392834e+01
      vertex   3.602206e+01 2.976800e+01 9.214202e+01
      vertex   6.647242e+01 2.976800e+01 1.036056e+02
    endloop
  endfacet
  facet normal 1.233199e-16 -1.000000e+00 2.922559e-16
    outer loop
      vertex   6.647242e+01 2.976800e+01 1.036056e+02
      vertex   3.602206e+01 2.976800e+01 9.214202e+01
      vertex   4.087425e+01 2.976800e+01 9.009460e+01
    endloop
  endfacet
  facet normal 1.330897e-16 -1.000000e+00 2.737457e-16
    outer loop
      vertex   6.647242e+01 2.976800e+01 1.036056e+02
      vertex   4.087425e+01 2.976800e+01 9.009460e+01
      vertex   4.561061e+01 2.976800e+01 8.779188e+01
    endloop
  endfacet
  facet normal 2.943284e-16 -1.000000e+00 6.103585e-17
    outer loop
      vertex   6.647242e+01 2.976800e+01 1.036056e+02
      vertex   4.561061e+01 2.976800e+01 8.779188e+01
      vertex   6.665347e+01 2.976800e+01 1.027325e+02
    endloop
  endfacet
  facet normal 1.479669e-16 -1.000000e+00 2.671762e-16
    outer loop
      vertex   6.665347e+01 2.976800e+01 1.027325e+02
      vertex   4.561061e+01 2.976800e+01 8.779188e+01
      vertex   5.021772e+01 2.976800e+01 8.524038e+01
    endloop
  endfacet
  facet normal 1.600405e-16 -1.000000e+00 2.558318e-16
    outer loop
      vertex   6.665347e+01 2.976800e+01 1.027325e+02
      vertex   5.021772e+01 2.976800e+01 8.524038e+01
      vertex   5.468253e+01 2.976800e+01 8.244733e+01
    endloop
  endfacet
  facet normal 1.739134e-16 -1.000000e+00 2.476449e-16
    outer loop
      vertex   5.468253e+01 2.976800e+01 8.244733e+01
      vertex   5.899238e+01 2.976800e+01 7.942065e+01
      vertex   6.665347e+01 2.976800e+01 1.027325e+02
    endloop
  endfacet
  facet normal 8.719169e-16 -1.000000e+00 1.825657e-17
    outer loop
      vertex   6.665347e+01 2.976800e+01 1.027325e+02
      vertex   5.899238e+01 2.976800e+01 7.942065e+01
      vertex   6.313507e+01 2.976800e+01 7.616892e+01
    endloop
  endfacet
  facet normal 1.048518e-16 -1.000000e+00 1.198559e-16
    outer loop
      vertex   6.665347e+01 2.976800e+01 1.027325e+02
      vertex   6.313507e+01 2.976800e+01 7.616892e+01
      vertex   6.709885e+01 2.976800e+01 7.270134e+01
    endloop
  endfacet
  facet normal 1.168514e-16 -1.000000e+00 1.200339e-16
    outer loop
      vertex   6.709885e+01 2.976800e+01 7.270134e+01
      vertex   7.087250e+01 2.976800e+01 6.902775e+01
      vertex   6.665347e+01 2.976800e+01 1.027325e+02
    endloop
  endfacet
  facet normal 1.282363e-15 -1.000000e+00 2.659279e-16
    outer loop
      vertex   6.665347e+01 2.976800e+01 1.027325e+02
      vertex   7.087250e+01 2.976800e+01 6.902775e+01
      vertex   7.444530e+01 2.976800e+01 6.515856e+01
    endloop
  endfacet
  facet normal 0.000000e+00 -1.000000e+00 0.000000e+00
    outer loop
      vertex   6.665347e+01 2.976800e+01 1.027325e+02
      vertex   6.665347e+01 2.976800e+01 1.032249e+02
      vertex   6.647242e+01 2.976800e+01 1.036056e+02
    endloop
  endfacet
  facet normal 8.539842e-01 0.000000e+00 -5.202989e-01
    outer loop
      vertex   -7.444530e+01 -2.907774e-15 6.515856e+01
      vertex   -7.754181e+01 -2.963350e-15 6.007616e+01
      vertex   -7.444530e+01 2.976800e+01 6.515856e+01
    endloop
  endfacet
  facet normal 8.539842e-01 0.000000e+00 -5.202989e-01
    outer loop
      vertex   -7.444530e+01 2.976800e+01 6.515856e+01
      vertex   -7.754181e+01 -2.963350e-15 6.007616e+01
      vertex   -7.754181e+01 2.976800e+01 6.007616e+01
    endloop
  endfacet
  facet normal 9.791677e-01 0.000000e+00 -2.030532e-01
    outer loop
      vertex   -4.497783e+01 -3.731502e-15 2.072573e+02
      vertex   -7.444530e+01 -2.907774e-15 6.515856e+01
      vertex   -4.497783e+01 2.976800e+01 2.072573e+02
    endloop
  endfacet
  facet normal 9.791677e-01 0.000000e+00 -2.030532e-01
    outer loop
      vertex   -4.497783e+01 2.976800e+01 2.072573e+02
      vertex   -7.444530e+01 -2.907774e-15 6.515856e+01
      vertex   -7.444530e+01 2.976800e+01 6.515856e+01
    endloop
  endfacet
  facet normal 9.810159e-01 0.000000e+00 -1.939276e-01
    outer loop
      vertex   -4.456187e+01 -3.744549e-15 2.093615e+02
      vertex   -4.497783e+01 -3.731502e-15 2.072573e+02
      vertex   -4.456187e+01 2.976800e+01 2.093615e+02
    endloop
  endfacet
  facet normal 9.810159e-01 0.000000e+00 -1.939276e-01
    outer loop
      vertex   -4.456187e+01 2.976800e+01 2.093615e+02
      vertex   -4.497783e+01 -3.731502e-15 2.072573e+02
      vertex   -4.497783e+01 2.976800e+01 2.072573e+02
    endloop
  endfacet
  facet normal 9.985906e-01 0.000000e+00 5.307320e-02
    outer loop
      vertex   -4.522868e+01 3.176800e+01 2.158973e+02
      vertex   -4.522868e+01 -3.866626e-15 2.158973e+02
      vertex   -4.511236e+01 3.176800e+01 2.137087e+02
    endloop
  endfacet
  facet normal 9.985906e-01 0.000000e+00 5.307320e-02
    outer loop
      vertex   -4.511236e+01 3.176800e+01 2.137087e+02
      vertex   -4.522868e+01 -3.866626e-15 2.158973e+02
      vertex   -4.511236e+01 -3.830201e-15 2.137087e+02
    endloop
  endfacet
  facet normal 9.948358e-01 0.000000e+00 1.014970e-01
    outer loop
      vertex   -4.511236e+01 3.176800e+01 2.137087e+02
      vertex   -4.511236e+01 -3.830201e-15 2.137087e+02
      vertex   -4.488992e+01 -3.789477e-15 2.115284e+02
    endloop
  endfacet
  facet normal 9.887343e-01 -0.000000e+00 1.496813e-01
    outer loop
      vertex   -4.456187e+01 -3.744549e-15 2.093615e+02
      vertex   -4.456187e+01 2.976800e+01 2.093615e+02
      vertex   -4.488992e+01 -3.789477e-15 2.115284e+02
    endloop
  endfacet
  facet normal 9.887343e-01 -0.000000e+00 1.496813e-01
    outer loop
      vertex   -4.488992e+01 -3.789477e-15 2.115284e+02
      vertex   -4.456187e+01 2.976800e+01 2.093615e+02
      vertex   -4.488992e+01 3.176800e+01 2.115284e+02
    endloop
  endfacet
  facet normal 9.948358e-01 -0.000000e+00 1.014970e-01
    outer loop
      vertex   -4.488992e+01 -3.789477e-15 2.115284e+02
      vertex   -4.488992e+01 3.176800e+01 2.115284e+02
      vertex   -4.511236e+01 3.176800e+01 2.137087e+02
    endloop
  endfacet
  facet normal 9.887343e-01 -3.512690e-15 1.496813e-01
    outer loop
      vertex   -4.456187e+01 2.976800e+01 2.093615e+02
      vertex   -4.456187e+01 3.176800e+01 2.093615e+02
      vertex   -4.488992e+01 3.176800e+01 2.115284e+02
    endloop
  endfacet
  facet normal -9.791677e-01 0.000000e+00 2.030532e-01
    outer loop
      vertex   -7.754181e+01 2.976800e+01 6.007616e+01
      vertex   -7.754181e+01 -2.963350e-15 6.007616e+01
      vertex   -7.715928e+01 2.976800e+01 6.192081e+01
    endloop
  endfacet
  facet normal -9.791677e-01 -2.324893e-16 2.030532e-01
    outer loop
      vertex   -7.715928e+01 2.976800e+01 6.192081e+01
      vertex   -7.754181e+01 -2.963350e-15 6.007616e+01
      vertex   -4.522868e+01 -3.866626e-15 2.158973e+02
    endloop
  endfacet
  facet normal -9.791677e-01 0.000000e+00 2.030532e-01
    outer loop
      vertex   -7.715928e+01 2.976800e+01 6.192081e+01
      vertex   -4.522868e+01 -3.866626e-15 2.158973e+02
      vertex   -4.522868e+01 3.176800e+01 2.158973e+02
    endloop
  endfacet
  facet normal -9.791677e-01 8.675494e-15 2.030532e-01
    outer loop
      vertex   -4.522868e+01 3.176800e+01 2.158973e+02
      vertex   -7.715928e+01 3.176800e+01 6.192081e+01
      vertex   -7.715928e+01 2.976800e+01 6.192081e+01
    endloop
  endfacet
  facet normal -2.560091e-14 1.000000e+00 1.108680e-14
    outer loop
      vertex   -7.715928e+01 2.976800e+01 6.192081e+01
      vertex   -7.627002e+01 2.976800e+01 6.301291e+01
      vertex   -7.754181e+01 2.976800e+01 6.007616e+01
    endloop
  endfacet
  facet normal 0.000000e+00 1.000000e+00 0.000000e+00
    outer loop
      vertex   -7.754181e+01 2.976800e+01 6.007616e+01
      vertex   -7.627002e+01 2.976800e+01 6.301291e+01
      vertex   -7.536530e+01 2.976800e+01 6.409223e+01
    endloop
  endfacet
  facet normal 0.000000e+00 1.000000e+00 0.000000e+00
    outer loop
      vertex   -7.754181e+01 2.976800e+01 6.007616e+01
      vertex   -7.536530e+01 2.976800e+01 6.409223e+01
      vertex   -7.444530e+01 2.976800e+01 6.515856e+01
    endloop
  endfacet
  facet normal 4.163336e-17 -1.000000e+00 -1.443052e-17
    outer loop
      vertex   -7.754181e+01 -2.963350e-15 6.007616e+01
      vertex   -7.444530e+01 -2.907774e-15 6.515856e+01
      vertex   -4.522868e+01 -3.866626e-15 2.158973e+02
    endloop
  endfacet
  facet normal 4.163336e-17 -1.000000e+00 -1.443052e-17
    outer loop
      vertex   -4.522868e+01 -3.866626e-15 2.158973e+02
      vertex   -7.444530e+01 -2.907774e-15 6.515856e+01
      vertex   -4.497783e+01 -3.731502e-15 2.072573e+02
    endloop
  endfacet
  facet normal 4.163336e-17 -1.000000e+00 -1.443052e-17
    outer loop
      vertex   -4.522868e+01 -3.866626e-15 2.158973e+02
      vertex   -4.497783e+01 -3.731502e-15 2.072573e+02
      vertex   -4.511236e+01 -3.830201e-15 2.137087e+02
    endloop
  endfacet
  facet normal 4.163336e-17 -1.000000e+00 -1.443052e-17
    outer loop
      vertex   -4.511236e+01 -3.830201e-15 2.137087e+02
      vertex   -4.497783e+01 -3.731502e-15 2.072573e+02
      vertex   -4.488992e+01 -3.789477e-15 2.115284e+02
    endloop
  endfacet
  facet normal 4.163336e-17 -1.000000e+00 -1.443052e-17
    outer loop
      vertex   -4.488992e+01 -3.789477e-15 2.115284e+02
      vertex   -4.497783e+01 -3.731502e-15 2.072573e+02
      vertex   -4.456187e+01 -3.744549e-15 2.093615e+02
    endloop
  endfacet
  facet normal -9.893358e-01 0.000000e+00 1.456523e-01
    outer loop
      vertex   4.431490e+01 -4.431052e-17 2.093615e+02
      vertex   4.468764e+01 -6.532782e-17 2.118933e+02
      vertex   4.431490e+01 2.976800e+01 2.093615e+02
    endloop
  endfacet
  facet normal -9.893358e-01 0.000000e+00 1.456523e-01
    outer loop
      vertex   4.431490e+01 2.976800e+01 2.093615e+02
      vertex   4.468764e+01 -6.532782e-17 2.118933e+02
      vertex   4.468764e+01 3.176800e+01 2.118933e+02
    endloop
  endfacet
  facet normal -9.893358e-01 0.000000e+00 1.456523e-01
    outer loop
      vertex   4.431490e+01 2.976800e+01 2.093615e+02
      vertex   4.468764e+01 3.176800e+01 2.118933e+02
      vertex   4.431490e+01 3.176800e+01 2.093615e+02
    endloop
  endfacet
  facet normal -9.960019e-01 0.000000e+00 8.933183e-02
    outer loop
      vertex   4.468764e+01 3.176800e+01 2.118933e+02
      vertex   4.468764e+01 -6.532782e-17 2.118933e+02
      vertex   4.491625e+01 3.176800e+01 2.144422e+02
    endloop
  endfacet
  facet normal -9.960019e-01 0.000000e+00 8.933183e-02
    outer loop
      vertex   4.491625e+01 3.176800e+01 2.144422e+02
      vertex   4.468764e+01 -6.532782e-17 2.118933e+02
      vertex   4.491625e+01 -9.259200e-17 2.144422e+02
    endloop
  endfacet
  facet normal -9.994644e-01 0.000000e+00 3.272399e-02
    outer loop
      vertex   4.491625e+01 3.176800e+01 2.144422e+02
      vertex   4.491625e+01 -9.259200e-17 2.144422e+02
      vertex   4.500000e+01 3.176800e+01 2.170000e+02
    endloop
  endfacet
  facet normal -9.994644e-01 0.000000e+00 3.272399e-02
    outer loop
      vertex   4.500000e+01 3.176800e+01 2.170000e+02
      vertex   4.491625e+01 -9.259200e-17 2.144422e+02
      vertex   4.500000e+01 -1.260154e-16 2.170000e+02
    endloop
  endfacet
  facet normal -9.544016e-01 0.000000e+00 -2.985257e-01
    outer loop
      vertex   4.498720e+01 1.469684e-17 2.072121e+02
      vertex   4.431490e+01 -4.431052e-17 2.093615e+02
      vertex   4.498720e+01 2.976800e+01 2.072121e+02
    endloop
  endfacet
  facet normal -9.544016e-01 0.000000e+00 -2.985257e-01
    outer loop
      vertex   4.498720e+01 2.976800e+01 2.072121e+02
      vertex   4.431490e+01 -4.431052e-17 2.093615e+02
      vertex   4.431490e+01 2.976800e+01 2.093615e+02
    endloop
  endfacet
  facet normal -9.791677e-01 0.000000e+00 -2.030532e-01
    outer loop
      vertex   6.647242e+01 2.404295e-15 1.036056e+02
      vertex   4.498720e+01 1.469684e-17 2.072121e+02
      vertex   6.647242e+01 2.976800e+01 1.036056e+02
    endloop
  endfacet
  facet normal -9.791677e-01 0.000000e+00 -2.030532e-01
    outer loop
      vertex   6.647242e+01 2.976800e+01 1.036056e+02
      vertex   4.498720e+01 1.469684e-17 2.072121e+02
      vertex   4.498720e+01 2.976800e+01 2.072121e+02
    endloop
  endfacet
  facet normal -9.030501e-01 0.000000e+00 -4.295352e-01
    outer loop
      vertex   6.665347e+01 2.417325e-15 1.032249e+02
      vertex   6.647242e+01 2.404295e-15 1.036056e+02
      vertex   6.665347e+01 2.976800e+01 1.032249e+02
    endloop
  endfacet
  facet normal -9.030501e-01 0.000000e+00 -4.295352e-01
    outer loop
      vertex   6.665347e+01 2.976800e+01 1.032249e+02
      vertex   6.647242e+01 2.404295e-15 1.036056e+02
      vertex   6.647242e+01 2.976800e+01 1.036056e+02
    endloop
  endfacet
  facet normal -1.000000e+00 0.000000e+00 0.000000e+00
    outer loop
      vertex   6.665347e+01 2.424431e-15 1.027325e+02
      vertex   6.665347e+01 2.417325e-15 1.032249e+02
      vertex   6.665347e+01 2.976800e+01 1.027325e+02
    endloop
  endfacet
  facet normal -1.000000e+00 0.000000e+00 0.000000e+00
    outer loop
      vertex   6.665347e+01 2.976800e+01 1.027325e+02
      vertex   6.665347e+01 2.417325e-15 1.032249e+02
      vertex   6.665347e+01 2.976800e+01 1.032249e+02
    endloop
  endfacet
  facet normal -9.791677e-01 0.000000e+00 -2.030532e-01
    outer loop
      vertex   7.444530e+01 3.291043e-15 6.515856e+01
      vertex   6.665347e+01 2.424431e-15 1.027325e+02
      vertex   7.444530e+01 2.976800e+01 6.515856e+01
    endloop
  endfacet
  facet normal -9.791677e-01 0.000000e+00 -2.030532e-01
    outer loop
      vertex   7.444530e+01 2.976800e+01 6.515856e+01
      vertex   6.665347e+01 2.424431e-15 1.027325e+02
      vertex   6.665347e+01 2.976800e+01 1.027325e+02
    endloop
  endfacet
  facet normal -8.539842e-01 1.241919e-16 -5.202989e-01
    outer loop
      vertex   7.754181e+01 3.493303e-15 6.007616e+01
      vertex   7.444530e+01 3.291043e-15 6.515856e+01
      vertex   7.754181e+01 2.976800e+01 6.007616e+01
    endloop
  endfacet
  facet normal -8.539842e-01 0.000000e+00 -5.202989e-01
    outer loop
      vertex   7.754181e+01 2.976800e+01 6.007616e+01
      vertex   7.444530e+01 3.291043e-15 6.515856e+01
      vertex   7.444530e+01 2.976800e+01 6.515856e+01
    endloop
  endfacet
  facet normal 9.791677e-01 0.000000e+00 2.030532e-01
    outer loop
      vertex   4.500000e+01 3.176800e+01 2.170000e+02
      vertex   4.500000e+01 -1.260154e-16 2.170000e+02
      vertex   7.715928e+01 2.976800e+01 6.192081e+01
    endloop
  endfacet
  facet normal 9.791677e-01 1.852802e-15 2.030532e-01
    outer loop
      vertex   7.715928e+01 2.976800e+01 6.192081e+01
      vertex   4.500000e+01 -1.260154e-16 2.170000e+02
      vertex   7.754181e+01 3.493303e-15 6.007616e+01
    endloop
  endfacet
  facet normal 9.791677e-01 -4.949292e-17 2.030532e-01
    outer loop
      vertex   7.715928e+01 2.976800e+01 6.192081e+01
      vertex   7.754181e+01 3.493303e-15 6.007616e+01
      vertex   7.754181e+01 2.976800e+01 6.007616e+01
    endloop
  endfacet
  facet normal 9.791677e-01 -0.000000e+00 2.030532e-01
    outer loop
      vertex   7.715928e+01 2.976800e+01 6.192081e+01
      vertex   7.715928e+01 3.176800e+01 6.192081e+01
      vertex   4.500000e+01 3.176800e+01 2.170000e+02
    endloop
  endfacet
  facet normal 1.314280e-14 1.000000e+00 8.007387e-15
    outer loop
      vertex   7.444530e+01 2.976800e+01 6.515856e+01
      vertex   7.536530e+01 2.976800e+01 6.409223e+01
      vertex   7.754181e+01 2.976800e+01 6.007616e+01
    endloop
  endfacet
  facet normal 2.985802e-15 1.000000e+00 2.502786e-15
    outer loop
      vertex   7.754181e+01 2.976800e+01 6.007616e+01
      vertex   7.536530e+01 2.976800e+01 6.409223e+01
      vertex   7.627002e+01 2.976800e+01 6.301291e+01
    endloop
  endfacet
  facet normal 3.173415e-15 1.000000e+00 2.584034e-15
    outer loop
      vertex   7.754181e+01 2.976800e+01 6.007616e+01
      vertex   7.627002e+01 2.976800e+01 6.301291e+01
      vertex   7.715928e+01 2.976800e+01 6.192081e+01
    endloop
  endfacet
  facet normal 4.163336e-17 -1.000000e+00 -1.443052e-17
    outer loop
      vertex   7.444530e+01 3.291043e-15 6.515856e+01
      vertex   7.754181e+01 3.493303e-15 6.007616e+01
      vertex   6.665347e+01 2.417325e-15 1.032249e+02
    endloop
  endfacet
  facet normal 4.163336e-17 -1.000000e+00 -1.443052e-17
    outer loop
      vertex   6.665347e+01 2.417325e-15 1.032249e+02
      vertex   7.754181e+01 3.493303e-15 6.007616e+01
      vertex   4.500000e+01 -1.260154e-16 2.170000e+02
    endloop
  endfacet
  facet normal 4.163336e-17 -1.000000e+00 -1.443052e-17
    outer loop
      vertex   6.665347e+01 2.417325e-15 1.032249e+02
      vertex   4.500000e+01 -1.260154e-16 2.170000e+02
      vertex   6.647242e+01 2.404295e-15 1.036056e+02
    endloop
  endfacet
  facet normal 4.163336e-17 -1.000000e+00 -1.443052e-17
    outer loop
      vertex   6.647242e+01 2.404295e-15 1.036056e+02
      vertex   4.500000e+01 -1.260154e-16 2.170000e+02
      vertex   4.498720e+01 1.469684e-17 2.072121e+02
    endloop
  endfacet
  facet normal 4.163336e-17 -1.000000e+00 -1.443052e-17
    outer loop
      vertex   4.498720e+01 1.469684e-17 2.072121e+02
      vertex   4.500000e+01 -1.260154e-16 2.170000e+02
      vertex   4.491625e+01 -9.259200e-17 2.144422e+02
    endloop
  endfacet
  facet normal 4.163336e-17 -1.000000e+00 -1.443052e-17
    outer loop
      vertex   4.498720e+01 1.469684e-17 2.072121e+02
      vertex   4.491625e+01 -9.259200e-17 2.144422e+02
      vertex   4.468764e+01 -6.532782e-17 2.118933e+02
    endloop
  endfacet
  facet normal 4.163336e-17 -1.000000e+00 -1.443052e-17
    outer loop
      vertex   4.468764e+01 -6.532782e-17 2.118933e+02
      vertex   4.431490e+01 -4.431052e-17 2.093615e+02
      vertex   4.498720e+01 1.469684e-17 2.072121e+02
    endloop
  endfacet
  facet normal 4.163336e-17 -1.000000e+00 -1.443052e-17
    outer loop
      vertex   6.665347e+01 2.417325e-15 1.032249e+02
      vertex   6.665347e+01 2.424431e-15 1.027325e+02
      vertex   7.444530e+01 3.291043e-15 6.515856e+01
    endloop
  endfacet
endsolid
